<svg width="18" height="18" viewBox="0 0 18 18" fill="none" xmlns="http://www.w3.org/2000/svg">
<rect width="18" height="18" transform="translate(0 0.000244141)" fill="#5865F2"/>
<path d="M13.1651 4.93934C12.3884 4.57591 11.5578 4.31178 10.6894 4.16138C10.5828 4.35418 10.4582 4.61351 10.3723 4.8198C9.44925 4.68099 8.53467 4.68099 7.62858 4.8198C7.5427 4.61351 7.41528 4.35418 7.30768 4.16138C6.4384 4.31178 5.60688 4.57688 4.8301 4.94127C3.26332 7.30887 2.83859 9.61766 3.05096 11.8937C4.09013 12.6697 5.0972 13.1411 6.08729 13.4496C6.33174 13.1131 6.54977 12.7555 6.73759 12.3786C6.37988 12.2427 6.03726 12.0749 5.71354 11.8802C5.79942 11.8166 5.88343 11.75 5.96459 11.6816C7.9391 12.6051 10.0844 12.6051 12.0354 11.6816C12.1175 11.75 12.2015 11.8166 12.2864 11.8802C11.9617 12.0759 11.6182 12.2436 11.2605 12.3795C11.4483 12.7555 11.6654 13.1141 11.9108 13.4505C12.9018 13.1421 13.9098 12.6707 14.949 11.8937C15.1982 9.2552 14.5233 6.96761 13.1651 4.93934ZM7.00659 10.4939C6.41386 10.4939 5.92778 9.9406 5.92778 9.26676C5.92778 8.59292 6.40348 8.03862 7.00659 8.03862C7.60971 8.03862 8.09578 8.59195 8.0854 9.26676C8.08634 9.9406 7.60971 10.4939 7.00659 10.4939ZM10.9934 10.4939C10.4006 10.4939 9.91456 9.9406 9.91456 9.26676C9.91456 8.59292 10.3902 8.03862 10.9934 8.03862C11.5965 8.03862 12.0826 8.59195 12.0722 9.26676C12.0722 9.9406 11.5965 10.4939 10.9934 10.4939Z" fill="white"/>
</svg>
