<svg width="272" height="39" viewBox="0 0 272 39" fill="none" xmlns="http://www.w3.org/2000/svg">
<path opacity="0.3" fill-rule="evenodd" clip-rule="evenodd" d="M0.556406 38C0.300867 38 0.0864329 38.1927 0.0592298 38.4468C0.027591 38.7423 0.259189 39 0.556395 39H267.375C267.631 39 267.845 38.8073 267.873 38.5532C267.904 38.2577 267.673 38 267.375 38H0.556406ZM0.273356 36.4468C0.241717 36.7423 0.473308 37 0.770514 37H267.589C267.845 37 268.059 36.8073 268.087 36.5532L268.194 35.5532C268.225 35.2577 267.994 35 267.697 35H0.877577C0.622038 35 0.407622 35.1927 0.380418 35.4468L0.273356 36.4468ZM0.594544 33.4468C0.562905 33.7423 0.794503 34 1.09171 34H267.911C268.166 34 268.381 33.8073 268.408 33.5532L268.515 32.5532C268.547 32.2577 268.315 32 268.018 32H1.19878C0.943243 32 0.72881 32.1927 0.701606 32.4468L0.594544 33.4468ZM0.915732 30.4468C0.884093 30.7423 1.11568 31 1.41289 31H156.801C157.304 31 157.492 30.3406 157.064 30.0752L155.454 29.0752C155.375 29.026 155.283 29 155.19 29H148.447C148.19 29 147.976 29.1937 147.949 29.4486L147.852 30.3894C147.826 30.6443 147.611 30.838 147.355 30.838H143.898C143.717 30.838 143.549 30.7398 143.461 30.5814L142.723 29.2566C142.635 29.0982 142.467 29 142.286 29H134.494C134.238 29 134.023 29.1939 133.997 29.4489L133.9 30.3891C133.874 30.6441 133.659 30.838 133.403 30.838H129.918C129.622 30.838 129.39 30.5816 129.421 30.2867L129.497 29.5514C129.527 29.2565 129.296 29 128.999 29H108.007C107.75 29 107.535 29.1938 107.509 29.4488L107.412 30.3893C107.386 30.6442 107.171 30.838 106.915 30.838H103.43C103.134 30.838 102.902 30.5818 102.932 30.287L103.008 29.5511C103.038 29.2563 102.807 29 102.511 29H94.6837C94.4266 29 94.2114 29.1949 94.1861 29.4507L94.0934 30.3873C94.0681 30.6431 93.8529 30.838 93.5958 30.838H82.4473C82.1509 30.838 81.9195 30.5816 81.95 30.2867L82.0259 29.5514C82.0564 29.2565 81.825 29 81.5286 29H68.1297C67.8733 29 67.6584 29.194 67.6323 29.4491L67.5362 30.3889C67.5101 30.644 67.2952 30.838 67.0388 30.838H63.5543C63.2578 30.838 63.0265 30.5816 63.0569 30.2867L63.1329 29.5514C63.1633 29.2565 62.9319 29 62.6355 29H1.51995C1.26441 29 1.05 29.1927 1.02279 29.4468L0.915732 30.4468ZM1.23692 27.4468C1.20528 27.7423 1.43687 28 1.73408 28H62.842C63.0983 28 63.313 27.8063 63.3394 27.5514L63.4426 26.5514C63.4731 26.2565 63.2417 26 62.9453 26H1.84114C1.5856 26 1.37119 26.1927 1.34398 26.4468L1.23692 27.4468ZM1.55811 24.4468C1.52647 24.7423 1.75806 25 2.05527 25H63.1518C63.408 25 63.6228 24.8063 63.6491 24.5514L63.7524 23.5514C63.7828 23.2565 63.5515 23 63.255 23H2.16233C1.90679 23 1.69237 23.1927 1.66517 23.4468L1.55811 24.4468ZM1.8793 21.4468C1.84766 21.7423 2.07925 22 2.37646 22H63.4615C63.7178 22 63.9325 21.8063 63.9589 21.5514L64.0621 20.5514C64.0926 20.2565 63.8612 20 63.5648 20H2.48352C2.22798 20 2.01356 20.1927 1.98636 20.4468L1.8793 21.4468ZM2.20048 18.4468C2.16885 18.7423 2.40044 19 2.69764 19H63.7713C64.0275 19 64.2423 18.8063 64.2686 18.5514L64.3719 17.5514C64.4023 17.2565 64.171 17 63.8745 17H2.80471C2.54917 17 2.33475 17.1927 2.30755 17.4468L2.20048 18.4468ZM2.52167 15.4468C2.49003 15.7423 2.72162 16 3.01883 16H64.081C64.3373 16 64.5521 15.8063 64.5784 15.5514L64.6816 14.5514C64.7121 14.2565 64.4807 14 64.1843 14H3.12589C2.87035 14 2.65594 14.1927 2.62874 14.4468L2.52167 15.4468ZM2.84286 12.4468C2.81122 12.7423 3.04281 13 3.34002 13H64.3908C64.647 13 64.8618 12.8063 64.8881 12.5514L64.9914 11.5514C65.0218 11.2565 64.7905 11 64.494 11H3.44708C3.19154 11 2.97713 11.1927 2.94992 11.4468L2.84286 12.4468ZM3.16405 9.44677C3.13241 9.74229 3.364 10 3.66121 10H64.7005C64.9568 10 65.1716 9.80626 65.1979 9.55135L65.295 8.61062C65.3213 8.35572 65.5361 8.16197 65.7924 8.16197H78.5442C78.8414 8.16197 79.0731 8.41975 79.0414 8.7153L78.9629 9.44667C78.9312 9.74222 79.1628 10 79.4601 10H83.5936C83.8498 10 84.0646 9.80626 84.0909 9.55135L84.1881 8.61062C84.2144 8.35571 84.4292 8.16197 84.6854 8.16197H88.1699C88.4665 8.16197 88.6979 8.41873 88.6672 8.71376L88.5907 9.44822C88.56 9.74325 88.7914 10 89.088 10H98.0567C98.4198 10 98.6618 9.62507 98.5123 9.29412L98.3197 8.86785C98.1702 8.5369 98.4122 8.16197 98.7754 8.16197H102.548C102.747 8.16197 102.927 8.28009 103.007 8.46269L103.544 9.69928C103.623 9.88188 103.803 10 104.003 10H110.627C110.797 10 110.956 9.91343 111.048 9.77025L111.933 8.39172C112.025 8.24854 112.184 8.16197 112.354 8.16197H116.027C116.425 8.16197 116.664 8.60499 116.444 8.93741L116.255 9.22456C116.035 9.55699 116.274 10 116.672 10H131.064C131.321 10 131.535 9.80626 131.562 9.55135L131.659 8.61062C131.685 8.35572 131.9 8.16197 132.156 8.16197H135.612C135.794 8.16197 135.961 8.26048 136.05 8.41929L136.784 9.74268C136.872 9.90149 137.04 10 137.221 10H145.014C145.27 10 145.484 9.80672 145.511 9.55217L145.61 8.6098C145.637 8.35525 145.851 8.16197 146.107 8.16197H149.593C149.889 8.16197 150.121 8.41844 150.09 8.71332L150.014 9.44865C149.984 9.74353 150.215 10 150.512 10H157.196C157.28 10 157.363 9.9787 157.437 9.93808L159.254 8.93808C159.707 8.68885 159.53 8 159.013 8H3.76827C3.51273 8 3.29832 8.19269 3.27111 8.44677L3.16405 9.44677ZM3.48524 6.44677C3.4536 6.74229 3.68519 7 3.9824 7H270.801C271.057 7 271.271 6.80732 271.299 6.55323L271.406 5.55323C271.437 5.25771 271.206 5 270.908 5H4.08946C3.83392 5 3.6195 5.19269 3.5923 5.44677L3.48524 6.44677ZM3.80643 3.44677C3.77479 3.74229 4.00638 4 4.30359 4H271.123C271.378 4 271.593 3.80731 271.62 3.55322L271.727 2.55322C271.758 2.25771 271.527 2 271.23 2H4.41065C4.15511 2 3.94069 2.19269 3.91349 2.44677L3.80643 3.44677ZM4.12761 0.446773C4.09597 0.74229 4.32757 1 4.62478 1H271.444C271.699 1 271.914 0.807312 271.941 0.553224C271.973 0.257708 271.741 0 271.444 0H4.62477C4.36923 0 4.15482 0.192686 4.12761 0.446773ZM271.084 8.55322C271.116 8.25771 270.884 8 270.587 8H172.752C172.249 8 172.061 8.65942 172.488 8.92479L174.099 9.92479C174.178 9.97395 174.269 10 174.362 10H179.507C179.812 10 180.046 9.72863 180.001 9.42655L179.899 8.73542C179.854 8.43334 180.088 8.16197 180.393 8.16197H183.741C183.99 8.16197 184.201 8.34563 184.236 8.59252L184.373 9.56945C184.407 9.81634 184.619 10 184.868 10H191.106C191.315 10 191.503 9.86917 191.575 9.67233L192.009 8.48964C192.082 8.29281 192.269 8.16197 192.479 8.16197H196.258C196.504 8.16197 196.713 8.34001 196.752 8.58223L196.913 9.57975C196.952 9.82197 197.161 10 197.407 10H203.643C203.856 10 204.045 9.86531 204.115 9.66432L204.521 8.49765C204.591 8.29667 204.781 8.16197 204.993 8.16197H208.292C208.637 8.16197 208.879 8.50379 208.763 8.82925L208.584 9.33272C208.469 9.65819 208.71 10 209.056 10H270.48C270.736 10 270.95 9.80731 270.977 9.55322L271.084 8.55322ZM270.763 11.5532C270.795 11.2577 270.563 11 270.266 11H208.346C208.134 11 207.945 11.1333 207.874 11.3327L207.519 12.3327C207.404 12.6582 207.645 13 207.991 13H270.159C270.415 13 270.629 12.8073 270.656 12.5532L270.763 11.5532ZM270.442 14.5532C270.474 14.2577 270.242 14 269.945 14H207.28C207.069 14 206.88 14.1333 206.809 14.3327L206.454 15.3327C206.339 15.6582 206.58 16 206.925 16H269.838C270.093 16 270.308 15.8073 270.335 15.5532L270.442 14.5532ZM270.121 17.5532C270.152 17.2577 269.921 17 269.624 17H206.215C206.004 17 205.815 17.1333 205.744 17.3327L205.389 18.3327C205.274 18.6582 205.515 19 205.86 19H269.517C269.772 19 269.987 18.8073 270.014 18.5532L270.121 17.5532ZM269.8 20.5532C269.831 20.2577 269.6 20 269.302 20H205.15C204.939 20 204.75 20.1333 204.679 20.3327L204.324 21.3327C204.209 21.6582 204.45 22 204.795 22H269.195C269.451 22 269.665 21.8073 269.693 21.5532L269.8 20.5532ZM269.478 23.5532C269.51 23.2577 269.279 23 268.981 23H204.085C203.874 23 203.685 23.1333 203.614 23.3327L203.259 24.3327C203.144 24.6582 203.385 25 203.73 25H268.874C269.13 25 269.344 24.8073 269.371 24.5532L269.478 23.5532ZM269.157 26.5532C269.189 26.2577 268.957 26 268.66 26H203.02C202.809 26 202.62 26.1333 202.549 26.3327L202.194 27.3327C202.079 27.6582 202.32 28 202.665 28H268.553C268.809 28 269.023 27.8073 269.05 27.5532L269.157 26.5532ZM268.836 29.5532C268.868 29.2577 268.636 29 268.339 29H201.955C201.744 29 201.555 29.1333 201.484 29.3327L201.068 30.5053C200.997 30.7048 200.808 30.838 200.597 30.838H196.565C196.319 30.838 196.11 30.6599 196.071 30.4176L195.91 29.4204C195.871 29.1781 195.662 29 195.417 29H189.015C188.805 29 188.617 29.131 188.545 29.328L188.112 30.51C188.04 30.707 187.853 30.838 187.643 30.838H183.612C183.365 30.838 183.154 30.6566 183.118 30.4115L182.972 29.4265C182.935 29.1815 182.725 29 182.477 29H172.357C172.272 29 172.189 29.0213 172.116 29.0619L170.298 30.0619C169.845 30.3112 170.022 31 170.539 31H268.232C268.487 31 268.702 30.8073 268.729 30.5532L268.836 29.5532ZM172.683 27.4479C172.652 27.743 172.883 28 173.18 28H182.18C182.485 28 182.719 27.7286 182.675 27.4265L182.526 26.4265C182.49 26.1815 182.279 26 182.031 26H173.285C173.029 26 172.814 26.1933 172.788 26.4479L172.683 27.4479ZM172.997 24.4479C172.966 24.743 173.198 25 173.495 25H181.734C182.04 25 182.274 24.7286 182.229 24.4265L182.08 23.4265C182.044 23.1815 181.834 23 181.586 23H173.599C173.344 23 173.129 23.1933 173.102 23.4479L172.997 24.4479ZM168.11 23C168.407 23 168.638 23.2565 168.608 23.5513L168.505 24.5513C168.478 24.8062 168.263 25 168.007 25H160.513C160.217 25 159.985 24.7435 160.016 24.4487L160.119 23.4487C160.145 23.1938 160.36 23 160.616 23H168.11ZM173.312 21.4479C173.281 21.743 173.512 22 173.809 22H181.289C181.594 22 181.828 21.7286 181.783 21.4265L181.635 20.4265C181.599 20.1815 181.388 20 181.14 20H173.914C173.658 20 173.443 20.1933 173.417 20.4479L173.312 21.4479ZM168.42 20C168.716 20 168.948 20.2565 168.917 20.5513L168.814 21.5513C168.788 21.8062 168.573 22 168.317 22H160.823C160.526 22 160.295 21.7435 160.325 21.4487L160.429 20.4487C160.455 20.1938 160.67 20 160.926 20H168.42ZM173.626 18.4479C173.596 18.743 173.827 19 174.124 19H180.843C181.149 19 181.383 18.7286 181.338 18.4265L181.189 17.4265C181.153 17.1815 180.943 17 180.695 17H174.229C173.973 17 173.758 17.1933 173.731 17.4479L173.626 18.4479ZM168.73 17C169.026 17 169.257 17.2565 169.227 17.5513L169.124 18.5513C169.098 18.8062 168.883 19 168.626 19H161.132C160.836 19 160.605 18.7435 160.635 18.4487L160.738 17.4487C160.765 17.1938 160.979 17 161.236 17H168.73ZM173.941 15.4479C173.91 15.743 174.142 16 174.438 16H180.398C180.703 16 180.937 15.7286 180.892 15.4265L180.744 14.4265C180.707 14.1815 180.497 14 180.249 14H174.543C174.287 14 174.073 14.1933 174.046 14.4479L173.941 15.4479ZM169.039 14C169.336 14 169.567 14.2565 169.537 14.5513L169.434 15.5513C169.407 15.8062 169.192 16 168.936 16H161.442C161.146 16 160.914 15.7435 160.945 15.4487L161.048 14.4487C161.074 14.1938 161.289 14 161.545 14H169.039ZM174.256 12.4479C174.225 12.743 174.456 13 174.753 13H179.952C180.258 13 180.492 12.7286 180.447 12.4265L180.298 11.4265C180.262 11.1815 180.052 11 179.804 11H174.858C174.602 11 174.387 11.1933 174.36 11.4479L174.256 12.4479ZM156.87 11.5521C156.901 11.257 156.669 11 156.372 11H150.305C150.049 11 149.834 11.1937 149.808 11.4486L149.705 12.4486C149.674 12.7435 149.905 13 150.202 13H156.268C156.523 13 156.738 12.8067 156.765 12.5521L156.87 11.5521ZM161.752 13C161.455 13 161.224 12.7435 161.254 12.4487L161.266 12.336C161.292 12.0811 161.507 11.8873 161.763 11.8873H169.257C169.554 11.8873 169.785 12.1438 169.755 12.4387L169.743 12.5513C169.717 12.8062 169.502 13 169.246 13H161.752ZM156.555 14.5521C156.586 14.257 156.355 14 156.058 14H149.995C149.739 14 149.524 14.1937 149.498 14.4486L149.395 15.4486C149.364 15.7435 149.596 16 149.892 16H155.953C156.209 16 156.424 15.8067 156.45 15.5521L156.555 14.5521ZM156.241 17.5521C156.271 17.257 156.04 17 155.743 17H149.686C149.429 17 149.215 17.1937 149.188 17.4486L149.085 18.4486C149.055 18.7435 149.286 19 149.582 19H155.638C155.894 19 156.109 18.8067 156.136 18.5521L156.241 17.5521ZM155.926 20.5521C155.957 20.257 155.725 20 155.429 20H149.376C149.12 20 148.905 20.1937 148.879 20.4486L148.775 21.4486C148.745 21.7435 148.976 22 149.273 22H155.324C155.58 22 155.794 21.8067 155.821 21.5521L155.926 20.5521ZM155.611 23.5521C155.642 23.257 155.411 23 155.114 23H149.066C148.81 23 148.595 23.1937 148.569 23.4486L148.466 24.4486C148.435 24.7435 148.666 25 148.963 25H155.009C155.265 25 155.48 24.8067 155.507 24.5521L155.611 23.5521ZM155.297 26.5521C155.328 26.257 155.096 26 154.8 26H148.756C148.5 26 148.285 26.1937 148.259 26.4486L148.156 27.4486C148.125 27.7435 148.357 28 148.653 28H154.695C154.951 28 155.165 27.8067 155.192 27.5521L155.297 26.5521ZM141.171 28C141.553 28 141.794 27.5899 141.608 27.2566L141.051 26.2566C140.963 26.0982 140.795 26 140.614 26H134.802C134.546 26 134.331 26.1939 134.305 26.4489L134.202 27.4489C134.172 27.7437 134.403 28 134.7 28H141.171ZM129.206 28C129.462 28 129.677 27.8063 129.703 27.5514L129.806 26.5514C129.837 26.2565 129.605 26 129.309 26H108.316C108.059 26 107.844 26.1938 107.818 26.4488L107.715 27.4488C107.685 27.7436 107.916 28 108.213 28H129.206ZM102.716 28C102.972 28 103.187 27.8061 103.213 27.5511L103.316 26.5511C103.346 26.2563 103.115 26 102.819 26H87.2956C87.0521 26 86.848 26.184 86.8228 26.4261C86.7936 26.7066 87.0136 26.9507 87.2956 26.9507H93.9064C94.1888 26.9507 94.4095 27.1944 94.3817 27.4754C94.3539 27.7563 94.5746 28 94.857 28H102.716ZM81.7351 28C81.9913 28 82.2061 27.8063 82.2324 27.5514L82.3357 26.5514C82.3661 26.2565 82.1348 26 81.8383 26H68.4367C68.1802 26 67.9654 26.194 67.9393 26.4491L67.837 27.4491C67.8068 27.7438 68.0381 28 68.3344 28H81.7351ZM68.1439 24.4491C68.1137 24.7438 68.345 25 68.6413 25H82.0448C82.3011 25 82.5159 24.8063 82.5422 24.5514L82.6454 23.5514C82.6759 23.2565 82.4445 23 82.1481 23H68.7436C68.4871 23 68.2723 23.194 68.2462 23.4491L68.1439 24.4491ZM68.4441 21.5151C68.4175 21.7745 68.6211 22 68.8819 22H82.3546C82.6108 22 82.8256 21.8063 82.8519 21.5514L82.9552 20.5514C82.9856 20.2565 82.7543 20 82.4578 20H76.3986C76.1431 20 75.9287 20.1926 75.9014 20.4467L75.8772 20.673C75.8499 20.9271 75.6355 21.1197 75.38 21.1197H68.8819C68.6562 21.1197 68.467 21.2905 68.4441 21.5151ZM76.116 18.4467C76.0843 18.7422 76.3159 19 76.6131 19H82.6643C82.9206 19 83.1354 18.8063 83.1617 18.5514L83.2649 17.5514C83.2954 17.2565 83.064 17 82.7676 17H69.0297C68.97 17 68.92 17.0453 68.9141 17.1048C68.9073 17.1731 68.961 17.2324 69.0297 17.2324H75.6897C75.9869 17.2324 76.2185 17.4902 76.1868 17.7857L76.116 18.4467ZM69.0779 15.4507C69.0487 15.7449 69.2798 16 69.5754 16H82.9741C83.2303 16 83.4451 15.8063 83.4714 15.5514L83.5747 14.5514C83.6051 14.2565 83.3738 14 83.0773 14H69.6744C69.4174 14 69.2022 14.1949 69.1769 14.4507L69.0779 15.4507ZM69.3722 12.4778C69.3445 12.7575 69.5642 13 69.8452 13H83.2838C83.5401 13 83.7549 12.8063 83.7812 12.5514L83.8844 11.5514C83.9149 11.2565 83.6835 11 83.3871 11H79.2455C78.99 11 78.7756 11.1926 78.7484 11.4467L78.7317 11.6026C78.7044 11.8567 78.49 12.0493 78.2345 12.0493H69.8452C69.6008 12.0493 69.3963 12.2346 69.3722 12.4778ZM88.8798 11C88.6237 11 88.409 11.1935 88.3824 11.4482L88.2783 12.4482C88.2476 12.7432 88.479 13 88.7756 13H99.4122C99.7753 13 100.017 12.6251 99.8678 12.2941L99.416 11.2941C99.3351 11.1151 99.1568 11 98.9603 11H88.8798ZM104.872 11C104.512 11 104.27 11.3691 104.413 11.6993L104.848 12.6993C104.927 12.8819 105.107 13 105.306 13H108.7C108.87 13 109.028 12.9134 109.12 12.7702L109.763 11.7702C109.977 11.4375 109.738 11 109.342 11H104.872ZM115.352 11C115.184 11 115.027 11.0844 114.935 11.2246L114.274 12.2246C114.055 12.557 114.293 13 114.692 13H130.755C131.011 13 131.226 12.8063 131.252 12.5514L131.355 11.5514C131.386 11.2565 131.154 11 130.858 11H115.352ZM138.332 11C137.95 11 137.709 11.4094 137.895 11.7427L138.45 12.7427C138.538 12.9015 138.705 13 138.887 13H144.699C144.955 13 145.17 12.8067 145.196 12.5522L145.301 11.5522C145.332 11.257 145.101 11 144.804 11H138.332ZM144.987 14.5522C145.017 14.257 144.786 14 144.489 14H139.997C139.616 14 139.375 14.4094 139.56 14.7427L140.115 15.7427C140.203 15.9015 140.371 16 140.552 16H144.384C144.64 16 144.855 15.8067 144.882 15.5522L144.987 14.5522ZM144.672 17.5522C144.703 17.257 144.471 17 144.175 17H141.663C141.281 17 141.04 17.4094 141.225 17.7427L141.781 18.7427C141.869 18.9015 142.036 19 142.218 19H144.07C144.326 19 144.54 18.8067 144.567 18.5522L144.672 17.5522ZM144.357 20.5522C144.388 20.257 144.157 20 143.86 20H143.328C142.947 20 142.706 20.4094 142.891 20.7427L143.471 21.787C143.544 21.9185 143.682 22 143.832 22C144.044 22 144.222 21.84 144.244 21.6293L144.357 20.5522ZM137.827 22C138.209 22 138.45 21.5899 138.264 21.2566L137.707 20.2566C137.619 20.0982 137.451 20 137.27 20H135.419C135.162 20 134.947 20.1939 134.921 20.4489L134.818 21.4489C134.788 21.7437 135.02 22 135.316 22H137.827ZM129.825 22C130.082 22 130.296 21.8063 130.323 21.5513L130.426 20.5513C130.456 20.2565 130.225 20 129.929 20H109.411C109.243 20 109.087 20.0844 108.994 20.2246L108.428 21.0822C108.384 21.1494 108.356 21.2263 108.348 21.3064L108.333 21.4488C108.303 21.7436 108.534 22 108.831 22H129.825ZM108.127 23.4488C108.153 23.1938 108.368 23 108.625 23H129.619C129.915 23 130.147 23.2565 130.116 23.5514L130.013 24.5514C129.987 24.8063 129.772 25 129.516 25H108.522C108.225 25 107.994 24.7436 108.024 24.4488L108.127 23.4488ZM103.332 22C103.588 22 103.803 21.8061 103.829 21.5511L103.856 21.2862C103.865 21.1984 103.851 21.1097 103.815 21.0293L103.482 20.2941C103.402 20.1151 103.223 20 103.027 20H87.9426C87.6865 20 87.4718 20.1935 87.4453 20.4482L87.3411 21.4482C87.3104 21.7432 87.5418 22 87.8385 22H103.332ZM87.1329 23.4482C87.1594 23.1935 87.3741 23 87.6302 23H103.127C103.423 23 103.654 23.2563 103.624 23.5511L103.521 24.5511C103.495 24.8061 103.28 25 103.024 25H87.5261C87.2294 25 86.998 24.7432 87.0288 24.4482L87.1329 23.4482ZM87.6535 18.4482C87.6228 18.7432 87.8542 19 88.1508 19H102.123C102.486 19 102.728 18.6251 102.579 18.2941L102.127 17.2941C102.046 17.1151 101.868 17 101.671 17H88.255C87.9989 17 87.7842 17.1935 87.7577 17.4482L87.6535 18.4482ZM87.9659 15.4482C87.9352 15.7432 88.1666 16 88.4632 16H100.768C101.131 16 101.373 15.6251 101.223 15.2941L100.771 14.2941C100.691 14.1151 100.512 14 100.316 14H88.5674C88.3113 14 88.0966 14.1935 88.0701 14.4482L87.9659 15.4482ZM106.175 14C105.815 14 105.573 14.3691 105.717 14.6993L106.151 15.6993C106.231 15.8819 106.411 16 106.61 16H106.772C106.943 16 107.101 15.9134 107.193 15.7702L107.836 14.7702C108.049 14.4375 107.81 14 107.415 14H106.175ZM113.372 14C113.204 14 113.047 14.0844 112.954 14.2246L112.294 15.2246C112.075 15.557 112.313 16 112.712 16H130.445C130.701 16 130.916 15.8063 130.942 15.5514L131.045 14.5514C131.076 14.2565 130.844 14 130.548 14H113.372ZM130.736 17.5513C130.766 17.2565 130.535 17 130.238 17H111.391C111.223 17 111.067 17.0844 110.974 17.2246L110.314 18.2246C110.095 18.557 110.333 19 110.731 19H130.135C130.391 19 130.606 18.8063 130.632 18.5513L130.736 17.5513ZM135.127 18.4489C135.096 18.7437 135.328 19 135.624 19H136.155C136.537 19 136.778 18.5899 136.592 18.2566L136.01 17.2123C135.937 17.0812 135.799 17 135.649 17C135.437 17 135.259 17.1604 135.237 17.3714L135.127 18.4489ZM135.008 25C134.711 25 134.48 24.7437 134.51 24.4489L134.613 23.4489C134.639 23.1939 134.854 23 135.11 23H138.942C139.123 23 139.291 23.0982 139.379 23.2566L139.936 24.2566C140.122 24.5899 139.881 25 139.499 25H135.008ZM185.149 11C184.845 11 184.611 11.2686 184.653 11.5694L184.794 12.5694C184.828 12.8163 185.039 13 185.289 13H190.004C190.214 13 190.401 12.8692 190.474 12.6723L190.841 11.6723C190.961 11.346 190.719 11 190.371 11H185.149ZM197.73 11C197.422 11 197.187 11.2757 197.236 11.5798L197.398 12.5798C197.437 12.822 197.646 13 197.891 13H202.599C202.812 13 203.001 12.8653 203.071 12.6643L203.419 11.6643C203.532 11.3394 203.291 11 202.947 11H197.73ZM202.375 14.6643C202.488 14.3394 202.247 14 201.903 14H198.214C197.906 14 197.672 14.2757 197.721 14.5797L197.882 15.5797C197.921 15.822 198.131 16 198.376 16H201.555C201.768 16 201.957 15.8653 202.027 15.6643L202.375 14.6643ZM201.331 17.6643C201.445 17.3394 201.203 17 200.859 17H198.699C198.391 17 198.156 17.2757 198.205 17.5797L198.367 18.5797C198.406 18.822 198.615 19 198.861 19H200.511C200.724 19 200.914 18.8653 200.983 18.6643L201.331 17.6643ZM200.288 20.6643C200.401 20.3394 200.159 20 199.815 20H199.184C198.876 20 198.641 20.2757 198.69 20.5797L198.852 21.5797C198.891 21.822 199.1 22 199.345 22H199.467C199.68 22 199.87 21.8653 199.94 21.6643L200.288 20.6643ZM199.404 23.2026C199.439 23.1035 199.365 23 199.26 23C199.166 23 199.095 23.0841 199.11 23.1768L199.18 23.612C199.183 23.6319 199.2 23.6465 199.221 23.6465C199.238 23.6465 199.254 23.6354 199.259 23.6189L199.404 23.2026ZM194.127 22C194.435 22 194.67 21.7244 194.621 21.4204L194.46 20.4204C194.421 20.1781 194.211 20 193.966 20H192.312C192.102 20 191.914 20.131 191.842 20.328L191.476 21.328C191.356 21.6543 191.598 22 191.945 22H194.127ZM190.743 23.328C190.815 23.131 191.003 23 191.213 23H194.45C194.695 23 194.904 23.1781 194.943 23.4204L195.104 24.4204C195.153 24.7244 194.919 25 194.611 25H190.846C190.499 25 190.257 24.6543 190.377 24.328L190.743 23.328ZM186.7 22C186.909 22 187.097 21.8692 187.169 21.6723L187.536 20.6723C187.656 20.346 187.415 20 187.067 20H186.411C186.107 20 185.874 20.2686 185.916 20.5695L186.056 21.5695C186.091 21.8163 186.302 22 186.551 22H186.7ZM186.283 23.1875C186.269 23.0884 186.346 23 186.446 23C186.56 23 186.64 23.1139 186.6 23.2213L186.43 23.6845C186.424 23.7006 186.409 23.7113 186.392 23.7113C186.372 23.7113 186.354 23.6962 186.351 23.676L186.283 23.1875ZM185.635 18.5695C185.67 18.8163 185.881 19 186.13 19H187.801C188.011 19 188.198 18.8692 188.271 18.6723L188.638 17.6723C188.758 17.346 188.516 17 188.168 17H185.99C185.686 17 185.453 17.2686 185.495 17.5695L185.635 18.5695ZM185.214 15.5695C185.249 15.8163 185.46 16 185.71 16H188.903C189.112 16 189.3 15.8692 189.372 15.6723L189.739 14.6723C189.859 14.346 189.618 14 189.27 14H185.569C185.266 14 185.032 14.2686 185.074 14.5695L185.214 15.5695ZM193.41 17C193.201 17 193.013 17.131 192.941 17.328L192.575 18.328C192.455 18.6543 192.697 19 193.044 19H193.644C193.952 19 194.186 18.7244 194.137 18.4204L193.976 17.4204C193.937 17.1781 193.728 17 193.482 17H193.41ZM193.724 15.8578C193.736 15.9324 193.679 16 193.603 16C193.518 16 193.459 15.9152 193.488 15.8351L193.595 15.5426C193.601 15.5263 193.616 15.5155 193.634 15.5155C193.654 15.5155 193.671 15.5302 193.675 15.5503L193.724 15.8578ZM190.114 26C189.904 26 189.716 26.131 189.644 26.328L189.278 27.328C189.158 27.6543 189.4 28 189.747 28H195.094C195.402 28 195.637 27.7244 195.588 27.4204L195.427 26.4204C195.388 26.1781 195.178 26 194.933 26H190.114ZM159.809 26.4487C159.836 26.1938 160.05 26 160.307 26H167.801C168.097 26 168.328 26.2565 168.298 26.5513L168.286 26.664C168.26 26.9189 168.045 27.1127 167.789 27.1127H160.295C159.999 27.1127 159.767 26.8562 159.798 26.5613L159.809 26.4487Z" fill="#FAFAFA"/>
</svg>
