<svg width="451" height="251" viewBox="0 0 451 251" fill="none" xmlns="http://www.w3.org/2000/svg">
<g filter="url(#filter0_dddd_56_480)">
<path d="M186.386 125.296H154.011C153.854 125.296 153.705 125.37 153.612 125.496C153.293 125.929 152.987 126.364 152.687 126.801C152.461 127.131 152.699 127.578 153.099 127.578H184.988C185.102 127.578 185.212 127.539 185.3 127.467C185.814 127.044 186.295 126.585 186.751 126.089C187.035 125.779 186.807 125.296 186.386 125.296Z" fill="#FAFAFA"/>
<path d="M150.447 130.246C150.714 129.812 150.985 129.379 151.262 128.947C151.354 128.805 151.512 128.719 151.682 128.719H181.715C182.222 128.719 182.381 129.341 181.916 129.543C179.377 130.647 176.579 131 173.791 131H150.872C150.483 131 150.244 130.577 150.447 130.246Z" fill="#FAFAFA"/>
<path d="M191.833 129.048L191.368 130.33C191.25 130.656 191.491 131 191.838 131H226.569C226.69 131 226.806 130.957 226.897 130.877L228.369 129.596C228.717 129.292 228.503 128.719 228.04 128.719H192.303C192.093 128.719 191.905 128.85 191.833 129.048Z" fill="#FAFAFA"/>
<path d="M246.774 130.329L247.24 129.048C247.312 128.85 247.5 128.719 247.71 128.719H260.247C260.594 128.719 260.835 129.063 260.717 129.389L260.251 130.671C260.179 130.869 259.991 131 259.781 131H247.244C246.897 131 246.655 130.655 246.774 130.329Z" fill="#FAFAFA"/>
<path d="M261.025 127.578H248.488C248.141 127.578 247.9 127.233 248.018 126.907L248.484 125.625C248.556 125.428 248.744 125.296 248.954 125.296H261.491C261.838 125.296 262.08 125.641 261.961 125.967L261.495 127.249C261.423 127.446 261.235 127.578 261.025 127.578Z" fill="#FAFAFA"/>
<path d="M277.856 128.727C277.431 129.353 277.09 129.876 276.835 130.296C276.643 130.614 276.876 131 277.247 131H312.567C313.842 131 315.07 130.621 316.25 129.864C316.41 129.759 316.567 129.651 316.722 129.539C317.094 129.271 316.892 128.719 316.432 128.719H277.873C277.866 128.719 277.86 128.722 277.856 128.727Z" fill="#FAFAFA"/>
<path d="M318.644 127.578H279.693C279.282 127.578 279.047 127.11 279.294 126.782C279.591 126.389 279.89 125.995 280.194 125.602L280.283 125.487C280.378 125.366 280.523 125.296 280.676 125.296H319.658C320.049 125.296 320.286 125.724 320.062 126.045C319.864 126.328 319.656 126.607 319.438 126.88C319.302 127.059 319.163 127.234 319.019 127.405C318.926 127.515 318.788 127.578 318.644 127.578Z" fill="#FAFAFA"/>
<path d="M321.331 123.88C321.464 123.606 321.588 123.327 321.705 123.044C321.776 122.865 321.843 122.687 321.906 122.511C322.018 122.196 321.778 121.873 321.443 121.873H283.523C283.387 121.873 283.257 121.928 283.165 122.028C282.988 122.221 282.777 122.465 282.531 122.76C282.367 122.947 282.198 123.142 282.026 123.344C281.753 123.665 281.984 124.155 282.406 124.155H320.888C321.076 124.155 321.249 124.05 321.331 123.88Z" fill="#FAFAFA"/>
<path d="M263.205 122.544L262.739 123.826C262.667 124.024 262.48 124.155 262.269 124.155H249.732C249.385 124.155 249.144 123.81 249.263 123.484L249.729 122.203C249.8 122.005 249.988 121.873 250.198 121.873H262.735C263.082 121.873 263.324 122.218 263.205 122.544Z" fill="#FAFAFA"/>
<path d="M194.789 121.873H234.106C234.498 121.873 234.738 122.303 234.532 122.636L233.741 123.918C233.65 124.065 233.489 124.155 233.315 124.155H194.324C193.977 124.155 193.735 123.811 193.854 123.484L194.319 122.203C194.391 122.005 194.579 121.873 194.789 121.873Z" fill="#FAFAFA"/>
<path d="M193.076 125.625L192.611 126.907C192.492 127.233 192.734 127.578 193.081 127.578H230.293C230.43 127.578 230.561 127.521 230.656 127.422L231.872 126.14C232.174 125.822 231.948 125.296 231.509 125.296H193.546C193.336 125.296 193.148 125.428 193.076 125.625Z" fill="#FAFAFA"/>
<path d="M189.284 122.607C189.011 123.069 188.729 123.514 188.437 123.941C188.345 124.076 188.192 124.155 188.029 124.155H155.712C155.29 124.155 155.061 123.667 155.337 123.348C155.724 122.904 156.126 122.463 156.543 122.026C156.637 121.928 156.767 121.873 156.902 121.873H188.857C189.236 121.873 189.476 122.28 189.284 122.607Z" fill="#FAFAFA"/>
<path d="M189.978 120.733H175.983C175.464 120.733 175.23 119.944 175.622 119.604C175.98 119.294 176.319 118.961 176.644 118.613C176.74 118.51 176.874 118.451 177.014 118.451H190.559C190.918 118.451 191.16 118.818 191.017 119.147C190.822 119.593 190.626 120.029 190.425 120.451C190.343 120.624 190.169 120.733 189.978 120.733Z" fill="#FAFAFA"/>
<path d="M178.717 117.31H191.463C191.666 117.31 191.848 117.188 191.925 117.001C192.098 116.578 192.27 116.147 192.443 115.708C192.572 115.381 192.33 115.028 191.979 115.028H179.513C179.332 115.028 179.166 115.126 179.075 115.281C178.832 115.697 178.572 116.105 178.3 116.504C178.069 116.843 178.307 117.31 178.717 117.31Z" fill="#FAFAFA"/>
<path d="M192.795 113.888H180.446C180.099 113.888 179.858 113.543 179.976 113.217L180.441 111.935C180.513 111.738 180.701 111.606 180.911 111.606H193.261C193.608 111.606 193.85 111.951 193.732 112.278L193.729 112.286C193.574 112.712 193.419 113.138 193.262 113.563C193.19 113.758 193.003 113.888 192.795 113.888Z" fill="#FAFAFA"/>
<path d="M181.687 110.465H194.043C194.253 110.465 194.44 110.334 194.512 110.136L194.98 108.855C195.099 108.529 194.858 108.183 194.511 108.183H182.152C181.942 108.183 181.754 108.315 181.682 108.513L181.217 109.795C181.099 110.121 181.341 110.465 181.687 110.465Z" fill="#FAFAFA"/>
<path d="M195.292 107.042H182.928C182.582 107.042 182.34 106.698 182.458 106.372L182.923 105.09C182.995 104.893 183.183 104.761 183.393 104.761H195.76C196.107 104.761 196.349 105.106 196.23 105.432L195.762 106.714C195.69 106.911 195.502 107.042 195.292 107.042Z" fill="#FAFAFA"/>
<path d="M184.17 103.62H196.541C196.751 103.62 196.939 103.489 197.011 103.291L197.479 102.01C197.598 101.683 197.356 101.338 197.009 101.338H184.634C184.424 101.338 184.236 101.47 184.164 101.668L183.7 102.949C183.581 103.275 183.823 103.62 184.17 103.62Z" fill="#FAFAFA"/>
<path d="M197.791 100.197H185.411C185.064 100.197 184.822 99.853 184.941 99.5269L185.405 98.2452C185.477 98.0474 185.665 97.9157 185.876 97.9157H198.259C198.606 97.9157 198.847 98.261 198.728 98.5871L198.26 99.8688C198.188 100.066 198.001 100.197 197.791 100.197Z" fill="#FAFAFA"/>
<path d="M186.652 96.7749H199.04C199.25 96.7749 199.438 96.6436 199.51 96.4463L199.978 95.1646C200.097 94.8384 199.855 94.4932 199.508 94.4932H187.117C186.906 94.4932 186.718 94.6249 186.647 94.8227L186.182 96.1044C186.064 96.4304 186.305 96.7749 186.652 96.7749Z" fill="#FAFAFA"/>
<path d="M204.262 94.8225L203.797 96.1042C203.678 96.4302 203.92 96.7749 204.267 96.7749H242.636C242.792 96.7749 242.94 96.7019 243.034 96.5769C243.183 96.3782 243.33 96.1794 243.474 95.9806C243.661 95.7269 243.835 95.4847 243.996 95.2542C244.223 94.9297 243.988 94.4932 243.592 94.4932H204.732C204.522 94.4932 204.334 94.6248 204.262 94.8225Z" fill="#FAFAFA"/>
<path d="M249.293 95.4833C249.59 95.1702 249.874 94.8852 250.143 94.6284C250.235 94.541 250.357 94.4932 250.483 94.4932H285.609C286.005 94.4932 286.241 94.9297 286.014 95.2542C285.852 95.4847 285.678 95.7269 285.491 95.9806C285.347 96.1794 285.2 96.3782 285.051 96.5769C284.957 96.7019 284.81 96.7749 284.653 96.7749H249.224C248.791 96.7749 248.564 96.2614 248.86 95.9441C249.004 95.7893 249.148 95.6357 249.293 95.4833Z" fill="#FAFAFA"/>
<path d="M290.62 96.7749H329.244C329.399 96.7749 329.545 96.703 329.639 96.5803L330.628 95.2986C330.882 94.9699 330.648 94.4932 330.233 94.4932H292.416C292.322 94.4932 292.23 94.5194 292.151 94.5698C291.497 94.9873 290.875 95.4517 290.294 95.9635C289.964 96.2547 290.18 96.7749 290.62 96.7749Z" fill="#FAFAFA"/>
<path d="M327.411 97.9157H288.522C288.478 97.9157 288.438 97.9355 288.411 97.9695C288.02 98.4502 287.656 98.9442 287.319 99.4517C287.104 99.7752 287.342 100.197 287.73 100.197H326.269C326.411 100.197 326.547 100.137 326.642 100.03L327.784 98.7484C328.071 98.4261 327.843 97.9157 327.411 97.9157Z" fill="#FAFAFA"/>
<path d="M286.527 101.338H324.172C324.62 101.338 324.842 101.882 324.522 102.195L323.834 102.87C323.741 102.962 323.615 103.013 323.484 103.013H300.312C299.985 103.013 299.687 103.153 299.417 103.433C299.309 103.545 299.165 103.62 299.01 103.62H285.941C285.603 103.62 285.363 103.292 285.484 102.976C285.594 102.687 285.72 102.392 285.861 102.089C285.933 101.93 286.007 101.771 286.083 101.614C286.165 101.444 286.339 101.338 286.527 101.338Z" fill="#FAFAFA"/>
<path d="M297.901 104.761H285.395C285.153 104.761 284.943 104.935 284.914 105.176C284.884 105.432 284.869 105.682 284.869 105.925C284.869 106.147 284.876 106.369 284.89 106.593C284.905 106.849 285.122 107.042 285.378 107.042H299.034C299.13 107.042 299.176 106.917 299.107 106.849C299.018 106.759 298.886 106.648 298.711 106.515C298.692 106.501 298.674 106.485 298.657 106.468C298.485 106.294 298.399 106.184 298.399 106.138V105.783C298.399 105.686 298.409 105.581 298.428 105.469C298.49 105.12 298.256 104.761 297.901 104.761Z" fill="#FAFAFA"/>
<path d="M285.714 108.183H316.732C316.801 108.183 316.869 108.197 316.931 108.226C317.263 108.377 317.58 108.557 317.88 108.767C318.303 109.044 318.695 109.353 319.054 109.695C319.358 109.985 319.136 110.465 318.716 110.465H286.129C285.925 110.465 285.741 110.342 285.669 110.151C285.612 109.999 285.558 109.845 285.506 109.69C285.405 109.385 285.316 109.082 285.239 108.78C285.16 108.473 285.398 108.183 285.714 108.183Z" fill="#FAFAFA"/>
<path d="M320.272 111.606H287.15C286.774 111.606 286.535 112.005 286.731 112.326C286.923 112.638 287.128 112.943 287.348 113.242C287.484 113.408 287.623 113.57 287.766 113.728C287.859 113.831 287.992 113.888 288.13 113.888H320.964C321.312 113.888 321.553 113.54 321.413 113.222C321.202 112.745 320.961 112.284 320.69 111.838C320.601 111.692 320.442 111.606 320.272 111.606Z" fill="#FAFAFA"/>
<path d="M290.558 115.028H321.981C322.018 115.028 322.05 115.053 322.059 115.089C322.208 115.664 322.323 116.219 322.405 116.756C322.45 117.051 322.217 117.31 321.919 117.31H309.323C309.134 117.31 308.973 117.193 308.837 117.062C308.7 116.93 308.526 116.864 308.316 116.864H294.149C292.732 116.864 291.457 116.533 290.323 115.87L290.294 115.851C289.895 115.6 290.087 115.028 290.558 115.028Z" fill="#FAFAFA"/>
<path d="M322.364 118.451H309.492C309.389 118.451 309.308 118.538 309.308 118.64V119.493C309.308 119.691 309.296 119.885 309.271 120.075C309.227 120.408 309.468 120.733 309.803 120.733H321.978C322.219 120.733 322.427 120.562 322.461 120.324C322.524 119.894 322.555 119.475 322.555 119.067V118.64C322.555 118.535 322.469 118.451 322.364 118.451Z" fill="#FAFAFA"/>
<path d="M264.45 119.122L263.984 120.403C263.912 120.601 263.724 120.733 263.514 120.733H250.977C250.63 120.733 250.388 120.388 250.507 120.062L250.973 118.78C251.045 118.582 251.232 118.451 251.443 118.451H263.98C264.327 118.451 264.568 118.796 264.45 119.122Z" fill="#FAFAFA"/>
<path d="M208.494 120.404L208.962 119.123C209.081 118.796 208.84 118.451 208.493 118.451H196.032C195.822 118.451 195.634 118.583 195.562 118.78L195.097 120.062C194.978 120.388 195.22 120.733 195.567 120.733H208.024C208.234 120.733 208.421 120.601 208.494 120.404Z" fill="#FAFAFA"/>
<path d="M223.928 117.16L225.186 115.879C225.496 115.562 225.272 115.028 224.829 115.028H197.275C197.065 115.028 196.877 115.16 196.805 115.358L196.34 116.639C196.221 116.965 196.463 117.31 196.809 117.31H223.571C223.705 117.31 223.834 117.256 223.928 117.16Z" fill="#FAFAFA"/>
<path d="M210.542 113.888H198.052C197.705 113.888 197.464 113.543 197.582 113.217L198.048 111.935C198.12 111.737 198.307 111.606 198.518 111.606H211.006C211.352 111.606 211.594 111.95 211.476 112.276L211.012 113.558C210.94 113.756 210.752 113.888 210.542 113.888Z" fill="#FAFAFA"/>
<path d="M199.295 110.465H211.781C211.991 110.465 212.179 110.333 212.251 110.135L212.715 108.854C212.833 108.528 212.591 108.183 212.245 108.183H199.761C199.55 108.183 199.363 108.315 199.291 108.513L198.825 109.794C198.707 110.12 198.948 110.465 199.295 110.465Z" fill="#FAFAFA"/>
<path d="M213.02 107.042H200.538C200.191 107.042 199.95 106.698 200.068 106.372L200.534 105.09C200.605 104.892 200.793 104.761 201.004 104.761H213.484C213.831 104.761 214.072 105.105 213.954 105.431L213.49 106.713C213.418 106.911 213.23 107.042 213.02 107.042Z" fill="#FAFAFA"/>
<path d="M201.781 103.62H214.259C214.469 103.62 214.657 103.488 214.729 103.29L214.736 103.272C214.807 103.074 214.995 102.942 215.206 102.942H236.673C237.051 102.942 237.641 102.563 238.444 101.805C238.63 101.64 238.511 101.338 238.261 101.338H202.246C202.036 101.338 201.848 101.47 201.777 101.668L201.311 102.949C201.193 103.275 201.434 103.62 201.781 103.62Z" fill="#FAFAFA"/>
<path d="M239.835 100.197H203.024C202.677 100.197 202.436 99.8528 202.554 99.5267L203.019 98.245C203.091 98.0473 203.279 97.9157 203.489 97.9157H240.941C241.361 97.9157 241.592 98.402 241.321 98.7233C241.213 98.8509 241.104 98.9785 240.994 99.1061C240.731 99.4285 240.468 99.7374 240.205 100.033C240.111 100.138 239.977 100.197 239.835 100.197Z" fill="#FAFAFA"/>
<path d="M246.601 98.4667C246.711 98.3393 246.82 98.2126 246.93 98.0865C247.025 97.9779 247.162 97.9157 247.306 97.9157H282.958C283.379 97.9157 283.61 98.402 283.338 98.7233C283.231 98.8509 283.122 98.9785 283.012 99.1061C282.749 99.4285 282.486 99.7374 282.222 100.033C282.129 100.138 281.994 100.197 281.853 100.197H246.242C245.824 100.197 245.591 99.7146 245.853 99.3886C246.094 99.0901 246.343 98.7828 246.601 98.4667Z" fill="#FAFAFA"/>
<path d="M244.569 101.338H280.279C280.528 101.338 280.648 101.64 280.462 101.805C279.659 102.563 279.068 102.942 278.691 102.942H270.682C270.472 102.942 270.284 103.073 270.212 103.271L270.205 103.291C270.133 103.488 269.945 103.62 269.735 103.62H256.845C256.67 103.62 256.548 103.446 256.608 103.281C256.667 103.116 256.545 102.942 256.37 102.942H243.406C243.371 102.942 243.342 102.914 243.342 102.879C243.342 102.873 243.343 102.869 243.344 102.864C243.393 102.688 243.666 102.249 244.163 101.547C244.256 101.416 244.408 101.338 244.569 101.338Z" fill="#FAFAFA"/>
<path d="M268.957 104.761H256.42C256.21 104.761 256.022 104.892 255.95 105.09L255.484 106.372C255.365 106.698 255.607 107.042 255.954 107.042H268.491C268.701 107.042 268.889 106.911 268.961 106.713L269.427 105.432C269.545 105.106 269.304 104.761 268.957 104.761Z" fill="#FAFAFA"/>
<path d="M255.176 108.183H267.712C268.059 108.183 268.301 108.528 268.182 108.854L267.716 110.136C267.645 110.333 267.457 110.465 267.246 110.465H254.71C254.363 110.465 254.121 110.12 254.24 109.794L254.706 108.512C254.777 108.315 254.965 108.183 255.176 108.183Z" fill="#FAFAFA"/>
<path d="M266.468 111.606H253.931C253.721 111.606 253.533 111.737 253.461 111.935L252.995 113.217C252.877 113.543 253.118 113.888 253.465 113.888H266.002C266.212 113.888 266.4 113.756 266.472 113.558L266.938 112.277C267.057 111.951 266.815 111.606 266.468 111.606Z" fill="#FAFAFA"/>
<path d="M252.687 115.028H265.224C265.571 115.028 265.812 115.373 265.694 115.699L265.228 116.981C265.156 117.179 264.968 117.31 264.758 117.31H252.221C251.874 117.31 251.633 116.965 251.751 116.639L252.217 115.358C252.289 115.16 252.477 115.028 252.687 115.028Z" fill="#FAFAFA"/>
<path d="M227.37 113.751L228.724 112.469C229.052 112.158 228.833 111.606 228.38 111.606H213.583C213.453 111.606 213.328 111.657 213.234 111.747L211.914 113.029C211.592 113.342 211.814 113.888 212.263 113.888H227.027C227.154 113.888 227.277 113.839 227.37 113.751Z" fill="#FAFAFA"/>
<path d="M215.787 110.465H230.642C230.77 110.465 230.893 110.416 230.986 110.328L232.34 109.046C232.668 108.736 232.448 108.183 231.996 108.183H217.107C216.977 108.183 216.852 108.234 216.759 108.325L215.439 109.606C215.117 109.919 215.338 110.465 215.787 110.465Z" fill="#FAFAFA"/>
</g>
<g filter="url(#filter1_dddd_56_480)">
<path fill-rule="evenodd" clip-rule="evenodd" d="M80.9081 75.288C80.9081 74.9092 80.8373 74.5303 80.6958 74.1515C80.6656 74.0603 80.7297 73.9577 80.8258 73.9577H93.6133C93.868 73.9577 94.0831 74.1491 94.1026 74.403C94.1258 74.7047 94.1373 74.9997 94.1373 75.288V75.7142C94.1373 75.7329 94.1373 75.7517 94.1371 75.7704C94.1353 76.0343 93.9151 76.2394 93.6512 76.2394H81.0061C80.9517 76.2394 80.9081 76.1948 80.9081 76.1404V75.288ZM80.8457 77.3803C80.7774 77.3803 80.7174 77.4252 80.6958 77.4901C80.6015 77.9163 80.2006 78.1294 79.4932 78.1294H55.44C55.2985 78.1294 54.8741 78.5556 54.1666 79.408C54.0795 79.5071 54.1502 79.662 54.2821 79.662H92.9606C93.1657 79.662 93.3508 79.537 93.4219 79.3446C93.5953 78.8756 93.7372 78.4171 93.8476 77.9691C93.9225 77.6651 93.6861 77.3803 93.3729 77.3803H80.8457ZM99.6884 77.3803C99.4104 77.3803 99.185 77.6071 99.1954 77.8848C99.2132 78.3556 99.2498 78.8076 99.3052 79.2406C99.3364 79.484 99.5465 79.662 99.7919 79.662H139.231C139.398 79.662 139.554 79.5791 139.645 79.4397C139.925 79.0136 140.198 78.572 140.464 78.1148C140.655 77.7866 140.415 77.3803 140.035 77.3803H124.489C124.413 77.3803 124.338 77.3979 124.269 77.4301C123.372 77.8489 122.39 78.0583 121.326 78.0583H117.859C116.982 78.0583 116.219 77.8596 115.57 77.4622C115.486 77.4105 115.39 77.3803 115.29 77.3803H99.6884ZM127.056 75.5721C126.814 75.8006 126.968 76.2394 127.301 76.2394H141.443C141.462 76.2394 141.48 76.2286 141.488 76.2115C141.734 75.7092 141.978 75.1918 142.221 74.6593C142.372 74.3302 142.13 73.9577 141.768 73.9577H128.786C128.634 73.9577 128.49 74.0277 128.393 74.1456C127.986 74.6406 127.541 75.1161 127.056 75.5721ZM113.108 73.9577C113.358 73.9577 113.568 74.144 113.616 74.3901C113.689 74.76 113.789 75.1056 113.916 75.4268C114.062 75.794 113.812 76.2394 113.417 76.2394H99.735C99.4487 76.2394 99.2204 75.9995 99.2423 75.714C99.2459 75.6669 99.2497 75.6196 99.2536 75.5721C99.3158 75.1974 99.378 74.802 99.4403 74.386C99.477 74.1402 99.6876 73.9577 99.9361 73.9577H113.108ZM129.868 72.0276C129.663 72.3703 129.903 72.8169 130.302 72.8169H142.704C142.904 72.8169 143.085 72.6973 143.163 72.5127C143.342 72.0893 143.52 71.6576 143.697 71.2176C143.829 70.8905 143.587 70.5352 143.234 70.5352H130.935C130.725 70.5352 130.537 70.667 130.465 70.865L130.381 71.097C130.234 71.3931 130.063 71.7033 129.868 72.0276ZM113.186 70.5352C113.511 70.5352 113.749 70.8405 113.682 71.1585C113.543 71.8179 113.473 72.3657 113.473 72.8018C113.473 72.8102 113.467 72.8169 113.458 72.8169H100.335C100.018 72.8169 99.7805 72.5247 99.8496 72.2147C99.9464 71.7801 100.049 71.3454 100.158 70.9108C100.213 70.6895 100.413 70.5352 100.641 70.5352H113.186ZM131.241 68.7241C131.123 69.0501 131.364 69.3944 131.711 69.3944H144.066C144.274 69.3944 144.46 69.2662 144.533 69.0721C144.721 68.5727 144.909 68.0638 145.096 67.5453C145.172 67.335 145.017 67.1127 144.793 67.1127H132.175C131.964 67.1127 131.776 67.2445 131.705 67.4424L131.241 68.7241ZM114.638 67.1127C114.715 67.1127 114.77 67.1878 114.747 67.2612C114.511 67.9988 114.326 68.5898 114.192 69.0343C114.127 69.2474 113.932 69.3944 113.709 69.3944H101.248C100.914 69.3944 100.674 69.0724 100.767 68.7511C100.884 68.3446 101.004 67.9211 101.126 67.4805C101.186 67.2634 101.384 67.1127 101.609 67.1127H114.638ZM132.48 65.3016C132.362 65.6276 132.604 65.9718 132.95 65.9718H145.317C145.527 65.9718 145.715 65.8401 145.787 65.6424L146.252 64.3607C146.37 64.0347 146.129 63.6901 145.782 63.6901H133.414C133.204 63.6901 133.016 63.822 132.944 64.0199L132.48 65.3016ZM115.227 63.6901C115.569 63.6901 115.81 64.0249 115.702 64.3489C115.549 64.8074 115.408 65.2337 115.278 65.6278C115.211 65.8331 115.019 65.9718 114.803 65.9718H101.744C101.638 65.9718 101.561 65.8717 101.588 65.7695L102.207 64.0231C102.278 63.8235 102.467 63.6901 102.678 63.6901H115.227ZM133.72 61.879C133.602 62.205 133.843 62.5493 134.19 62.5493H146.559C146.769 62.5493 146.957 62.4176 147.029 62.2199L147.494 60.9382C147.612 60.6121 147.371 60.2676 147.024 60.2676H134.654C134.443 60.2676 134.255 60.3994 134.184 60.5973L133.72 61.879ZM116.375 60.2676C116.717 60.2676 116.958 60.6022 116.85 60.9261C116.808 61.051 116.768 61.1737 116.728 61.2944C116.621 61.6084 116.519 61.9132 116.419 62.2087C116.351 62.4122 116.16 62.5493 115.945 62.5493H103.437C103.092 62.5493 102.851 62.2077 102.966 61.8823L103.42 60.6006C103.491 60.401 103.68 60.2676 103.891 60.2676H116.375ZM134.959 58.4565C134.841 58.7825 135.083 59.1268 135.429 59.1268H147.801C148.011 59.1268 148.199 58.9951 148.271 58.7973L148.736 57.5156C148.854 57.1896 148.613 56.8451 148.266 56.8451H135.893C135.683 56.8451 135.495 56.9769 135.423 57.1748L134.959 58.4565ZM117.523 56.8451C117.865 56.8451 118.106 57.181 117.997 57.5052C117.847 57.9486 117.704 58.3755 117.566 58.7859C117.497 58.9895 117.307 59.1268 117.092 59.1268H104.65C104.305 59.1268 104.063 58.7852 104.179 58.4597L104.633 57.178C104.704 56.9785 104.893 56.8451 105.104 56.8451H117.523ZM136.199 55.034C136.081 55.36 136.322 55.7042 136.669 55.7042H149.043C149.253 55.7042 149.441 55.5725 149.513 55.3748L149.978 54.0931C150.096 53.7671 149.855 53.4225 149.508 53.4225H137.133C136.922 53.4225 136.734 53.5544 136.663 53.7523L136.199 55.034ZM118.682 53.4225C119.025 53.4225 119.266 53.7593 119.156 54.0836C119.007 54.5223 118.862 54.9494 118.721 55.3647C118.652 55.5676 118.462 55.7042 118.247 55.7042H105.863C105.518 55.7042 105.276 55.3626 105.392 55.0372L105.846 53.7555C105.917 53.5559 106.106 53.4225 106.317 53.4225H118.682ZM137.438 51.6114C137.32 51.9374 137.561 52.2817 137.908 52.2817H150.285C150.495 52.2817 150.683 52.15 150.755 51.9523L151.22 50.6706C151.338 50.3445 151.097 50 150.75 50H138.372C138.162 50 137.974 50.1318 137.902 50.3297L137.438 51.6114ZM155.165 53.4225C154.954 53.4225 154.767 53.5543 154.695 53.7521L154.23 55.0338C154.112 55.3598 154.353 55.7042 154.7 55.7042H194.293C194.63 55.7042 194.87 55.3791 194.751 55.065C194.59 54.6416 194.402 54.2318 194.187 53.8358C194.163 53.7847 194.138 53.734 194.113 53.6837C194.031 53.521 193.862 53.4225 193.68 53.4225H155.165ZM192.458 51.5163C192.774 51.7979 192.556 52.2817 192.132 52.2817L155.941 52.2817C155.595 52.2817 155.353 51.9372 155.471 51.6112L155.936 50.3295C156.008 50.1317 156.196 50 156.406 50H188.527C189.942 50 191.098 50.3788 191.994 51.1365C192.155 51.2576 192.309 51.3842 192.458 51.5163ZM202.247 53.4225C202.037 53.4225 201.849 53.5543 201.777 53.7521L201.313 55.0338C201.194 55.3598 201.436 55.7042 201.783 55.7042H239.101C239.247 55.7042 239.386 55.6406 239.48 55.5295C239.852 55.0923 240.211 54.6552 240.558 54.2181C240.815 53.8943 240.582 53.4225 240.169 53.4225H202.247ZM242.166 52.0731C242.073 52.2043 241.922 52.2817 241.761 52.2817H203.024C202.677 52.2817 202.436 51.9372 202.554 51.6112L203.019 50.3295C203.09 50.1317 203.278 50 203.489 50H242.655C243.026 50 243.262 50.3877 243.071 50.7058C242.829 51.1077 242.527 51.5635 242.166 52.0731ZM246.808 53.4225C246.598 53.4225 246.41 53.5543 246.338 53.7521L245.873 55.0338C245.755 55.3598 245.997 55.7042 246.343 55.7042H285.658C285.992 55.7042 286.232 55.383 286.119 55.069C285.956 54.6201 285.766 54.1854 285.547 53.7648C285.531 53.7337 285.515 53.7027 285.498 53.6719C285.414 53.5158 285.249 53.4225 285.072 53.4225H246.808ZM283.73 51.509C284.061 51.7848 283.848 52.2817 283.416 52.2817H247.585C247.238 52.2817 246.996 51.9372 247.115 51.6112L247.579 50.3295C247.651 50.1317 247.839 50 248.049 50H279.251C280.855 50 282.152 50.3552 283.142 51.0655C283.347 51.2059 283.543 51.3538 283.73 51.509ZM286.67 57.2541C286.634 57.0163 286.426 56.8451 286.185 56.8451H245.567C245.357 56.8451 245.169 56.9768 245.097 57.1746L244.632 58.4563C244.514 58.7823 244.755 59.1268 245.102 59.1268H286.388C286.684 59.1268 286.915 58.8708 286.877 58.5771C286.825 58.1677 286.759 57.7474 286.679 57.3165C286.676 57.2957 286.673 57.2749 286.67 57.2541ZM287.032 60.7488C287.03 60.4801 286.809 60.2676 286.54 60.2676H273.841C273.536 60.2676 273.308 60.5639 273.308 60.8682V61.6495C273.308 61.7239 273.304 61.8007 273.296 61.8797C273.261 62.2173 273.496 62.5493 273.835 62.5493H286.49C286.741 62.5493 286.954 62.3628 286.977 62.1125C287.014 61.7111 287.033 61.2964 287.033 60.8682C287.033 60.8285 287.033 60.7887 287.032 60.7488ZM286.551 64.3021C286.647 63.9932 286.409 63.6901 286.085 63.6901H272.865C272.708 63.6901 272.564 63.7685 272.45 63.8767C272.168 64.1441 271.794 64.2778 271.328 64.2778H260.218C260.084 64.2778 259.956 64.3315 259.862 64.427L259.178 65.121C258.867 65.4371 259.091 65.9718 259.534 65.9718H285.54C285.72 65.9718 285.887 65.8757 285.97 65.7161C286.202 65.2721 286.395 64.8007 286.551 64.3021ZM284.371 67.8979C284.657 67.592 284.43 67.1127 284.011 67.1127H257.426C257.292 67.1127 257.164 67.1664 257.07 67.2619L255.808 68.5435C255.497 68.8596 255.72 69.3944 256.164 69.3944H282.54C282.649 69.3944 282.755 69.3591 282.841 69.2924C283.39 68.8665 283.9 68.4017 284.371 67.8979ZM280.807 70.5998C280.839 70.583 280.827 70.5352 280.791 70.5352H240.602C240.392 70.5352 240.204 70.6669 240.132 70.8647L239.667 72.1464C239.549 72.4725 239.79 72.8169 240.137 72.8169H273.542C273.568 72.8169 273.595 72.8148 273.62 72.8107C274.054 72.7419 274.492 72.6679 274.936 72.5887C277.105 72.1625 279.062 71.4995 280.807 70.5998ZM269.64 74.1094C269.546 74.0125 269.417 73.9577 269.282 73.9577H239.361C239.15 73.9577 238.962 74.0895 238.891 74.2873L238.426 75.569C238.308 75.895 238.549 76.2394 238.896 76.2394H251.397C251.608 76.2394 251.796 76.1074 251.868 75.9093L252.245 74.8635C252.279 74.7698 252.34 74.6883 252.421 74.6296L252.743 74.3943C252.936 74.2532 253.202 74.2687 253.378 74.4312L255.186 76.1063C255.279 76.1919 255.4 76.2394 255.526 76.2394H270.526C270.968 76.2394 271.193 75.7081 270.885 75.3911L269.64 74.1094ZM272.964 77.5319C272.87 77.435 272.741 77.3803 272.605 77.3803H257.838C257.383 77.3803 257.164 77.9381 257.498 78.2471L258.882 79.5288C258.974 79.6144 259.096 79.662 259.222 79.662H273.85C274.292 79.662 274.517 79.1307 274.209 78.8136L272.964 77.5319ZM276.288 80.9545C276.194 80.8575 276.064 80.8028 275.929 80.8028H261.533C261.079 80.8028 260.86 81.3607 261.194 81.6697L262.578 82.9514C262.67 83.037 262.791 83.0845 262.917 83.0845H277.174C277.616 83.0845 277.841 82.5532 277.533 82.2362L276.288 80.9545ZM279.612 84.377C279.518 84.2801 279.388 84.2254 279.253 84.2254H265.229C264.774 84.2254 264.556 84.7832 264.889 85.0922L266.273 86.3739C266.366 86.4595 266.487 86.507 266.613 86.507H280.498C280.94 86.507 281.164 85.9757 280.856 85.6587L279.612 84.377ZM247.689 86.507C247.9 86.507 248.088 86.375 248.159 86.1769L248.622 84.8952C248.74 84.5693 248.499 84.2254 248.152 84.2254H235.637C235.427 84.2254 235.239 84.3571 235.167 84.5549L234.702 85.8366C234.584 86.1626 234.825 86.507 235.172 86.507H247.689ZM226.235 86.507C226.355 86.507 226.472 86.4635 226.563 86.3839C226.956 86.0386 227.378 85.6549 227.828 85.2327C227.883 85.1778 227.937 85.1227 227.992 85.0675C228.303 84.7541 228.079 84.2254 227.638 84.2254H191.076C190.866 84.2254 190.678 84.3571 190.606 84.5549L190.141 85.8366C190.023 86.1626 190.265 86.507 190.611 86.507H226.235ZM156.049 86.507C156.259 86.507 156.447 86.3754 156.519 86.1777L156.984 84.896C157.102 84.57 156.861 84.2254 156.514 84.2254H143.994C143.783 84.2254 143.595 84.3571 143.524 84.5549L143.059 85.8366C142.941 86.1626 143.182 86.507 143.529 86.507H156.049ZM131.503 86.507C131.565 86.507 131.627 86.4956 131.684 86.4728C131.769 86.439 131.854 86.4045 131.938 86.3693C132.766 86.0016 133.556 85.5667 134.306 85.0645C134.698 84.8022 134.501 84.2254 134.03 84.2254H102.722C102.277 84.2254 102.073 84.7454 102.432 85.0086C102.571 85.1099 102.714 85.2083 102.862 85.3038C103.624 85.7687 104.528 86.1625 105.574 86.4853C105.621 86.4998 105.67 86.507 105.719 86.507H131.503ZM87.698 86.507C87.7956 86.507 87.8912 86.4787 87.9722 86.4241C88.5924 86.0061 89.1695 85.5386 89.7036 85.0218C90.0118 84.7235 89.7897 84.2254 89.3608 84.2254H50.5914C50.433 84.2254 50.2839 84.3004 50.1899 84.4278C49.9569 84.7435 49.7261 85.0591 49.4975 85.3748C49.4108 85.5024 49.3277 85.6258 49.2481 85.7449C49.0289 86.0729 49.266 86.507 49.6605 86.507H87.698ZM51.8047 82.2848C51.5529 82.6123 51.7872 83.0845 52.2003 83.0845H91.1143C91.2725 83.0845 91.4218 83.0099 91.5141 82.8815C91.8317 82.4397 92.1244 81.9856 92.3924 81.5189C92.578 81.1956 92.338 80.8028 91.9651 80.8028H53.223C53.0731 80.8028 52.931 80.87 52.8365 80.9863C52.5135 81.3836 52.1786 81.8046 51.832 82.2493C51.8229 82.2612 51.8138 82.273 51.8047 82.2848ZM100.261 80.8028C99.9318 80.8028 99.692 81.1153 99.7984 81.4266C99.8699 81.636 99.9478 81.8393 100.032 82.0362C100.153 82.3196 100.291 82.5921 100.446 82.8538C100.533 82.9994 100.692 83.0845 100.861 83.0845H136.512C136.644 83.0845 136.771 83.0326 136.863 82.9385C137.016 82.7834 137.166 82.6247 137.314 82.4624C137.57 82.1821 137.822 81.8914 138.069 81.5906C138.33 81.2719 138.098 80.8028 137.686 80.8028H100.261ZM145.235 80.8028C145.025 80.8028 144.837 80.9345 144.765 81.1323L144.3 82.414C144.182 82.7401 144.423 83.0845 144.77 83.0845H157.291C157.502 83.0845 157.69 82.9529 157.761 82.7552L158.227 81.4735C158.345 81.1474 158.104 80.8028 157.757 80.8028H145.235ZM192.317 80.8028C192.107 80.8028 191.919 80.9345 191.847 81.1323L191.383 82.414C191.264 82.7401 191.506 83.0845 191.853 83.0845H229.826C229.873 83.0845 229.918 83.065 229.95 83.0307C230.701 82.2768 231.289 81.6167 231.713 81.0503C231.717 81.0446 231.717 81.0434 231.722 81.0383C231.806 80.9502 231.732 80.8028 231.61 80.8028H192.317ZM232.639 79.6211C232.624 79.6464 232.597 79.662 232.568 79.662H193.094C192.747 79.662 192.506 79.3175 192.624 78.9915L193.089 77.7098C193.16 77.512 193.348 77.3803 193.559 77.3803H206.35C206.525 77.3803 206.647 77.5546 206.587 77.7193C206.527 77.884 206.649 78.0583 206.824 78.0583H232.828C233.164 78.0583 233.371 78.4056 233.205 78.6976C233.016 78.9818 232.827 79.2896 232.639 79.6211ZM236.878 80.8028C236.668 80.8028 236.48 80.9345 236.408 81.1323L235.943 82.414C235.825 82.7401 236.067 83.0845 236.413 83.0845H248.925C249.136 83.0845 249.324 82.9525 249.396 82.7543L249.858 81.4727C249.976 81.1467 249.735 80.8028 249.388 80.8028H236.878ZM250.632 79.3318C250.56 79.5299 250.372 79.662 250.161 79.662H237.655C237.308 79.662 237.066 79.3175 237.185 78.9915L237.649 77.7098C237.721 77.512 237.909 77.3803 238.119 77.3803H250.624C250.971 77.3803 251.212 77.7242 251.095 78.0501L250.632 79.3318ZM206.778 76.2394C206.988 76.2394 207.175 76.1082 207.247 75.9109L207.715 74.6293C207.834 74.3031 207.593 73.9577 207.246 73.9577H194.8C194.589 73.9577 194.402 74.0895 194.33 74.2873L193.865 75.569C193.747 75.895 193.988 76.2394 194.335 76.2394H206.778ZM159.818 76.2394C160.008 76.2394 160.181 76.1325 160.266 75.9631L160.897 74.7014C161.063 74.3692 160.822 73.9783 160.45 73.9777L147.718 73.9583C147.507 73.958 147.319 74.0897 147.247 74.2878L146.783 75.569C146.664 75.895 146.906 76.2394 147.253 76.2394H159.818ZM146.476 77.3803C146.266 77.3803 146.078 77.512 146.006 77.7098L145.541 78.9915C145.423 79.3175 145.665 79.662 146.011 79.662H158.534C158.745 79.662 158.932 79.5303 159.004 79.3326L159.47 78.0509C159.588 77.7249 159.346 77.3803 159 77.3803H146.476ZM148.024 72.1464C147.906 72.4725 148.147 72.8169 148.494 72.8169H186.238C186.304 72.8169 186.369 72.804 186.429 72.7784C187.353 72.3889 188.236 71.9235 189.077 71.3824C189.479 71.1241 189.286 70.5352 188.809 70.5352H148.959C148.748 70.5352 148.56 70.6669 148.489 70.8647L148.024 72.1464ZM149.265 68.7239C149.147 69.0499 149.388 69.3944 149.735 69.3944H162.242C162.453 69.3944 162.641 69.2622 162.713 69.0639L163.175 67.7822C163.292 67.4563 163.051 67.1127 162.704 67.1127H150.2C149.99 67.1127 149.802 67.2444 149.73 67.4422L149.265 68.7239ZM150.506 65.3014C150.388 65.6274 150.63 65.9718 150.976 65.9718H163.476C163.686 65.9718 163.875 65.8396 163.946 65.6413L164.408 64.3597C164.525 64.0338 164.284 63.6901 163.938 63.6901H151.441C151.231 63.6901 151.043 63.8219 150.971 64.0197L150.506 65.3014ZM151.748 61.8788C151.629 62.2048 151.871 62.5493 152.218 62.5493H164.709C164.92 62.5493 165.108 62.4171 165.179 62.2188L165.641 60.9371C165.759 60.6113 165.517 60.2676 165.171 60.2676H152.682C152.472 60.2676 152.284 60.3993 152.212 60.5971L151.748 61.8788ZM152.989 58.4563C152.871 58.7823 153.112 59.1268 153.459 59.1268H195.053C195.348 59.1268 195.58 58.8718 195.541 58.5788C195.485 58.1524 195.411 57.708 195.319 57.2454C195.283 57.0125 195.08 56.8451 194.844 56.8451H153.924C153.713 56.8451 153.525 56.9768 153.454 57.1746L152.989 58.4563ZM201.006 56.8451C200.796 56.8451 200.608 56.9768 200.536 57.1746L200.071 58.4563C199.953 58.7823 200.195 59.1268 200.541 59.1268H235.789C235.897 59.1268 236.002 59.0924 236.086 59.0257C236.286 58.8679 236.505 58.677 236.742 58.453C237.02 58.2048 237.298 57.9413 237.576 57.6626C237.882 57.3556 237.659 56.8451 237.225 56.8451H201.006ZM212.696 60.9376C212.814 60.6117 212.573 60.2676 212.226 60.2676H199.765C199.554 60.2676 199.367 60.3993 199.295 60.5971L198.83 61.8788C198.712 62.2048 198.953 62.5493 199.3 62.5493H211.763C211.973 62.5493 212.161 62.4173 212.233 62.2193L212.696 60.9376ZM211.459 64.3602C211.577 64.0342 211.335 63.6901 210.989 63.6901H198.524C198.313 63.6901 198.125 63.8219 198.054 64.0197L197.589 65.3014C197.471 65.6274 197.712 65.9718 198.059 65.9718H210.525C210.736 65.9718 210.924 65.8399 210.995 65.6418L211.459 64.3602ZM210.221 67.7827C210.339 67.4567 210.098 67.1127 209.751 67.1127H197.282C197.072 67.1127 196.884 67.2444 196.812 67.4422L196.348 68.7239C196.229 69.0499 196.471 69.3944 196.818 69.3944H209.288C209.498 69.3944 209.686 69.2624 209.758 69.0644L210.221 67.7827ZM211.769 69.3944C211.32 69.3944 211.098 68.8488 211.42 68.5359L212.738 67.2542C212.831 67.1635 212.956 67.1127 213.087 67.1127H227.894C228.346 67.1127 228.566 67.6647 228.238 67.9756L226.886 69.2572C226.793 69.3453 226.67 69.3944 226.542 69.3944H211.769ZM224.284 70.5352C224.736 70.5352 224.956 71.0872 224.628 71.3981L223.276 72.6798C223.183 72.7678 223.06 72.8169 222.932 72.8169H195.576C195.23 72.8169 194.988 72.4725 195.106 72.1464L195.571 70.8647C195.643 70.6669 195.831 70.5352 196.041 70.5352H224.284ZM240.908 68.7239C240.79 69.0499 241.032 69.3944 241.378 69.3944H253.871C254.082 69.3944 254.269 69.2629 254.341 69.0653L254.808 67.7837C254.926 67.4575 254.685 67.1127 254.338 67.1127H241.843C241.633 67.1127 241.445 67.2444 241.373 67.4422L240.908 68.7239ZM242.62 65.9718C242.273 65.9718 242.031 65.6274 242.15 65.3014L242.614 64.0197C242.686 63.8219 242.874 63.6901 243.084 63.6901H255.583C255.93 63.6901 256.172 64.035 256.053 64.3611L255.587 65.6428C255.515 65.8403 255.327 65.9718 255.117 65.9718H242.62ZM230.153 65.9718C230.281 65.9718 230.404 65.9228 230.497 65.8347L231.304 65.0696C231.632 64.7587 231.412 64.2067 230.96 64.2067H216.075C215.945 64.2067 215.82 64.2575 215.727 64.3483L214.94 65.1134C214.618 65.4263 214.84 65.9718 215.288 65.9718H230.153ZM256.832 62.2203C256.76 62.4178 256.573 62.5493 256.362 62.5493H243.861C243.514 62.5493 243.273 62.2048 243.391 61.8788L243.856 60.5971C243.927 60.3993 244.115 60.2676 244.326 60.2676H256.829C257.176 60.2676 257.417 60.6125 257.299 60.9386L256.832 62.2203ZM191.379 69.3944C191.51 69.3944 191.637 69.343 191.729 69.2498C192.159 68.8156 192.562 68.3591 192.937 67.8803C193.186 67.5631 192.953 67.1127 192.549 67.1127H166.163C166.041 67.1127 165.922 67.1576 165.831 67.239L164.389 68.5207C164.046 68.8261 164.262 69.3944 164.721 69.3944H191.379ZM168.239 65.0982C167.895 65.4036 168.111 65.9718 168.571 65.9718H194.154C194.197 65.9718 194.236 65.9489 194.258 65.9116C194.549 65.3992 194.796 64.8711 194.997 64.3271C195.113 64.0131 194.873 63.6901 194.539 63.6901H181.197C181.035 63.6901 180.884 63.7688 180.787 63.8983C180.726 63.9799 180.665 64.0591 180.604 64.1357C180.463 64.3251 180.368 64.4199 180.321 64.4199H169.192C169.07 64.4199 168.951 64.4648 168.86 64.5462L168.239 65.0982ZM182.019 61.9337C181.924 62.2202 182.083 62.5493 182.385 62.5493H195.068C195.31 62.5493 195.518 62.3772 195.552 62.1384C195.633 61.587 195.673 61.0215 195.673 60.442C195.673 60.3452 195.594 60.2676 195.497 60.2676H181.257C181.24 60.2676 181.231 60.2867 181.241 60.2999C181.584 60.645 181.83 60.9311 181.978 61.1583C182.006 61.2004 182.019 61.2498 182.019 61.3C182.019 61.343 182.034 61.3964 182.055 61.4337C182.112 61.5334 182.133 61.6475 182.09 61.7542L182.019 61.9337ZM119.885 51.943C119.815 52.1455 119.625 52.2817 119.411 52.2817L107.076 52.2817C106.731 52.2817 106.489 51.9401 106.605 51.6147L107.059 50.333C107.13 50.1334 107.319 50 107.53 50H119.849C120.191 50 120.433 50.3372 120.322 50.6617C120.173 51.0979 120.027 51.5249 119.885 51.943ZM101.723 52.2817C101.879 52.2817 102.025 52.2098 102.119 52.0865C102.453 51.6488 102.774 51.2111 103.083 50.7734C103.314 50.4464 103.078 50 102.677 50H67.5373C66.2168 50 64.8962 50.4499 63.5757 51.3496C63.5234 51.3834 63.4714 51.4175 63.4196 51.4519C63.0291 51.7117 63.2254 52.2817 63.6944 52.2817H101.723ZM61.2858 53.4225C61.1496 53.4225 61.0191 53.4778 60.9262 53.5774C60.6196 53.9061 60.3236 54.2527 60.0384 54.6172C59.9539 54.7213 59.8707 54.8261 59.7887 54.9315C59.5402 55.2508 59.774 55.7042 60.1786 55.7042H98.8841C99.0272 55.7042 99.1635 55.643 99.2579 55.5356C99.4647 55.3005 99.6679 55.0654 99.8676 54.8303C100.043 54.631 100.215 54.4317 100.385 54.2325C100.659 53.9115 100.429 53.4225 100.007 53.4225H61.2858ZM97.2754 57.6791C97.58 57.3652 97.3554 56.8451 96.918 56.8451H58.762C58.586 56.8451 58.4226 56.9373 58.3347 57.0897C58.0259 57.6249 57.7449 58.1741 57.4916 58.7372C57.4065 58.9203 57.5422 59.1268 57.7441 59.1268H95.6236C95.7535 59.1268 95.8784 59.0763 95.9714 58.9856C96.4181 58.5501 96.8528 58.1146 97.2754 57.6791ZM70.5794 60.7261C70.6835 60.53 70.5484 60.2676 70.3264 60.2676H57.2573C57.039 60.2676 56.8446 60.4089 56.7867 60.6194C56.6499 61.1167 56.5623 61.5929 56.5238 62.048C56.5005 62.3239 56.7263 62.5493 57.0033 62.5493H69.895C69.9604 62.5493 70.0134 62.4963 70.0134 62.4309C70.0134 62.0047 70.2021 61.4364 70.5794 60.7261ZM71.0782 63.796C70.9861 63.7297 70.8766 63.6901 70.7631 63.6901H57.1126C56.8163 63.6901 56.5842 63.9466 56.6286 64.2395C56.6976 64.6948 56.7947 65.1531 56.9198 65.6146C56.9775 65.8275 57.173 65.9718 57.3936 65.9718H89.2843C89.6017 65.9718 89.7337 65.5882 89.4682 65.4143C88.3834 64.6566 87.0865 64.2778 85.5772 64.2778H72.1358C72.0902 64.2778 71.8905 64.2115 71.5368 64.0789C71.5117 64.0695 71.4873 64.058 71.4642 64.0445C71.322 63.9617 71.1933 63.8788 71.0782 63.796ZM91.4969 67.3006C91.4054 67.1804 91.2617 67.1127 91.1107 67.1127H58.1648C57.8101 67.1127 57.5691 67.4714 57.7212 67.7918C57.9462 68.2659 58.2005 68.7254 58.484 69.1703C58.5739 69.3112 58.7305 69.3944 58.8977 69.3944H91.9699C92.3405 69.3944 92.5803 69.0059 92.3939 68.6855C92.2955 68.5164 92.1928 68.3494 92.0857 68.1846C91.9053 67.874 91.709 67.5794 91.4969 67.3006ZM93.3824 70.8632C93.3154 70.6651 93.1274 70.5352 92.9182 70.5352H60.6948C60.2572 70.5352 60.0405 71.0489 60.3687 71.3384C60.8605 71.7723 61.3871 72.1654 61.9485 72.5177C62.1016 72.6074 62.2573 72.691 62.4156 72.7685C62.4817 72.8009 62.5545 72.8169 62.6281 72.8169H93.281C93.595 72.8169 93.8315 72.5308 93.7613 72.2248C93.7243 72.0635 93.6846 71.9007 93.6421 71.7363C93.5657 71.4402 93.4791 71.1492 93.3824 70.8632Z" fill="#FAFAFA"/>
</g>
<path opacity="0.7" d="M51.28 164.3L51.57 161.62L52.8 160.95H55.13L56.22 161.62L56.11 162.65H55.11L55.19 161.85H52.54L52.32 163.97H54.81L55.9 164.64L55.61 167.38L54.38 168.05H51.95L50.86 167.38L50.97 166.35H51.97L51.88 167.15H54.63L54.86 164.97H52.37L51.28 164.3ZM63.8253 161H64.8253L64.1553 167.38L62.9253 168.05H59.9953L58.9053 167.38L59.5753 161H60.5753L59.9353 167.05H63.1853L63.8253 161ZM67.3961 168L68.1261 161H71.6161L72.7061 161.67L72.3961 164.64L71.1661 165.31H68.6761L68.3961 168H67.3961ZM69.0361 161.9L68.7661 164.41H71.4161L71.6861 161.9H69.0361ZM76.4761 164.85L76.2361 167.1H79.2261L79.1361 168H75.1461L75.8761 161H79.8661L79.7761 161.9H76.7861L76.5661 163.95H78.9561L78.8661 164.85H76.4761ZM84.8367 165.21H83.3267L83.0367 168H82.0367L82.7667 161H86.3567L87.4467 161.67L87.1467 164.54L85.9167 165.21L87.2367 168H86.1267L84.8367 165.21ZM83.6767 161.9L83.4167 164.31H86.1667L86.4267 161.9H83.6767ZM92.7195 167.15L93.3695 161H94.3695L93.6995 167.38L92.4695 168.05H90.5395L89.4495 167.38L89.6195 165.75H90.6195L90.4695 167.15H92.7195ZM98.271 164.85L98.031 167.1H101.021L100.931 168H96.941L97.671 161H101.661L101.571 161.9H98.581L98.361 163.95H100.751L100.661 164.85H98.271ZM106.862 161.9L106.222 168H105.222L105.862 161.9H103.872L103.962 161H108.942L108.852 161.9H106.862ZM111.288 164.3L111.578 161.62L112.808 160.95H115.138L116.228 161.62L116.118 162.65H115.118L115.198 161.85H112.548L112.328 163.97H114.818L115.908 164.64L115.618 167.38L114.388 168.05H111.958L110.868 167.38L110.978 166.35H111.978L111.888 167.15H114.638L114.868 164.97H112.378L111.288 164.3ZM129.611 167.38L128.381 168.05H124.101L123.011 167.38L123.621 161.62L124.851 160.95H129.131L130.221 161.62L129.611 167.38ZM124.411 161.65L123.811 167.35H128.811L129.411 161.65H124.411ZM127.481 165.49H128.171L128.091 166.23L127.321 166.65H125.461L124.761 166.23L125.121 162.77L125.911 162.35H127.771L128.451 162.77L128.381 163.51H127.691L127.741 162.98H125.791L125.471 166.02H127.421L127.481 165.49ZM138.037 167.1H141.537L141.447 168H136.947L137.277 164.86L138.507 164.19H140.847L141.087 161.9H138.587L138.487 162.8H137.487L137.607 161.67L138.837 161H141.017L142.107 161.67L141.817 164.42L140.587 165.09H138.247L138.037 167.1ZM149.656 167.38L148.426 168.05H145.896L144.806 167.38L145.416 161.62L146.646 160.95H149.176L150.266 161.62L149.656 167.38ZM146.386 161.85L145.826 167.15H148.676L149.236 161.85H146.386ZM153.986 167.1H157.486L157.396 168H152.896L153.226 164.86L154.456 164.19H156.796L157.036 161.9H154.536L154.436 162.8H153.436L153.556 161.67L154.786 161H156.966L158.056 161.67L157.766 164.42L156.536 165.09H154.196L153.986 167.1ZM164.235 168.05H161.845L160.755 167.38L160.875 166.25H161.875L161.775 167.15H164.485L164.735 164.83H162.685L162.775 163.93H164.825L165.045 161.85H162.335L162.245 162.75H161.245L161.365 161.62L162.595 160.95H164.985L166.075 161.62L165.835 163.87L164.915 164.37L164.905 164.39L165.725 164.89L165.465 167.38L164.235 168.05Z" fill="#FAFAFA"/>
<g opacity="0.7">
<path d="M198.349 163.1L196.088 168H195.22L193.981 163.1H194.688L195.717 167.279H195.731L197.642 163.1H198.349ZM200.59 165.795L200.422 167.37H202.515L202.452 168H199.659L200.17 163.1H202.963L202.9 163.73H200.807L200.653 165.165H202.326L202.263 165.795H200.59ZM206.442 166.047H205.385L205.182 168H204.482L204.993 163.1H207.506L208.269 163.569L208.059 165.578L207.198 166.047L208.122 168H207.345L206.442 166.047ZM205.63 163.73L205.448 165.417H207.373L207.555 163.73H205.63ZM216.797 168.05H214.407L213.317 167.38L213.437 166.25H214.437L214.337 167.15H217.047L217.297 164.83H215.247L215.337 163.93H217.387L217.607 161.85H214.897L214.807 162.75H213.807L213.927 161.62L215.157 160.95H217.547L218.637 161.62L218.397 163.87L217.477 164.37L217.467 164.39L218.287 164.89L218.027 167.38L216.797 168.05ZM221.371 168L221.521 166.5H223.021L222.871 168H221.371ZM226.777 163.1L226.887 162.09L228.897 161H229.697L229.057 167.1H230.757L230.667 168H226.267L226.357 167.1H228.057L228.577 162.12L226.777 163.1ZM233.98 163.1L234.09 162.09L236.1 161H236.9L236.26 167.1H237.96L237.87 168H233.47L233.56 167.1H235.26L235.78 162.12L233.98 163.1ZM240.773 168L240.923 166.5H242.423L242.273 168H240.773ZM249.3 167.15L249.56 164.69L248.81 165.1H247.13L246.04 164.43L246.34 161.62L247.57 160.95H249.8L250.89 161.62L250.28 167.38L249.05 168.05H246.82L245.73 167.38L245.85 166.25H246.85L246.75 167.15H249.3ZM249.61 164.2L249.86 161.85H247.31L247.06 164.2H249.61ZM258.427 167.38L257.197 168.05H254.667L253.577 167.38L254.187 161.62L255.417 160.95H257.947L259.037 161.62L258.427 167.38ZM255.157 161.85L254.597 167.15H257.447L258.007 161.85H255.157ZM262.178 163.1L262.288 162.09L264.298 161H265.098L264.458 167.1H266.158L266.068 168H261.668L261.758 167.1H263.458L263.978 162.12L262.178 163.1ZM269.961 167.1H273.461L273.371 168H268.871L269.201 164.86L270.431 164.19H272.771L273.011 161.9H270.511L270.411 162.8H269.411L269.531 161.67L270.761 161H272.941L274.031 161.67L273.741 164.42L272.511 165.09H270.171L269.961 167.1ZM280.78 166.38L280.61 168H279.63L279.8 166.38H276.34L276.43 165.52L280.42 161H281.34L280.87 165.51H281.77L281.68 166.38H280.78ZM277.47 165.51H279.89L280.21 162.43H280.19L277.47 165.49V165.51ZM288.887 164.3L289.177 161.62L290.407 160.95H292.737L293.827 161.62L293.717 162.65H292.717L292.797 161.85H290.147L289.927 163.97H292.417L293.507 164.64L293.217 167.38L291.987 168.05H289.557L288.467 167.38L288.577 166.35H289.577L289.487 167.15H292.237L292.467 164.97H289.977L288.887 164.3ZM299.483 161.9L298.843 168H297.843L298.483 161.9H296.493L296.583 161H301.563L301.473 161.9H299.483ZM306.801 161L308.571 168H307.591L307.171 166.34H304.071L303.311 168H302.331L305.561 161H306.801ZM306.071 161.99L304.481 165.44H306.941L306.091 161.99H306.071ZM316.351 163.87L315.431 164.37L315.421 164.39L316.241 164.89L315.991 167.33L314.761 168H311.171L311.901 161H315.491L316.581 161.67L316.351 163.87ZM312.501 164.83L312.261 167.1H315.011L315.251 164.83H312.501ZM312.811 161.9L312.591 163.93H315.341L315.561 161.9H312.811ZM319.224 168L319.954 161H320.954L320.314 167.1H322.904L322.814 168H319.224ZM326.839 164.85L326.599 167.1H329.589L329.499 168H325.509L326.239 161H330.229L330.139 161.9H327.149L326.929 163.95H329.319L329.229 164.85H326.839Z" fill="#FAFAFA"/>
</g>
<defs>
<filter id="filter0_dddd_56_480" x="30.3728" y="-25.5068" width="420.361" height="276.507" filterUnits="userSpaceOnUse" color-interpolation-filters="sRGB">
<feFlood flood-opacity="0" result="BackgroundImageFix"/>
<feColorMatrix in="SourceAlpha" type="matrix" values="0 0 0 0 0 0 0 0 0 0 0 0 0 0 0 0 0 0 127 0" result="hardAlpha"/>
<feOffset/>
<feGaussianBlur stdDeviation="3.5"/>
<feComposite in2="hardAlpha" operator="out"/>
<feColorMatrix type="matrix" values="0 0 0 0 0.866667 0 0 0 0 0.207843 0 0 0 0 0.266667 0 0 0 1 0"/>
<feBlend mode="normal" in2="BackgroundImageFix" result="effect1_dropShadow_56_480"/>
<feColorMatrix in="SourceAlpha" type="matrix" values="0 0 0 0 0 0 0 0 0 0 0 0 0 0 0 0 0 0 127 0" result="hardAlpha"/>
<feOffset/>
<feGaussianBlur stdDeviation="8"/>
<feComposite in2="hardAlpha" operator="out"/>
<feColorMatrix type="matrix" values="0 0 0 0 0.866667 0 0 0 0 0.207843 0 0 0 0 0.266667 0 0 0 1 0"/>
<feBlend mode="normal" in2="effect1_dropShadow_56_480" result="effect2_dropShadow_56_480"/>
<feColorMatrix in="SourceAlpha" type="matrix" values="0 0 0 0 0 0 0 0 0 0 0 0 0 0 0 0 0 0 127 0" result="hardAlpha"/>
<feOffset/>
<feGaussianBlur stdDeviation="16"/>
<feComposite in2="hardAlpha" operator="out"/>
<feColorMatrix type="matrix" values="0 0 0 0 0.866667 0 0 0 0 0.207843 0 0 0 0 0.266667 0 0 0 1 0"/>
<feBlend mode="normal" in2="effect2_dropShadow_56_480" result="effect3_dropShadow_56_480"/>
<feColorMatrix in="SourceAlpha" type="matrix" values="0 0 0 0 0 0 0 0 0 0 0 0 0 0 0 0 0 0 127 0" result="hardAlpha"/>
<feOffset/>
<feGaussianBlur stdDeviation="60"/>
<feComposite in2="hardAlpha" operator="out"/>
<feColorMatrix type="matrix" values="0 0 0 0 0.866667 0 0 0 0 0.207843 0 0 0 0 0.266667 0 0 0 1 0"/>
<feBlend mode="normal" in2="effect3_dropShadow_56_480" result="effect4_dropShadow_56_480"/>
<feBlend mode="normal" in="SourceGraphic" in2="effect4_dropShadow_56_480" result="shape"/>
</filter>
<filter id="filter1_dddd_56_480" x="-70.8357" y="-70" width="477.869" height="276.507" filterUnits="userSpaceOnUse" color-interpolation-filters="sRGB">
<feFlood flood-opacity="0" result="BackgroundImageFix"/>
<feColorMatrix in="SourceAlpha" type="matrix" values="0 0 0 0 0 0 0 0 0 0 0 0 0 0 0 0 0 0 127 0" result="hardAlpha"/>
<feOffset/>
<feGaussianBlur stdDeviation="3.5"/>
<feComposite in2="hardAlpha" operator="out"/>
<feColorMatrix type="matrix" values="0 0 0 0 0.811765 0 0 0 0 0.698039 0 0 0 0 0.0627451 0 0 0 1 0"/>
<feBlend mode="normal" in2="BackgroundImageFix" result="effect1_dropShadow_56_480"/>
<feColorMatrix in="SourceAlpha" type="matrix" values="0 0 0 0 0 0 0 0 0 0 0 0 0 0 0 0 0 0 127 0" result="hardAlpha"/>
<feOffset/>
<feGaussianBlur stdDeviation="8"/>
<feComposite in2="hardAlpha" operator="out"/>
<feColorMatrix type="matrix" values="0 0 0 0 0.811765 0 0 0 0 0.698039 0 0 0 0 0.0627451 0 0 0 1 0"/>
<feBlend mode="normal" in2="effect1_dropShadow_56_480" result="effect2_dropShadow_56_480"/>
<feColorMatrix in="SourceAlpha" type="matrix" values="0 0 0 0 0 0 0 0 0 0 0 0 0 0 0 0 0 0 127 0" result="hardAlpha"/>
<feOffset/>
<feGaussianBlur stdDeviation="16"/>
<feComposite in2="hardAlpha" operator="out"/>
<feColorMatrix type="matrix" values="0 0 0 0 0.811765 0 0 0 0 0.698039 0 0 0 0 0.0627451 0 0 0 1 0"/>
<feBlend mode="normal" in2="effect2_dropShadow_56_480" result="effect3_dropShadow_56_480"/>
<feColorMatrix in="SourceAlpha" type="matrix" values="0 0 0 0 0 0 0 0 0 0 0 0 0 0 0 0 0 0 127 0" result="hardAlpha"/>
<feOffset/>
<feGaussianBlur stdDeviation="60"/>
<feComposite in2="hardAlpha" operator="out"/>
<feColorMatrix type="matrix" values="0 0 0 0 0.811765 0 0 0 0 0.698039 0 0 0 0 0.0627451 0 0 0 1 0"/>
<feBlend mode="normal" in2="effect3_dropShadow_56_480" result="effect4_dropShadow_56_480"/>
<feBlend mode="normal" in="SourceGraphic" in2="effect4_dropShadow_56_480" result="shape"/>
</filter>
</defs>
</svg>
