<svg width="692" height="650" viewBox="0 0 692 650" fill="none" xmlns="http://www.w3.org/2000/svg">
<path opacity="0.1" fill-rule="evenodd" clip-rule="evenodd" d="M315.793 17C316.238 17 316.461 16.4614 316.146 16.1464C316.053 16.0527 315.926 16 315.793 16H185.707C185.574 16 185.447 16.0527 185.354 16.1464C185.039 16.4614 185.262 17 185.707 17H315.793ZM318.293 18.2929C318.105 18.1054 317.851 18 317.586 18H183.914C183.649 18 183.395 18.1054 183.207 18.2929C182.577 18.9229 183.023 20 183.914 20H317.586C318.477 20 318.923 18.9229 318.293 18.2929ZM373.707 18.2929C373.077 18.9229 373.523 20 374.414 20H508.086C508.977 20 509.423 18.9229 508.793 18.2929C508.605 18.1054 508.351 18 508.086 18H374.414C374.149 18 373.895 18.1054 373.707 18.2929ZM506.646 16.1464C506.961 16.4614 506.738 17 506.293 17H376.207C375.762 17 375.539 16.4614 375.854 16.1464C375.947 16.0527 376.074 16 376.207 16H506.293C506.426 16 506.553 16.0527 506.646 16.1464ZM511.793 21.2929C511.605 21.1054 511.351 21 511.086 21H180.914C180.649 21 180.395 21.1054 180.207 21.2929C179.577 21.9229 180.023 23 180.914 23H511.086C511.977 23 512.423 21.9229 511.793 21.2929ZM514.793 24.2929C514.605 24.1054 514.351 24 514.086 24H177.914C177.649 24 177.395 24.1054 177.207 24.2929C176.577 24.9229 177.023 26 177.914 26H514.086C514.977 26 515.423 24.9229 514.793 24.2929ZM517.793 27.2929C517.605 27.1054 517.351 27 517.086 27H174.914C174.649 27 174.395 27.1054 174.207 27.2929C173.577 27.9229 174.023 29 174.914 29H517.086C517.977 29 518.423 27.9229 517.793 27.2929ZM519.5 31C519.5 30.4477 519.052 30 518.5 30H171.914C171.649 30 171.395 30.1054 171.207 30.2929C170.577 30.9229 171.023 32 171.914 32H518.5C519.052 32 519.5 31.5523 519.5 31ZM519.5 34C519.5 33.4477 519.052 33 518.5 33H168.914C168.649 33 168.395 33.1054 168.207 33.2929C167.577 33.9229 168.023 35 168.914 35H518.5C519.052 35 519.5 34.5523 519.5 34ZM519.5 37C519.5 36.4477 519.052 36 518.5 36H165.914C165.649 36 165.395 36.1054 165.207 36.2929C164.577 36.9229 165.023 38 165.914 38H518.5C519.052 38 519.5 37.5523 519.5 37ZM519.5 40C519.5 39.4477 519.052 39 518.5 39H162.914C162.649 39 162.395 39.1054 162.207 39.2929C161.577 39.9229 162.023 41 162.914 41H518.5C519.052 41 519.5 40.5523 519.5 40ZM519.5 43C519.5 42.4477 519.052 42 518.5 42H13C12.4477 42 12 42.4477 12 43C12 43.5523 12.4477 44 13 44H518.5C519.052 44 519.5 43.5523 519.5 43ZM519.5 46C519.5 45.4477 519.052 45 518.5 45H13C12.4477 45 12 45.4477 12 46C12 46.5523 12.4477 47 13 47H518.5C519.052 47 519.5 46.5523 519.5 46ZM519.5 49C519.5 48.4477 519.052 48 518.5 48H13C12.4477 48 12 48.4477 12 49C12 49.5523 12.4477 50 13 50H518.5C519.052 50 519.5 49.5523 519.5 49ZM519.5 52C519.5 51.4477 519.052 51 518.5 51H13C12.4477 51 12 51.4477 12 52C12 52.5523 12.4477 53 13 53H518.5C519.052 53 519.5 52.5523 519.5 52ZM519.5 55C519.5 54.4477 519.052 54 518.5 54H13C12.4477 54 12 54.4477 12 55C12 55.5523 12.4477 56 13 56H518.5C519.052 56 519.5 55.5523 519.5 55ZM519.5 58C519.5 57.4477 519.052 57 518.5 57H13C12.4477 57 12 57.4477 12 58C12 58.5523 12.4477 59 13 59H518.5C519.052 59 519.5 58.5523 519.5 58ZM519.5 61C519.5 60.4477 519.052 60 518.5 60H13C12.4477 60 12 60.4477 12 61C12 61.5523 12.4477 62 13 62H518.5C519.052 62 519.5 61.5523 519.5 61ZM519.5 64C519.5 63.4477 519.052 63 518.5 63H13C12.4477 63 12 63.4477 12 64C12 64.5523 12.4477 65 13 65H518.5C519.052 65 519.5 64.5523 519.5 64ZM519.5 67C519.5 66.4477 519.052 66 518.5 66H13C12.4477 66 12 66.4477 12 67C12 67.5523 12.4477 68 13 68H518.5C519.052 68 519.5 67.5523 519.5 67ZM519.5 70C519.5 69.4477 519.052 69 518.5 69H13C12.4477 69 12 69.4477 12 70C12 70.5523 12.4477 71 13 71H518.5C519.052 71 519.5 70.5523 519.5 70ZM519.5 73C519.5 72.4477 519.052 72 518.5 72H13C12.4477 72 12 72.4477 12 73C12 73.5523 12.4477 74 13 74H518.5C519.052 74 519.5 73.5523 519.5 73ZM519.5 76C519.5 75.4477 519.052 75 518.5 75H13C12.4477 75 12 75.4477 12 76C12 76.5523 12.4477 77 13 77H518.5C519.052 77 519.5 76.5523 519.5 76ZM519.5 79C519.5 78.4477 519.052 78 518.5 78H13C12.4477 78 12 78.4477 12 79C12 79.5523 12.4477 80 13 80H518.5C519.052 80 519.5 79.5523 519.5 79ZM519.5 82C519.5 81.4477 519.052 81 518.5 81H13C12.4477 81 12 81.4477 12 82C12 82.5523 12.4477 83 13 83H518.5C519.052 83 519.5 82.5523 519.5 82ZM519.5 85C519.5 84.4477 519.052 84 518.5 84H13C12.4477 84 12 84.4477 12 85C12 85.5523 12.4477 86 13 86H518.5C519.052 86 519.5 85.5523 519.5 85ZM519.5 88C519.5 87.4477 519.052 87 518.5 87H13C12.4477 87 12 87.4477 12 88C12 88.5523 12.4477 89 13 89H518.5C519.052 89 519.5 88.5523 519.5 88ZM519.5 91C519.5 90.4477 519.052 90 518.5 90H13C12.4477 90 12 90.4477 12 91C12 91.5523 12.4477 92 13 92H518.5C519.052 92 519.5 91.5523 519.5 91ZM519.5 94C519.5 93.4477 519.052 93 518.5 93H13C12.4477 93 12 93.4477 12 94C12 94.5523 12.4477 95 13 95H518.5C519.052 95 519.5 94.5523 519.5 94ZM519.5 97C519.5 96.4477 519.052 96 518.5 96H13C12.4477 96 12 96.4477 12 97C12 97.5523 12.4477 98 13 98H518.5C519.052 98 519.5 97.5523 519.5 97ZM519.5 100C519.5 99.4477 519.052 99 518.5 99H13C12.4477 99 12 99.4477 12 100C12 100.552 12.4477 101 13 101H518.5C519.052 101 519.5 100.552 519.5 100ZM519.5 103C519.5 102.448 519.052 102 518.5 102H13C12.4477 102 12 102.448 12 103C12 103.552 12.4477 104 13 104H518.5C519.052 104 519.5 103.552 519.5 103ZM519.5 106C519.5 105.448 519.052 105 518.5 105H13C12.4477 105 12 105.448 12 106C12 106.552 12.4477 107 13 107H518.5C519.052 107 519.5 106.552 519.5 106ZM519.5 109C519.5 108.448 519.052 108 518.5 108H13C12.4477 108 12 108.448 12 109C12 109.552 12.4477 110 13 110H518.5C519.052 110 519.5 109.552 519.5 109ZM519.5 112C519.5 111.448 519.052 111 518.5 111H13C12.4477 111 12 111.448 12 112C12 112.552 12.4477 113 13 113H518.5C519.052 113 519.5 112.552 519.5 112ZM680 115C680 114.448 679.552 114 679 114H13C12.4477 114 12 114.448 12 115C12 115.552 12.4477 116 13 116H679C679.552 116 680 115.552 680 115ZM680 118C680 117.448 679.552 117 679 117H13C12.4477 117 12 117.448 12 118C12 118.552 12.4477 119 13 119H679C679.552 119 680 118.552 680 118ZM680 121C680 120.448 679.552 120 679 120H13C12.4477 120 12 120.448 12 121C12 121.552 12.4477 122 13 122H679C679.552 122 680 121.552 680 121ZM680 124C680 123.448 679.552 123 679 123H13C12.4477 123 12 123.448 12 124C12 124.552 12.4477 125 13 125H679C679.552 125 680 124.552 680 124ZM680 127C680 126.448 679.552 126 679 126H13C12.4477 126 12 126.448 12 127C12 127.552 12.4477 128 13 128H679C679.552 128 680 127.552 680 127ZM680 130C680 129.448 679.552 129 679 129H13C12.4477 129 12 129.448 12 130C12 130.552 12.4477 131 13 131H679C679.552 131 680 130.552 680 130ZM680 133C680 132.448 679.552 132 679 132H13C12.4477 132 12 132.448 12 133C12 133.552 12.4477 134 13 134H679C679.552 134 680 133.552 680 133ZM680 136C680 135.448 679.552 135 679 135H13C12.4477 135 12 135.448 12 136C12 136.552 12.4477 137 13 137H679C679.552 137 680 136.552 680 136ZM680 139C680 138.448 679.552 138 679 138H13C12.4477 138 12 138.448 12 139C12 139.552 12.4477 140 13 140H679C679.552 140 680 139.552 680 139ZM680 142C680 141.448 679.552 141 679 141H13C12.4477 141 12 141.448 12 142C12 142.552 12.4477 143 13 143H679C679.552 143 680 142.552 680 142ZM680 145C680 144.448 679.552 144 679 144H13C12.4477 144 12 144.448 12 145C12 145.552 12.4477 146 13 146H679C679.552 146 680 145.552 680 145ZM680 148C680 147.448 679.552 147 679 147H13C12.4477 147 12 147.448 12 148C12 148.552 12.4477 149 13 149H679C679.552 149 680 148.552 680 148ZM680 151C680 150.448 679.552 150 679 150H13C12.4477 150 12 150.448 12 151C12 151.552 12.4477 152 13 152H679C679.552 152 680 151.552 680 151ZM680 154C680 153.448 679.552 153 679 153H13C12.4477 153 12 153.448 12 154C12 154.552 12.4477 155 13 155H679C679.552 155 680 154.552 680 154ZM680 157C680 156.448 679.552 156 679 156H13C12.4477 156 12 156.448 12 157C12 157.552 12.4477 158 13 158H679C679.552 158 680 157.552 680 157ZM680 160C680 159.448 679.552 159 679 159H13C12.4477 159 12 159.448 12 160C12 160.552 12.4477 161 13 161H679C679.552 161 680 160.552 680 160ZM680 163C680 162.448 679.552 162 679 162H13C12.4477 162 12 162.448 12 163C12 163.552 12.4477 164 13 164H679C679.552 164 680 163.552 680 163ZM680 166C680 165.448 679.552 165 679 165H13C12.4477 165 12 165.448 12 166C12 166.552 12.4477 167 13 167H679C679.552 167 680 166.552 680 166ZM680 168.707C680 168.317 679.683 168 679.293 168H12.7071C12.3166 168 12 168.317 12 168.707C12 168.895 12.0745 169.074 12.2071 169.207L12.5 169.5C12.8201 169.82 13.2544 170 13.7071 170H678.293C678.746 170 679.18 169.82 679.5 169.5L679.793 169.207C679.925 169.074 680 168.895 680 168.707ZM676.293 172.707C676.923 172.077 676.477 171 675.586 171H16.4142C15.5233 171 15.0771 172.077 15.7071 172.707C15.8946 172.895 16.149 173 16.4142 173H675.586C675.851 173 676.105 172.895 676.293 172.707ZM673.293 175.707C673.923 175.077 673.477 174 672.586 174H19.4142C18.5233 174 18.0771 175.077 18.7071 175.707C18.8946 175.895 19.149 176 19.4142 176H672.586C672.851 176 673.105 175.895 673.293 175.707ZM671.573 177.427C671.731 177.269 671.619 177 671.396 177H20.6036C20.3808 177 20.2693 177.269 20.4268 177.427C20.4737 177.474 20.5 177.537 20.5 177.604V177.939C20.5 178.525 20.9749 179 21.5607 179H670.439C671.025 179 671.5 178.525 671.5 177.939V177.604C671.5 177.537 671.526 177.474 671.573 177.427ZM671.5 181C671.5 180.448 671.052 180 670.5 180H21.5C20.9477 180 20.5 180.448 20.5 181C20.5 181.552 20.9477 182 21.5 182H670.5C671.052 182 671.5 181.552 671.5 181ZM671.5 184C671.5 183.448 671.052 183 670.5 183H21.5C20.9477 183 20.5 183.448 20.5 184C20.5 184.552 20.9477 185 21.5 185H670.5C671.052 185 671.5 184.552 671.5 184ZM671.5 187C671.5 186.448 671.052 186 670.5 186H21.5C20.9477 186 20.5 186.448 20.5 187C20.5 187.552 20.9477 188 21.5 188H670.5C671.052 188 671.5 187.552 671.5 187ZM671.5 190C671.5 189.448 671.052 189 670.5 189H21.5C20.9477 189 20.5 189.448 20.5 190C20.5 190.552 20.9477 191 21.5 191H670.5C671.052 191 671.5 190.552 671.5 190ZM671.5 193C671.5 192.448 671.052 192 670.5 192H21.5C20.9477 192 20.5 192.448 20.5 193C20.5 193.552 20.9477 194 21.5 194H670.5C671.052 194 671.5 193.552 671.5 193ZM671.5 196C671.5 195.448 671.052 195 670.5 195H21.5C20.9477 195 20.5 195.448 20.5 196C20.5 196.552 20.9477 197 21.5 197H670.5C671.052 197 671.5 196.552 671.5 196ZM671.5 199C671.5 198.448 671.052 198 670.5 198H21.5C20.9477 198 20.5 198.448 20.5 199C20.5 199.552 20.9477 200 21.5 200H670.5C671.052 200 671.5 199.552 671.5 199ZM671.5 202C671.5 201.448 671.052 201 670.5 201H21.5C20.9477 201 20.5 201.448 20.5 202C20.5 202.552 20.9477 203 21.5 203H670.5C671.052 203 671.5 202.552 671.5 202ZM671.5 205C671.5 204.448 671.052 204 670.5 204H21.5C20.9477 204 20.5 204.448 20.5 205C20.5 205.552 20.9477 206 21.5 206H670.5C671.052 206 671.5 205.552 671.5 205ZM671.5 208C671.5 207.448 671.052 207 670.5 207H21.5C20.9477 207 20.5 207.448 20.5 208C20.5 208.552 20.9477 209 21.5 209H670.5C671.052 209 671.5 208.552 671.5 208ZM671.5 211C671.5 210.448 671.052 210 670.5 210H21.5C20.9477 210 20.5 210.448 20.5 211C20.5 211.552 20.9477 212 21.5 212H670.5C671.052 212 671.5 211.552 671.5 211ZM671.5 214C671.5 213.448 671.052 213 670.5 213H21.5C20.9477 213 20.5 213.448 20.5 214C20.5 214.552 20.9477 215 21.5 215H670.5C671.052 215 671.5 214.552 671.5 214ZM671.5 217C671.5 216.448 671.052 216 670.5 216H21.5C20.9477 216 20.5 216.448 20.5 217C20.5 217.552 20.9477 218 21.5 218H670.5C671.052 218 671.5 217.552 671.5 217ZM671.5 220C671.5 219.448 671.052 219 670.5 219H21.5C20.9477 219 20.5 219.448 20.5 220C20.5 220.552 20.9477 221 21.5 221H670.5C671.052 221 671.5 220.552 671.5 220ZM671.5 223C671.5 222.448 671.052 222 670.5 222H21.5C20.9477 222 20.5 222.448 20.5 223C20.5 223.552 20.9477 224 21.5 224H670.5C671.052 224 671.5 223.552 671.5 223ZM671.5 226C671.5 225.448 671.052 225 670.5 225H21.5C20.9477 225 20.5 225.448 20.5 226C20.5 226.552 20.9477 227 21.5 227H670.5C671.052 227 671.5 226.552 671.5 226ZM671.5 229C671.5 228.448 671.052 228 670.5 228H21.5C20.9477 228 20.5 228.448 20.5 229C20.5 229.552 20.9477 230 21.5 230H670.5C671.052 230 671.5 229.552 671.5 229ZM671.5 232C671.5 231.448 671.052 231 670.5 231H21.5C20.9477 231 20.5 231.448 20.5 232C20.5 232.552 20.9477 233 21.5 233H670.5C671.052 233 671.5 232.552 671.5 232ZM671.5 235C671.5 234.448 671.052 234 670.5 234H21.5C20.9477 234 20.5 234.448 20.5 235C20.5 235.552 20.9477 236 21.5 236H670.5C671.052 236 671.5 235.552 671.5 235ZM671.5 238C671.5 237.448 671.052 237 670.5 237H21.5C20.9477 237 20.5 237.448 20.5 238C20.5 238.552 20.9477 239 21.5 239H670.5C671.052 239 671.5 238.552 671.5 238ZM671.5 241C671.5 240.448 671.052 240 670.5 240H21.5C20.9477 240 20.5 240.448 20.5 241C20.5 241.552 20.9477 242 21.5 242H670.5C671.052 242 671.5 241.552 671.5 241ZM671.5 244C671.5 243.448 671.052 243 670.5 243H21.5C20.9477 243 20.5 243.448 20.5 244C20.5 244.552 20.9477 245 21.5 245H670.5C671.052 245 671.5 244.552 671.5 244ZM671.5 247C671.5 246.448 671.052 246 670.5 246H21.5C20.9477 246 20.5 246.448 20.5 247C20.5 247.552 20.9477 248 21.5 248H670.5C671.052 248 671.5 247.552 671.5 247ZM671.5 250C671.5 249.448 671.052 249 670.5 249H21.5C20.9477 249 20.5 249.448 20.5 250C20.5 250.552 20.9477 251 21.5 251H670.5C671.052 251 671.5 250.552 671.5 250ZM671.5 252.707C671.5 252.317 671.183 252 670.793 252H21.2071C20.8166 252 20.5 252.317 20.5 252.707C20.5 252.895 20.5745 253.074 20.7071 253.207L21 253.5C21.3201 253.82 21.7544 254 22.2071 254H669.793C670.246 254 670.68 253.82 671 253.5L671.293 253.207C671.425 253.074 671.5 252.895 671.5 252.707ZM667.793 256.707C668.423 256.077 667.977 255 667.086 255H24.9142C24.0233 255 23.5771 256.077 24.2071 256.707C24.3946 256.895 24.649 257 24.9142 257H667.086C667.351 257 667.605 256.895 667.793 256.707ZM664.793 259.707C665.423 259.077 664.977 258 664.086 258H27.9142C27.0233 258 26.5771 259.077 27.2071 259.707C27.3946 259.895 27.649 260 27.9142 260H664.086C664.351 260 664.605 259.895 664.793 259.707ZM661.793 262.707C662.423 262.077 661.977 261 661.086 261H30.9142C30.0233 261 29.5771 262.077 30.2071 262.707C30.3946 262.895 30.649 263 30.9142 263H661.086C661.351 263 661.605 262.895 661.793 262.707ZM658.793 265.707C659.423 265.077 658.977 264 658.086 264H33.9142C33.0233 264 32.5771 265.077 33.2071 265.707C33.3946 265.895 33.649 266 33.9142 266H658.086C658.351 266 658.605 265.895 658.793 265.707ZM658.5 268C658.5 267.448 658.052 267 657.5 267H34.5C33.9477 267 33.5 267.448 33.5 268C33.5 268.552 33.9477 269 34.5 269H657.5C658.052 269 658.5 268.552 658.5 268ZM658.5 271C658.5 270.448 658.052 270 657.5 270H34.5C33.9477 270 33.5 270.448 33.5 271C33.5 271.552 33.9477 272 34.5 272H657.5C658.052 272 658.5 271.552 658.5 271ZM658.5 274C658.5 273.448 658.052 273 657.5 273H34.5C33.9477 273 33.5 273.448 33.5 274C33.5 274.552 33.9477 275 34.5 275H657.5C658.052 275 658.5 274.552 658.5 274ZM658.5 277C658.5 276.448 658.052 276 657.5 276H34.5C33.9477 276 33.5 276.448 33.5 277C33.5 277.552 33.9477 278 34.5 278H657.5C658.052 278 658.5 277.552 658.5 277ZM658.5 280C658.5 279.448 658.052 279 657.5 279H34.5C33.9477 279 33.5 279.448 33.5 280C33.5 280.552 33.9477 281 34.5 281H657.5C658.052 281 658.5 280.552 658.5 280ZM658.5 283C658.5 282.448 658.052 282 657.5 282H34.5C33.9477 282 33.5 282.448 33.5 283C33.5 283.552 33.9477 284 34.5 284H657.5C658.052 284 658.5 283.552 658.5 283ZM658.5 286C658.5 285.448 658.052 285 657.5 285H34.5C33.9477 285 33.5 285.448 33.5 286C33.5 286.552 33.9477 287 34.5 287H657.5C658.052 287 658.5 286.552 658.5 286ZM658.5 289C658.5 288.448 658.052 288 657.5 288H34.5C33.9477 288 33.5 288.448 33.5 289C33.5 289.552 33.9477 290 34.5 290H657.5C658.052 290 658.5 289.552 658.5 289ZM658.5 292C658.5 291.448 658.052 291 657.5 291H34.5C33.9477 291 33.5 291.448 33.5 292C33.5 292.552 33.9477 293 34.5 293H657.5C658.052 293 658.5 292.552 658.5 292ZM658.5 295C658.5 294.448 658.052 294 657.5 294H34.5C33.9477 294 33.5 294.448 33.5 295C33.5 295.552 33.9477 296 34.5 296H657.5C658.052 296 658.5 295.552 658.5 295ZM658.5 298C658.5 297.448 658.052 297 657.5 297H34.5C33.9477 297 33.5 297.448 33.5 298C33.5 298.552 33.9477 299 34.5 299H657.5C658.052 299 658.5 298.552 658.5 298ZM658.5 301C658.5 300.448 658.052 300 657.5 300H34.5C33.9477 300 33.5 300.448 33.5 301C33.5 301.552 33.9477 302 34.5 302H657.5C658.052 302 658.5 301.552 658.5 301ZM658.5 304C658.5 303.448 658.052 303 657.5 303H34.5C33.9477 303 33.5 303.448 33.5 304C33.5 304.552 33.9477 305 34.5 305H657.5C658.052 305 658.5 304.552 658.5 304ZM658.5 307C658.5 306.448 658.052 306 657.5 306H34.5C33.9477 306 33.5 306.448 33.5 307C33.5 307.552 33.9477 308 34.5 308H657.5C658.052 308 658.5 307.552 658.5 307ZM658.5 310C658.5 309.448 658.052 309 657.5 309H34.5C33.9477 309 33.5 309.448 33.5 310C33.5 310.552 33.9477 311 34.5 311H657.5C658.052 311 658.5 310.552 658.5 310ZM658.5 313C658.5 312.448 658.052 312 657.5 312H34.5C33.9477 312 33.5 312.448 33.5 313C33.5 313.552 33.9477 314 34.5 314H657.5C658.052 314 658.5 313.552 658.5 313ZM658.5 316C658.5 315.448 658.052 315 657.5 315H34.5C33.9477 315 33.5 315.448 33.5 316C33.5 316.552 33.9477 317 34.5 317H657.5C658.052 317 658.5 316.552 658.5 316ZM658.5 319C658.5 318.448 658.052 318 657.5 318H34.5C33.9477 318 33.5 318.448 33.5 319C33.5 319.552 33.9477 320 34.5 320H657.5C658.052 320 658.5 319.552 658.5 319ZM658.5 322C658.5 321.448 658.052 321 657.5 321H34.5C33.9477 321 33.5 321.448 33.5 322C33.5 322.552 33.9477 323 34.5 323H657.5C658.052 323 658.5 322.552 658.5 322ZM658.5 325C658.5 324.448 658.052 324 657.5 324H34.5C33.9477 324 33.5 324.448 33.5 325C33.5 325.552 33.9477 326 34.5 326H657.5C658.052 326 658.5 325.552 658.5 325ZM658.5 328C658.5 327.448 658.052 327 657.5 327H34.5C33.9477 327 33.5 327.448 33.5 328C33.5 328.552 33.9477 329 34.5 329H657.5C658.052 329 658.5 328.552 658.5 328ZM658.5 331C658.5 330.448 658.052 330 657.5 330H34.5C33.9477 330 33.5 330.448 33.5 331C33.5 331.552 33.9477 332 34.5 332H657.5C658.052 332 658.5 331.552 658.5 331ZM658.5 334C658.5 333.448 658.052 333 657.5 333H34.5C33.9477 333 33.5 333.448 33.5 334C33.5 334.552 33.9477 335 34.5 335H657.5C658.052 335 658.5 334.552 658.5 334ZM658.5 337C658.5 336.448 658.052 336 657.5 336H34.5C33.9477 336 33.5 336.448 33.5 337C33.5 337.552 33.9477 338 34.5 338H657.5C658.052 338 658.5 337.552 658.5 337ZM658.5 340C658.5 339.448 658.052 339 657.5 339H34.5C33.9477 339 33.5 339.448 33.5 340C33.5 340.552 33.9477 341 34.5 341H657.5C658.052 341 658.5 340.552 658.5 340ZM658.5 343C658.5 342.448 658.052 342 657.5 342H34.5C33.9477 342 33.5 342.448 33.5 343C33.5 343.552 33.9477 344 34.5 344H657.5C658.052 344 658.5 343.552 658.5 343ZM658.5 346C658.5 345.448 658.052 345 657.5 345H34.5C33.9477 345 33.5 345.448 33.5 346C33.5 346.552 33.9477 347 34.5 347H657.5C658.052 347 658.5 346.552 658.5 346ZM658.5 349C658.5 348.448 658.052 348 657.5 348H34.5C33.9477 348 33.5 348.448 33.5 349C33.5 349.552 33.9477 350 34.5 350H657.5C658.052 350 658.5 349.552 658.5 349ZM658.5 352C658.5 351.448 658.052 351 657.5 351H34.5C33.9477 351 33.5 351.448 33.5 352C33.5 352.552 33.9477 353 34.5 353H657.5C658.052 353 658.5 352.552 658.5 352ZM658.5 355C658.5 354.448 658.052 354 657.5 354H34.5C33.9477 354 33.5 354.448 33.5 355C33.5 355.552 33.9477 356 34.5 356H657.5C658.052 356 658.5 355.552 658.5 355ZM658.5 358C658.5 357.448 658.052 357 657.5 357H34.5C33.9477 357 33.5 357.448 33.5 358C33.5 358.552 33.9477 359 34.5 359H657.5C658.052 359 658.5 358.552 658.5 358ZM658.5 361C658.5 360.448 658.052 360 657.5 360H34.5C33.9477 360 33.5 360.448 33.5 361C33.5 361.552 33.9477 362 34.5 362H657.5C658.052 362 658.5 361.552 658.5 361ZM658.5 364C658.5 363.448 658.052 363 657.5 363H34.5C33.9477 363 33.5 363.448 33.5 364C33.5 364.552 33.9477 365 34.5 365H657.5C658.052 365 658.5 364.552 658.5 364ZM658.5 367C658.5 366.448 658.052 366 657.5 366H34.5C33.9477 366 33.5 366.448 33.5 367C33.5 367.552 33.9477 368 34.5 368H657.5C658.052 368 658.5 367.552 658.5 367ZM658.5 370C658.5 369.448 658.052 369 657.5 369H34.5C33.9477 369 33.5 369.448 33.5 370C33.5 370.552 33.9477 371 34.5 371H657.5C658.052 371 658.5 370.552 658.5 370ZM658.5 373C658.5 372.448 658.052 372 657.5 372H34.5C33.9477 372 33.5 372.448 33.5 373C33.5 373.552 33.9477 374 34.5 374H657.5C658.052 374 658.5 373.552 658.5 373ZM658.5 376C658.5 375.448 658.052 375 657.5 375H34.5C33.9477 375 33.5 375.448 33.5 376C33.5 376.552 33.9477 377 34.5 377H657.5C658.052 377 658.5 376.552 658.5 376ZM658.5 379C658.5 378.448 658.052 378 657.5 378H34.5C33.9477 378 33.5 378.448 33.5 379C33.5 379.552 33.9477 380 34.5 380H657.5C658.052 380 658.5 379.552 658.5 379ZM658.5 382C658.5 381.448 658.052 381 657.5 381H34.5C33.9477 381 33.5 381.448 33.5 382C33.5 382.552 33.9477 383 34.5 383H657.5C658.052 383 658.5 382.552 658.5 382ZM658.793 384.293C658.605 384.105 658.351 384 658.086 384H33.9142C33.649 384 33.3946 384.105 33.2071 384.293C32.5771 384.923 33.0233 386 33.9142 386H658.086C658.977 386 659.423 384.923 658.793 384.293ZM661.793 387.293C661.605 387.105 661.351 387 661.086 387H30.9142C30.649 387 30.3946 387.105 30.2071 387.293C29.5771 387.923 30.0233 389 30.9142 389H661.086C661.977 389 662.423 387.923 661.793 387.293ZM664.793 390.293C664.605 390.105 664.351 390 664.086 390H27.9142C27.649 390 27.3946 390.105 27.2071 390.293C26.5771 390.923 27.0233 392 27.9142 392H664.086C664.977 392 665.423 390.923 664.793 390.293ZM667.793 393.293C667.605 393.105 667.351 393 667.086 393H24.9142C24.649 393 24.3946 393.105 24.2071 393.293C23.5771 393.923 24.0233 395 24.9142 395H667.086C667.977 395 668.423 393.923 667.793 393.293ZM671 396.5C670.68 396.18 670.246 396 669.793 396H22.2071C21.7544 396 21.3201 396.18 21 396.5L20.7071 396.793C20.5745 396.926 20.5 397.105 20.5 397.293C20.5 397.683 20.8166 398 21.2071 398H670.793C671.183 398 671.5 397.683 671.5 397.293C671.5 397.105 671.425 396.926 671.293 396.793L671 396.5ZM671.5 400C671.5 399.448 671.052 399 670.5 399H21.5C20.9477 399 20.5 399.448 20.5 400C20.5 400.552 20.9477 401 21.5 401H670.5C671.052 401 671.5 400.552 671.5 400ZM671.5 403C671.5 402.448 671.052 402 670.5 402H21.5C20.9477 402 20.5 402.448 20.5 403C20.5 403.552 20.9477 404 21.5 404H670.5C671.052 404 671.5 403.552 671.5 403ZM671.5 406C671.5 405.448 671.052 405 670.5 405H21.5C20.9477 405 20.5 405.448 20.5 406C20.5 406.552 20.9477 407 21.5 407H670.5C671.052 407 671.5 406.552 671.5 406ZM671.5 409C671.5 408.448 671.052 408 670.5 408H21.5C20.9477 408 20.5 408.448 20.5 409C20.5 409.552 20.9477 410 21.5 410H670.5C671.052 410 671.5 409.552 671.5 409ZM671.5 412C671.5 411.448 671.052 411 670.5 411H21.5C20.9477 411 20.5 411.448 20.5 412C20.5 412.552 20.9477 413 21.5 413H670.5C671.052 413 671.5 412.552 671.5 412ZM671.5 415C671.5 414.448 671.052 414 670.5 414H21.5C20.9477 414 20.5 414.448 20.5 415C20.5 415.552 20.9477 416 21.5 416H670.5C671.052 416 671.5 415.552 671.5 415ZM671.5 418C671.5 417.448 671.052 417 670.5 417H21.5C20.9477 417 20.5 417.448 20.5 418C20.5 418.552 20.9477 419 21.5 419H670.5C671.052 419 671.5 418.552 671.5 418ZM671.5 421C671.5 420.448 671.052 420 670.5 420H21.5C20.9477 420 20.5 420.448 20.5 421C20.5 421.552 20.9477 422 21.5 422H670.5C671.052 422 671.5 421.552 671.5 421ZM671.5 424C671.5 423.448 671.052 423 670.5 423H21.5C20.9477 423 20.5 423.448 20.5 424C20.5 424.552 20.9477 425 21.5 425H670.5C671.052 425 671.5 424.552 671.5 424ZM671.5 427C671.5 426.448 671.052 426 670.5 426H21.5C20.9477 426 20.5 426.448 20.5 427C20.5 427.552 20.9477 428 21.5 428H670.5C671.052 428 671.5 427.552 671.5 427ZM671.5 430C671.5 429.448 671.052 429 670.5 429H21.5C20.9477 429 20.5 429.448 20.5 430C20.5 430.552 20.9477 431 21.5 431H670.5C671.052 431 671.5 430.552 671.5 430ZM671.5 433C671.5 432.448 671.052 432 670.5 432H21.5C20.9477 432 20.5 432.448 20.5 433C20.5 433.552 20.9477 434 21.5 434H670.5C671.052 434 671.5 433.552 671.5 433ZM671.5 436C671.5 435.448 671.052 435 670.5 435H21.5C20.9477 435 20.5 435.448 20.5 436C20.5 436.552 20.9477 437 21.5 437H670.5C671.052 437 671.5 436.552 671.5 436ZM671.5 439C671.5 438.448 671.052 438 670.5 438H21.5C20.9477 438 20.5 438.448 20.5 439C20.5 439.552 20.9477 440 21.5 440H670.5C671.052 440 671.5 439.552 671.5 439ZM671.5 442C671.5 441.448 671.052 441 670.5 441H21.5C20.9477 441 20.5 441.448 20.5 442C20.5 442.552 20.9477 443 21.5 443H670.5C671.052 443 671.5 442.552 671.5 442ZM671.5 445C671.5 444.448 671.052 444 670.5 444H21.5C20.9477 444 20.5 444.448 20.5 445C20.5 445.552 20.9477 446 21.5 446H670.5C671.052 446 671.5 445.552 671.5 445ZM671.5 448C671.5 447.448 671.052 447 670.5 447H21.5C20.9477 447 20.5 447.448 20.5 448C20.5 448.552 20.9477 449 21.5 449H670.5C671.052 449 671.5 448.552 671.5 448ZM671.5 451C671.5 450.448 671.052 450 670.5 450H21.5C20.9477 450 20.5 450.448 20.5 451C20.5 451.552 20.9477 452 21.5 452H670.5C671.052 452 671.5 451.552 671.5 451ZM671.5 454C671.5 453.448 671.052 453 670.5 453H21.5C20.9477 453 20.5 453.448 20.5 454C20.5 454.552 20.9477 455 21.5 455H670.5C671.052 455 671.5 454.552 671.5 454ZM671.5 457C671.5 456.448 671.052 456 670.5 456H21.5C20.9477 456 20.5 456.448 20.5 457C20.5 457.552 20.9477 458 21.5 458H670.5C671.052 458 671.5 457.552 671.5 457ZM671.5 460C671.5 459.448 671.052 459 670.5 459H21.5C20.9477 459 20.5 459.448 20.5 460C20.5 460.552 20.9477 461 21.5 461H670.5C671.052 461 671.5 460.552 671.5 460ZM671.5 463C671.5 462.448 671.052 462 670.5 462H21.5C20.9477 462 20.5 462.448 20.5 463C20.5 463.552 20.9477 464 21.5 464H670.5C671.052 464 671.5 463.552 671.5 463ZM671.5 466C671.5 465.448 671.052 465 670.5 465H21.5C20.9477 465 20.5 465.448 20.5 466C20.5 466.552 20.9477 467 21.5 467H670.5C671.052 467 671.5 466.552 671.5 466ZM671.5 469C671.5 468.448 671.052 468 670.5 468H21.5C20.9477 468 20.5 468.448 20.5 469C20.5 469.552 20.9477 470 21.5 470H670.5C671.052 470 671.5 469.552 671.5 469ZM671.5 472.061C671.5 471.475 671.025 471 670.439 471H21.5607C20.9749 471 20.5 471.475 20.5 472.061V472.396C20.5 472.463 20.4737 472.526 20.4268 472.573C20.2693 472.731 20.3808 473 20.6036 473H671.396C671.619 473 671.731 472.731 671.573 472.573C671.526 472.526 671.5 472.463 671.5 472.396V472.061ZM673.293 474.293C673.105 474.105 672.851 474 672.586 474H19.4142C19.149 474 18.8946 474.105 18.7071 474.293C18.0771 474.923 18.5233 476 19.4142 476H672.586C673.477 476 673.923 474.923 673.293 474.293ZM676.293 477.293C676.105 477.105 675.851 477 675.586 477H16.4142C16.149 477 15.8946 477.105 15.7071 477.293C15.0771 477.923 15.5233 479 16.4142 479H675.586C676.477 479 676.923 477.923 676.293 477.293ZM679.5 480.5C679.18 480.18 678.746 480 678.293 480H13.7071C13.2544 480 12.8201 480.18 12.5 480.5L12.2071 480.793C12.0745 480.926 12 481.105 12 481.293C12 481.683 12.3166 482 12.7071 482H679.293C679.683 482 680 481.683 680 481.293C680 481.105 679.925 480.926 679.793 480.793L679.5 480.5ZM680 484C680 483.448 679.552 483 679 483H13C12.4477 483 12 483.448 12 484C12 484.552 12.4477 485 13 485H679C679.552 485 680 484.552 680 484ZM680 487C680 486.448 679.552 486 679 486H13C12.4477 486 12 486.448 12 487C12 487.552 12.4477 488 13 488H679C679.552 488 680 487.552 680 487ZM680 490C680 489.448 679.552 489 679 489H13C12.4477 489 12 489.448 12 490C12 490.552 12.4477 491 13 491H679C679.552 491 680 490.552 680 490ZM680 493C680 492.448 679.552 492 679 492H13C12.4477 492 12 492.448 12 493C12 493.552 12.4477 494 13 494H679C679.552 494 680 493.552 680 493ZM680 496C680 495.448 679.552 495 679 495H13C12.4477 495 12 495.448 12 496C12 496.552 12.4477 497 13 497H679C679.552 497 680 496.552 680 496ZM680 499C680 498.448 679.552 498 679 498H13C12.4477 498 12 498.448 12 499C12 499.552 12.4477 500 13 500H679C679.552 500 680 499.552 680 499ZM680 502C680 501.448 679.552 501 679 501H13C12.4477 501 12 501.448 12 502C12 502.552 12.4477 503 13 503H679C679.552 503 680 502.552 680 502ZM680 505C680 504.448 679.552 504 679 504H13C12.4477 504 12 504.448 12 505C12 505.552 12.4477 506 13 506H679C679.552 506 680 505.552 680 505ZM680 508C680 507.448 679.552 507 679 507H13C12.4477 507 12 507.448 12 508C12 508.552 12.4477 509 13 509H679C679.552 509 680 508.552 680 508ZM680 511C680 510.448 679.552 510 679 510H13C12.4477 510 12 510.448 12 511C12 511.552 12.4477 512 13 512H679C679.552 512 680 511.552 680 511ZM680 514C680 513.448 679.552 513 679 513H13C12.4477 513 12 513.448 12 514C12 514.552 12.4477 515 13 515H679C679.552 515 680 514.552 680 514ZM680 517C680 516.448 679.552 516 679 516H13C12.4477 516 12 516.448 12 517C12 517.552 12.4477 518 13 518H679C679.552 518 680 517.552 680 517ZM680 520C680 519.448 679.552 519 679 519H13C12.4477 519 12 519.448 12 520C12 520.552 12.4477 521 13 521H679C679.552 521 680 520.552 680 520ZM680 523C680 522.448 679.552 522 679 522H13C12.4477 522 12 522.448 12 523C12 523.552 12.4477 524 13 524H679C679.552 524 680 523.552 680 523ZM680 526C680 525.448 679.552 525 679 525H13C12.4477 525 12 525.448 12 526C12 526.552 12.4477 527 13 527H679C679.552 527 680 526.552 680 526ZM680 529C680 528.448 679.552 528 679 528H13C12.4477 528 12 528.448 12 529C12 529.552 12.4477 530 13 530H679C679.552 530 680 529.552 680 529ZM680 532C680 531.448 679.552 531 679 531H13C12.4477 531 12 531.448 12 532C12 532.552 12.4477 533 13 533H679C679.552 533 680 532.552 680 532ZM680 535C680 534.448 679.552 534 679 534H13C12.4477 534 12 534.448 12 535C12 535.552 12.4477 536 13 536H679C679.552 536 680 535.552 680 535ZM680 538C680 537.448 679.552 537 679 537H13C12.4477 537 12 537.448 12 538C12 538.552 12.4477 539 13 539H679C679.552 539 680 538.552 680 538ZM680 541C680 540.448 679.552 540 679 540H13C12.4477 540 12 540.448 12 541C12 541.552 12.4477 542 13 542H679C679.552 542 680 541.552 680 541ZM680 544C680 543.448 679.552 543 679 543H13C12.4477 543 12 543.448 12 544C12 544.552 12.4477 545 13 545H679C679.552 545 680 544.552 680 544ZM680 547C680 546.448 679.552 546 679 546H13C12.4477 546 12 546.448 12 547C12 547.552 12.4477 548 13 548H679C679.552 548 680 547.552 680 547ZM680 550C680 549.448 679.552 549 679 549H13C12.4477 549 12 549.448 12 550C12 550.552 12.4477 551 13 551H679C679.552 551 680 550.552 680 550ZM680 553C680 552.448 679.552 552 679 552H13C12.4477 552 12 552.448 12 553C12 553.552 12.4477 554 13 554H679C679.552 554 680 553.552 680 553ZM680 556C680 555.448 679.552 555 679 555H13C12.4477 555 12 555.448 12 556C12 556.552 12.4477 557 13 557H679C679.552 557 680 556.552 680 556ZM680 559C680 558.448 679.552 558 679 558H13C12.4477 558 12 558.448 12 559C12 559.552 12.4477 560 13 560H679C679.552 560 680 559.552 680 559ZM680 562C680 561.448 679.552 561 679 561H13C12.4477 561 12 561.448 12 562C12 562.552 12.4477 563 13 563H679C679.552 563 680 562.552 680 562ZM680 565C680 564.448 679.552 564 679 564H13C12.4477 564 12 564.448 12 565C12 565.552 12.4477 566 13 566H679C679.552 566 680 565.552 680 565ZM680 568C680 567.448 679.552 567 679 567H13C12.4477 567 12 567.448 12 568C12 568.552 12.4477 569 13 569H679C679.552 569 680 568.552 680 568ZM680 571C680 570.448 679.552 570 679 570H13C12.4477 570 12 570.448 12 571C12 571.552 12.4477 572 13 572H679C679.552 572 680 571.552 680 571ZM680 574C680 573.448 679.552 573 679 573H13C12.4477 573 12 573.448 12 574C12 574.552 12.4477 575 13 575H679C679.552 575 680 574.552 680 574ZM680 577C680 576.448 679.552 576 679 576H13C12.4477 576 12 576.448 12 577C12 577.552 12.4477 578 13 578H679C679.552 578 680 577.552 680 577ZM680 580C680 579.448 679.552 579 679 579H13C12.4477 579 12 579.448 12 580C12 580.552 12.4477 581 13 581H679C679.552 581 680 580.552 680 580ZM680 583C680 582.448 679.552 582 679 582H13C12.4477 582 12 582.448 12 583C12 583.552 12.4477 584 13 584H679C679.552 584 680 583.552 680 583ZM680 586C680 585.448 679.552 585 679 585H13C12.4477 585 12 585.448 12 586C12 586.552 12.4477 587 13 587H679C679.552 587 680 586.552 680 586ZM680 589C680 588.448 679.552 588 679 588H13C12.4477 588 12 588.448 12 589C12 589.552 12.4477 590 13 590H679C679.552 590 680 589.552 680 589ZM680 592C680 591.448 679.552 591 679 591H13C12.4477 591 12 591.448 12 592C12 592.552 12.4477 593 13 593H679C679.552 593 680 592.552 680 592ZM680 595C680 594.448 679.552 594 679 594H13C12.4477 594 12 594.448 12 595C12 595.552 12.4477 596 13 596H679C679.552 596 680 595.552 680 595ZM680 598C680 597.448 679.552 597 679 597H13C12.4477 597 12 597.448 12 598C12 598.552 12.4477 599 13 599H679C679.552 599 680 598.552 680 598ZM680 601C680 600.448 679.552 600 679 600H13C12.4477 600 12 600.448 12 601C12 601.552 12.4477 602 13 602H679C679.552 602 680 601.552 680 601ZM680 604C680 603.448 679.552 603 679 603H13C12.4477 603 12 603.448 12 604C12 604.552 12.4477 605 13 605H679C679.552 605 680 604.552 680 604ZM680 607C680 606.448 679.552 606 679 606H13C12.4477 606 12 606.448 12 607C12 607.552 12.4477 608 13 608H679C679.552 608 680 607.552 680 607ZM529.793 610.707C530.423 610.077 529.977 609 529.086 609H162.914C162.023 609 161.577 610.077 162.207 610.707C162.395 610.895 162.649 611 162.914 611H529.086C529.351 611 529.605 610.895 529.793 610.707ZM526.793 613.707C527.423 613.077 526.977 612 526.086 612H165.914C165.023 612 164.577 613.077 165.207 613.707C165.395 613.895 165.649 614 165.914 614H526.086C526.351 614 526.605 613.895 526.793 613.707ZM523.793 616.707C524.423 616.077 523.977 615 523.086 615H168.914C168.023 615 167.577 616.077 168.207 616.707C168.395 616.895 168.649 617 168.914 617H523.086C523.351 617 523.605 616.895 523.793 616.707ZM520.793 619.707C521.423 619.077 520.977 618 520.086 618H171.914C171.023 618 170.577 619.077 171.207 619.707C171.395 619.895 171.649 620 171.914 620H520.086C520.351 620 520.605 619.895 520.793 619.707ZM517.793 622.707C518.423 622.077 517.977 621 517.086 621H174.914C174.023 621 173.577 622.077 174.207 622.707C174.395 622.895 174.649 623 174.914 623H517.086C517.351 623 517.605 622.895 517.793 622.707ZM514.793 625.707C515.423 625.077 514.977 624 514.086 624H177.914C177.023 624 176.577 625.077 177.207 625.707C177.395 625.895 177.649 626 177.914 626H514.086C514.351 626 514.605 625.895 514.793 625.707ZM511.793 628.707C512.423 628.077 511.977 627 511.086 627H180.914C180.023 627 179.577 628.077 180.207 628.707C180.395 628.895 180.649 629 180.914 629H511.086C511.351 629 511.605 628.895 511.793 628.707ZM508.793 631.707C509.423 631.077 508.977 630 508.086 630H374.414C373.523 630 373.077 631.077 373.707 631.707C373.895 631.895 374.149 632 374.414 632H508.086C508.351 632 508.605 631.895 508.793 631.707ZM506.646 633.854C506.961 633.539 506.738 633 506.293 633H376.207C375.762 633 375.539 633.539 375.854 633.854C375.947 633.947 376.074 634 376.207 634H506.293C506.426 634 506.553 633.947 506.646 633.854ZM317.586 632C317.851 632 318.105 631.895 318.293 631.707C318.923 631.077 318.477 630 317.586 630H183.914C183.023 630 182.577 631.077 183.207 631.707C183.395 631.895 183.649 632 183.914 632H317.586ZM185.354 633.854C185.039 633.539 185.262 633 185.707 633H315.793C316.238 633 316.461 633.539 316.146 633.854C316.053 633.947 315.926 634 315.793 634H185.707C185.574 634 185.447 633.947 185.354 633.854Z" fill="#FB00B5"/>
<path opacity="0.5" d="M103.868 152.08L102.872 161.56H104.468L104.372 162.4H101.816L102.992 151.24H105.548L105.464 152.08H103.868ZM108.695 155.56L109.043 152.344L110.519 151.54H113.315L114.623 152.344L114.491 153.58H113.291L113.387 152.62H110.207L109.943 155.164H112.931L114.239 155.968L113.891 159.256L112.415 160.06H109.499L108.191 159.256L108.323 158.02H109.523L109.415 158.98H112.715L112.991 156.364H110.003L108.695 155.56ZM123.75 151.6H124.95L124.146 159.256L122.67 160.06H119.154L117.846 159.256L118.65 151.6H119.85L119.082 158.86H122.982L123.75 151.6ZM128.035 160L128.911 151.6H133.099L134.407 152.404L134.035 155.968L132.559 156.772H129.571L129.235 160H128.035ZM130.003 152.68L129.679 155.692H132.859L133.183 152.68H130.003ZM138.931 156.22L138.643 158.92H142.231L142.123 160H137.335L138.211 151.6H142.999L142.891 152.68H139.303L139.039 155.14H141.907L141.799 156.22H138.931ZM148.963 156.652H147.151L146.803 160H145.603L146.479 151.6H150.787L152.095 152.404L151.735 155.848L150.259 156.652L151.843 160H150.511L148.963 156.652ZM147.571 152.68L147.259 155.572H150.559L150.871 152.68H147.571ZM158.423 158.98L159.203 151.6H160.403L159.599 159.256L158.123 160.06H155.807L154.499 159.256L154.703 157.3H155.903L155.723 158.98H158.423ZM165.085 156.22L164.797 158.92H168.385L168.277 160H163.489L164.365 151.6H169.153L169.045 152.68H165.457L165.193 155.14H168.061L167.953 156.22H165.085ZM175.393 152.68L174.625 160H173.425L174.193 152.68H171.805L171.913 151.6H177.889L177.781 152.68H175.393ZM180.705 155.56L181.053 152.344L182.529 151.54H185.325L186.633 152.344L186.501 153.58H185.301L185.397 152.62H182.217L181.953 155.164H184.941L186.249 155.968L185.901 159.256L184.425 160.06H181.509L180.201 159.256L180.333 158.02H181.533L181.425 158.98H184.725L185.001 156.364H182.013L180.705 155.56ZM190.851 161.56L191.847 152.08H190.251L190.335 151.24H192.891L191.715 162.4H189.159L189.255 161.56H190.851Z" fill="#0086FB"/>
<path opacity="0.5" d="M528.796 490.08L527.8 499.56H529.396L529.3 500.4H526.744L527.92 489.24H530.476L530.392 490.08H528.796ZM533.623 493.56L533.971 490.344L535.447 489.54H538.243L539.551 490.344L539.419 491.58H538.219L538.315 490.62H535.135L534.871 493.164H537.859L539.167 493.968L538.819 497.256L537.343 498.06H534.427L533.119 497.256L533.251 496.02H534.451L534.343 496.98H537.643L537.919 494.364H534.931L533.623 493.56ZM545.858 496.98L546.638 489.6H547.838L547.034 497.256L545.558 498.06H543.242L541.934 497.256L542.138 495.3H543.338L543.158 496.98H545.858ZM551.992 499.56L552.988 490.08H551.392L551.476 489.24H554.032L552.856 500.4H550.3L550.396 499.56H551.992ZM563.788 490.08L562.792 499.56H564.388L564.292 500.4H561.736L562.912 489.24H565.468L565.384 490.08H563.788ZM574.052 497.256L572.576 498.06H569.54L568.232 497.256L568.964 490.344L570.44 489.54H573.476L574.784 490.344L574.052 497.256ZM570.128 490.62L569.456 496.98H572.876L573.548 490.62H570.128ZM583.832 497.256L582.356 498.06H579.32L578.012 497.256L578.744 490.344L580.22 489.54H583.256L584.564 490.344L583.832 497.256ZM579.908 490.62L579.236 496.98H582.656L583.328 490.62H579.908ZM588.789 499.56L589.785 490.08H588.189L588.273 489.24H590.829L589.653 500.4H587.097L587.193 499.56H588.789Z" fill="#0086FB"/>
<g opacity="0.4">
<path d="M317 12L322 17H370L375 12H516V8H192L185 1H14.5L3 12.5H31.5L35 9H172.5L175.5 12H317Z" fill="#0086FB"/>
<path d="M8.5 180.5L3 175V133.5L1 131.5V63L3 61V133.5V175L8.5 180.5V263L11 265.5V384.5L8.5 387V469.5L3 475V516.5V589L1 587V518.5L3 516.5V475L8.5 469.5V387V263V180.5Z" fill="#0086FB"/>
<path d="M88 170L83 175V147.5L105.5 125H198L192.5 130.5H107L88 149.5V170Z" fill="#0086FB"/>
<path d="M120.5 137.5L116 133H195L200 128H250L255 133H210L205.5 137.5H120.5Z" fill="#0086FB"/>
<path d="M683.5 180.5L689 175V133.5V119L691 117V131.5L689 133.5V175L683.5 180.5V263V387V469.5L689 475V516.5L691 518.5V587L689 589V516.5V475L683.5 469.5V387L681 384.5V265.5L683.5 263V180.5Z" fill="#0086FB"/>
<path d="M604 170L609 175V147.5L586.5 125H494L499.5 130.5H585L604 149.5V170Z" fill="#0086FB"/>
<path d="M571.5 137.5L576 133H497L492 128H442L437 133H482L486.5 137.5H571.5Z" fill="#0086FB"/>
<path d="M317 638L322 633H370L375 638H516.5L519.5 641H657L660.5 637.5H689L677.5 649H507L500 642H192L185 649H14.5L3 637.5H31.5L35 641H172.5L175.5 638H317Z" fill="#0086FB"/>
<path d="M88 480L83 475V502.5L105.5 525H198L192.5 519.5H107L88 500.5V480Z" fill="#0086FB"/>
<path d="M120.5 512.5L116 517H195L200 522H250L255 517H210L205.5 512.5H120.5Z" fill="#0086FB"/>
<path d="M604 480L609 475V502.5L586.5 525H494L499.5 519.5H585L604 500.5V480Z" fill="#0086FB"/>
<path d="M571.5 512.5L576 517H497L492 522H442L437 517H482L486.5 512.5H571.5Z" fill="#0086FB"/>
<path d="M3 21V61M3 133.5V175L8.5 180.5V263M3 133.5L1 131.5V63L3 61M3 133.5V61M8.5 263L11 265.5V384.5L8.5 387M8.5 263V387M234 284H283L302 265V240M215 325H245M346 211V118M689 133.5V175L683.5 180.5V263M689 133.5L691 131.5V117L689 119V133.5ZM683.5 263L681 265.5V384.5L683.5 387M683.5 263V387M458 284H409L390 265V240M477 325H447M3 629V589M3 516.5V475L8.5 469.5V387M3 516.5L1 518.5V587L3 589M3 516.5V589M234 366H283L302 385V410M346 439V532M689 629V589M689 516.5V475L683.5 469.5V387M689 516.5L691 518.5V587L689 589M689 516.5V589M458 366H409L390 385V410M322 17L317 12H175.5L172.5 9H35L31.5 12.5H3L14.5 1H185L192 8H516V12H375L370 17H322ZM83 175L88 170V149.5L107 130.5H192.5L198 125H105.5L83 147.5V175ZM116 133L120.5 137.5H205.5L210 133H255L250 128H200L195 133H116ZM609 175L604 170V149.5L585 130.5H499.5L494 125H586.5L609 147.5V175ZM576 133L571.5 137.5H486.5L482 133H437L442 128H492L497 133H576ZM322 633L317 638H175.5L172.5 641H35L31.5 637.5H3L14.5 649H185L192 642H500L507 649H677.5L689 637.5H660.5L657 641H519.5L516.5 638H375L370 633H322ZM83 475L88 480V500.5L107 519.5H192.5L198 525H105.5L83 502.5V475ZM116 517L120.5 512.5H205.5L210 517H255L250 522H200L195 517H116ZM609 475L604 480V500.5L585 519.5H499.5L494 525H586.5L609 502.5V475ZM576 517L571.5 512.5H486.5L482 517H437L442 522H492L497 517H576Z" stroke="#0086FB" stroke-width="0.5"/>
</g>
<path d="M46 22L41 27H46L51 22H46Z" fill="#0086FB"/>
<path d="M31 22L36 27H31L26 22H31Z" fill="#0086FB"/>
<path d="M23 22L28 27H23V22Z" fill="#0086FB"/>
<path d="M54 22L49 27H54L59 22H54Z" fill="#0086FB"/>
<path d="M62 22L57 27H62L67 22H62Z" fill="#0086FB"/>
<path d="M70 22L65 27H70L75 22H70Z" fill="#0086FB"/>
<path d="M78 22L73 27H78L83 22H78Z" fill="#0086FB"/>
<path d="M86 22L81 27H86L91 22H86Z" fill="#0086FB"/>
<path d="M94 22L89 27H94L99 22H94Z" fill="#0086FB"/>
<path d="M102 22L97 27H102L107 22H102Z" fill="#0086FB"/>
<path d="M110 22L105 27H110L115 22H110Z" fill="#0086FB"/>
<path d="M118 22L113 27H118L123 22H118Z" fill="#0086FB"/>
<path d="M126 22L121 27H126L131 22H126Z" fill="#0086FB"/>
<path d="M134 22L129 27H134L139 22H134Z" fill="#0086FB"/>
<path d="M142 22L137 27H142V22Z" fill="#0086FB"/>
<path d="M33.5 22L38.5 27L43.5 22H33.5Z" fill="#0086FB"/>
<path d="M46 628L41 623H46L51 628H46Z" fill="#0086FB"/>
<path d="M31 628L36 623H31L26 628H31Z" fill="#0086FB"/>
<path d="M23 628L28 623H23V628Z" fill="#0086FB"/>
<path d="M54 628L49 623H54L59 628H54Z" fill="#0086FB"/>
<path d="M62 628L57 623H62L67 628H62Z" fill="#0086FB"/>
<path d="M70 628L65 623H70L75 628H70Z" fill="#0086FB"/>
<path d="M78 628L73 623H78L83 628H78Z" fill="#0086FB"/>
<path d="M86 628L81 623H86L91 628H86Z" fill="#0086FB"/>
<path d="M94 628L89 623H94L99 628H94Z" fill="#0086FB"/>
<path d="M102 628L97 623H102L107 628H102Z" fill="#0086FB"/>
<path d="M110 628L105 623H110L115 628H110Z" fill="#0086FB"/>
<path d="M118 628L113 623H118L123 628H118Z" fill="#0086FB"/>
<path d="M126 628L121 623H126L131 628H126Z" fill="#0086FB"/>
<path d="M134 628L129 623H134L139 628H134Z" fill="#0086FB"/>
<path d="M142 628L137 623H142V628Z" fill="#0086FB"/>
<path d="M33.5 628L38.5 623L43.5 628H33.5Z" fill="#0086FB"/>
<path d="M646 628L651 623H646L641 628H646Z" fill="#0086FB"/>
<path d="M661 628L656 623H661L666 628H661Z" fill="#0086FB"/>
<path d="M669 628L664 623H669V628Z" fill="#0086FB"/>
<path d="M638 628L643 623H638L633 628H638Z" fill="#0086FB"/>
<path d="M630 628L635 623H630L625 628H630Z" fill="#0086FB"/>
<path d="M622 628L627 623H622L617 628H622Z" fill="#0086FB"/>
<path d="M614 628L619 623H614L609 628H614Z" fill="#0086FB"/>
<path d="M606 628L611 623H606L601 628H606Z" fill="#0086FB"/>
<path d="M598 628L603 623H598L593 628H598Z" fill="#0086FB"/>
<path d="M590 628L595 623H590L585 628H590Z" fill="#0086FB"/>
<path d="M582 628L587 623H582L577 628H582Z" fill="#0086FB"/>
<path d="M574 628L579 623H574L569 628H574Z" fill="#0086FB"/>
<path d="M566 628L571 623H566L561 628H566Z" fill="#0086FB"/>
<path d="M558 628L563 623H558L553 628H558Z" fill="#0086FB"/>
<path d="M550 628L555 623H550V628Z" fill="#0086FB"/>
<path d="M658.5 628L653.5 623L648.5 628H658.5Z" fill="#0086FB"/>
<path opacity="0.1" fill-rule="evenodd" clip-rule="evenodd" d="M580.173 305.15C580.261 306.192 581.129 307 582.175 307H589C590.105 307 591 306.105 591 305V187C591 185.895 590.105 185 589 185L538.741 185C537.098 185 536.151 186.877 537.109 188.213C561.116 221.694 576.543 261.745 580.173 305.15ZM154.891 188.213C155.849 186.877 154.902 185 153.259 185L103 185C101.895 185 101 185.895 101 187V305C101 306.105 101.895 307 103 307H109.825C110.871 307 111.739 306.192 111.827 305.15C115.457 261.745 130.884 221.694 154.891 188.213ZM538.741 465C537.098 465 536.151 463.123 537.109 461.787C561.116 428.306 576.543 388.255 580.173 344.85C580.261 343.808 581.129 343 582.175 343H589C590.105 343 591 343.895 591 345V463C591 464.105 590.105 465 589 465H538.741ZM154.891 461.787C155.849 463.123 154.902 465 153.259 465H103C101.895 465 101 464.105 101 463V345C101 343.895 101.895 343 103 343H109.825C110.871 343 111.739 343.808 111.827 344.85C115.457 388.255 130.884 428.306 154.891 461.787Z" fill="#FAFAFA"/>
<path d="M480 459C405.994 533.006 286.006 533.006 212 459M212 191C286.006 116.994 405.994 116.994 480 191" stroke="#0086FB" stroke-width="0.5"/>
</svg>
