<svg width="36" height="36" viewBox="0 0 36 36" fill="none" xmlns="http://www.w3.org/2000/svg">
<rect x="0.25" y="0.25" width="35.5" height="35.5" stroke="#0086FB" stroke-width="0.5"/>
<path d="M16.1387 15.208L16.25 15.1338V15V12.059L17.1545 10.25H18.8455L19.75 12.059V15V15.1338L19.8613 15.208L25.75 19.1338V20.75H25.0248L20.049 19.7549L19.8326 19.7116L19.7628 19.9209L18.7628 22.9209L18.6943 23.1266L18.8882 23.2236L20.75 24.1545V25.75H15.25V24.1545L17.1118 23.2236L17.3057 23.1266L17.2372 22.9209L16.2372 19.9209L16.1674 19.7116L15.951 19.7549L10.9752 20.75H10.25V19.1338L16.1387 15.208Z" stroke="#0086FB" stroke-width="0.5"/>
</svg>
