<svg width="697" height="713" viewBox="0 0 697 713" fill="none" xmlns="http://www.w3.org/2000/svg">
<path opacity="0.1" fill-rule="evenodd" clip-rule="evenodd" d="M315.793 80C316.238 80 316.461 79.4614 316.146 79.1464C316.053 79.0527 315.926 79 315.793 79H185.707C185.574 79 185.447 79.0527 185.354 79.1464C185.039 79.4614 185.262 80 185.707 80H315.793ZM318.293 81.2929C318.105 81.1054 317.851 81 317.586 81H183.914C183.649 81 183.395 81.1054 183.207 81.2929C182.577 81.9229 183.023 83 183.914 83H317.586C318.477 83 318.923 81.9229 318.293 81.2929ZM373.707 81.2929C373.077 81.9229 373.523 83 374.414 83H508.086C508.977 83 509.423 81.9229 508.793 81.2929C508.605 81.1054 508.351 81 508.086 81H374.414C374.149 81 373.895 81.1054 373.707 81.2929ZM506.646 79.1464C506.961 79.4614 506.738 80 506.293 80H376.207C375.762 80 375.539 79.4614 375.854 79.1464C375.947 79.0527 376.074 79 376.207 79H506.293C506.426 79 506.553 79.0527 506.646 79.1464ZM511.793 84.2929C511.605 84.1054 511.351 84 511.086 84H180.914C180.649 84 180.395 84.1054 180.207 84.2929C179.577 84.9229 180.023 86 180.914 86H511.086C511.977 86 512.423 84.9229 511.793 84.2929ZM514.793 87.2929C514.605 87.1054 514.351 87 514.086 87H177.914C177.649 87 177.395 87.1054 177.207 87.2929C176.577 87.9229 177.023 89 177.914 89H514.086C514.977 89 515.423 87.9229 514.793 87.2929ZM517.793 90.2929C517.605 90.1054 517.351 90 517.086 90H174.914C174.649 90 174.395 90.1054 174.207 90.2929C173.577 90.9229 174.023 92 174.914 92H517.086C517.977 92 518.423 90.9229 517.793 90.2929ZM519.5 94C519.5 93.4477 519.052 93 518.5 93H171.914C171.649 93 171.395 93.1054 171.207 93.2929C170.577 93.9229 171.023 95 171.914 95H518.5C519.052 95 519.5 94.5523 519.5 94ZM519.5 97C519.5 96.4477 519.052 96 518.5 96H168.914C168.649 96 168.395 96.1054 168.207 96.2929C167.577 96.9229 168.023 98 168.914 98H518.5C519.052 98 519.5 97.5523 519.5 97ZM519.5 100C519.5 99.4477 519.052 99 518.5 99H165.914C165.649 99 165.395 99.1054 165.207 99.2929C164.577 99.9229 165.023 101 165.914 101H518.5C519.052 101 519.5 100.552 519.5 100ZM519.5 103C519.5 102.448 519.052 102 518.5 102H162.914C162.649 102 162.395 102.105 162.207 102.293C161.577 102.923 162.023 104 162.914 104H518.5C519.052 104 519.5 103.552 519.5 103ZM519.5 106C519.5 105.448 519.052 105 518.5 105H13C12.4477 105 12 105.448 12 106C12 106.552 12.4477 107 13 107H518.5C519.052 107 519.5 106.552 519.5 106ZM519.5 109C519.5 108.448 519.052 108 518.5 108H13C12.4477 108 12 108.448 12 109C12 109.552 12.4477 110 13 110H518.5C519.052 110 519.5 109.552 519.5 109ZM519.5 112C519.5 111.448 519.052 111 518.5 111H13C12.4477 111 12 111.448 12 112C12 112.552 12.4477 113 13 113H518.5C519.052 113 519.5 112.552 519.5 112ZM519.5 115C519.5 114.448 519.052 114 518.5 114H13C12.4477 114 12 114.448 12 115C12 115.552 12.4477 116 13 116H518.5C519.052 116 519.5 115.552 519.5 115ZM519.5 118C519.5 117.448 519.052 117 518.5 117H13C12.4477 117 12 117.448 12 118C12 118.552 12.4477 119 13 119H518.5C519.052 119 519.5 118.552 519.5 118ZM519.5 121C519.5 120.448 519.052 120 518.5 120H13C12.4477 120 12 120.448 12 121C12 121.552 12.4477 122 13 122H518.5C519.052 122 519.5 121.552 519.5 121ZM519.5 124C519.5 123.448 519.052 123 518.5 123H13C12.4477 123 12 123.448 12 124C12 124.552 12.4477 125 13 125H518.5C519.052 125 519.5 124.552 519.5 124ZM519.5 127C519.5 126.448 519.052 126 518.5 126H13C12.4477 126 12 126.448 12 127C12 127.552 12.4477 128 13 128H518.5C519.052 128 519.5 127.552 519.5 127ZM519.5 130C519.5 129.448 519.052 129 518.5 129H13C12.4477 129 12 129.448 12 130C12 130.552 12.4477 131 13 131H518.5C519.052 131 519.5 130.552 519.5 130ZM519.5 133C519.5 132.448 519.052 132 518.5 132H13C12.4477 132 12 132.448 12 133C12 133.552 12.4477 134 13 134H518.5C519.052 134 519.5 133.552 519.5 133ZM519.5 136C519.5 135.448 519.052 135 518.5 135H13C12.4477 135 12 135.448 12 136C12 136.552 12.4477 137 13 137H518.5C519.052 137 519.5 136.552 519.5 136ZM519.5 139C519.5 138.448 519.052 138 518.5 138H13C12.4477 138 12 138.448 12 139C12 139.552 12.4477 140 13 140H518.5C519.052 140 519.5 139.552 519.5 139ZM519.5 142C519.5 141.448 519.052 141 518.5 141H13C12.4477 141 12 141.448 12 142C12 142.552 12.4477 143 13 143H518.5C519.052 143 519.5 142.552 519.5 142ZM519.5 145C519.5 144.448 519.052 144 518.5 144H13C12.4477 144 12 144.448 12 145C12 145.552 12.4477 146 13 146H518.5C519.052 146 519.5 145.552 519.5 145ZM519.5 148C519.5 147.448 519.052 147 518.5 147H13C12.4477 147 12 147.448 12 148C12 148.552 12.4477 149 13 149H518.5C519.052 149 519.5 148.552 519.5 148ZM519.5 151C519.5 150.448 519.052 150 518.5 150H13C12.4477 150 12 150.448 12 151C12 151.552 12.4477 152 13 152H518.5C519.052 152 519.5 151.552 519.5 151ZM519.5 154C519.5 153.448 519.052 153 518.5 153H13C12.4477 153 12 153.448 12 154C12 154.552 12.4477 155 13 155H518.5C519.052 155 519.5 154.552 519.5 154ZM519.5 157C519.5 156.448 519.052 156 518.5 156H13C12.4477 156 12 156.448 12 157C12 157.552 12.4477 158 13 158H518.5C519.052 158 519.5 157.552 519.5 157ZM519.5 160C519.5 159.448 519.052 159 518.5 159H13C12.4477 159 12 159.448 12 160C12 160.552 12.4477 161 13 161H518.5C519.052 161 519.5 160.552 519.5 160ZM519.5 163C519.5 162.448 519.052 162 518.5 162H13C12.4477 162 12 162.448 12 163C12 163.552 12.4477 164 13 164H518.5C519.052 164 519.5 163.552 519.5 163ZM519.5 166C519.5 165.448 519.052 165 518.5 165H13C12.4477 165 12 165.448 12 166C12 166.552 12.4477 167 13 167H518.5C519.052 167 519.5 166.552 519.5 166ZM519.5 169C519.5 168.448 519.052 168 518.5 168H13C12.4477 168 12 168.448 12 169C12 169.552 12.4477 170 13 170H518.5C519.052 170 519.5 169.552 519.5 169ZM519.5 172C519.5 171.448 519.052 171 518.5 171H13C12.4477 171 12 171.448 12 172C12 172.552 12.4477 173 13 173H518.5C519.052 173 519.5 172.552 519.5 172ZM519.5 175C519.5 174.448 519.052 174 518.5 174H13C12.4477 174 12 174.448 12 175C12 175.552 12.4477 176 13 176H518.5C519.052 176 519.5 175.552 519.5 175ZM680 178C680 177.448 679.552 177 679 177H13C12.4477 177 12 177.448 12 178C12 178.552 12.4477 179 13 179H679C679.552 179 680 178.552 680 178ZM680 181C680 180.448 679.552 180 679 180H13C12.4477 180 12 180.448 12 181C12 181.552 12.4477 182 13 182H679C679.552 182 680 181.552 680 181ZM680 184C680 183.448 679.552 183 679 183H13C12.4477 183 12 183.448 12 184C12 184.552 12.4477 185 13 185H679C679.552 185 680 184.552 680 184ZM680 187C680 186.448 679.552 186 679 186H13C12.4477 186 12 186.448 12 187C12 187.552 12.4477 188 13 188H679C679.552 188 680 187.552 680 187ZM680 190C680 189.448 679.552 189 679 189H13C12.4477 189 12 189.448 12 190C12 190.552 12.4477 191 13 191H679C679.552 191 680 190.552 680 190ZM680 193C680 192.448 679.552 192 679 192H13C12.4477 192 12 192.448 12 193C12 193.552 12.4477 194 13 194H679C679.552 194 680 193.552 680 193ZM680 196C680 195.448 679.552 195 679 195H13C12.4477 195 12 195.448 12 196C12 196.552 12.4477 197 13 197H679C679.552 197 680 196.552 680 196ZM680 199C680 198.448 679.552 198 679 198H13C12.4477 198 12 198.448 12 199C12 199.552 12.4477 200 13 200H679C679.552 200 680 199.552 680 199ZM680 202C680 201.448 679.552 201 679 201H13C12.4477 201 12 201.448 12 202C12 202.552 12.4477 203 13 203H679C679.552 203 680 202.552 680 202ZM680 205C680 204.448 679.552 204 679 204H13C12.4477 204 12 204.448 12 205C12 205.552 12.4477 206 13 206H679C679.552 206 680 205.552 680 205ZM680 208C680 207.448 679.552 207 679 207H13C12.4477 207 12 207.448 12 208C12 208.552 12.4477 209 13 209H679C679.552 209 680 208.552 680 208ZM680 211C680 210.448 679.552 210 679 210H13C12.4477 210 12 210.448 12 211C12 211.552 12.4477 212 13 212H679C679.552 212 680 211.552 680 211ZM680 214C680 213.448 679.552 213 679 213H13C12.4477 213 12 213.448 12 214C12 214.552 12.4477 215 13 215H679C679.552 215 680 214.552 680 214ZM680 217C680 216.448 679.552 216 679 216H13C12.4477 216 12 216.448 12 217C12 217.552 12.4477 218 13 218H679C679.552 218 680 217.552 680 217ZM680 220C680 219.448 679.552 219 679 219H13C12.4477 219 12 219.448 12 220C12 220.552 12.4477 221 13 221H679C679.552 221 680 220.552 680 220ZM680 223C680 222.448 679.552 222 679 222H13C12.4477 222 12 222.448 12 223C12 223.552 12.4477 224 13 224H679C679.552 224 680 223.552 680 223ZM680 226C680 225.448 679.552 225 679 225H13C12.4477 225 12 225.448 12 226C12 226.552 12.4477 227 13 227H679C679.552 227 680 226.552 680 226ZM680 229C680 228.448 679.552 228 679 228H13C12.4477 228 12 228.448 12 229C12 229.552 12.4477 230 13 230H679C679.552 230 680 229.552 680 229ZM680 231.707C680 231.317 679.683 231 679.293 231H12.7071C12.3166 231 12 231.317 12 231.707C12 231.895 12.0745 232.074 12.2071 232.207L12.5 232.5C12.8201 232.82 13.2544 233 13.7071 233H678.293C678.746 233 679.18 232.82 679.5 232.5L679.793 232.207C679.925 232.074 680 231.895 680 231.707ZM676.293 235.707C676.923 235.077 676.477 234 675.586 234H16.4142C15.5233 234 15.0771 235.077 15.7071 235.707C15.8946 235.895 16.149 236 16.4142 236H675.586C675.851 236 676.105 235.895 676.293 235.707ZM673.293 238.707C673.923 238.077 673.477 237 672.586 237H19.4142C18.5233 237 18.0771 238.077 18.7071 238.707C18.8946 238.895 19.149 239 19.4142 239H672.586C672.851 239 673.105 238.895 673.293 238.707ZM671.573 240.427C671.731 240.269 671.619 240 671.396 240H20.6036C20.3808 240 20.2693 240.269 20.4268 240.427C20.4737 240.474 20.5 240.537 20.5 240.604V240.939C20.5 241.525 20.9749 242 21.5607 242H670.439C671.025 242 671.5 241.525 671.5 240.939V240.604C671.5 240.537 671.526 240.474 671.573 240.427ZM671.5 244C671.5 243.448 671.052 243 670.5 243H21.5C20.9477 243 20.5 243.448 20.5 244C20.5 244.552 20.9477 245 21.5 245H670.5C671.052 245 671.5 244.552 671.5 244ZM671.5 247C671.5 246.448 671.052 246 670.5 246H21.5C20.9477 246 20.5 246.448 20.5 247C20.5 247.552 20.9477 248 21.5 248H670.5C671.052 248 671.5 247.552 671.5 247ZM671.5 250C671.5 249.448 671.052 249 670.5 249H21.5C20.9477 249 20.5 249.448 20.5 250C20.5 250.552 20.9477 251 21.5 251H670.5C671.052 251 671.5 250.552 671.5 250ZM671.5 253C671.5 252.448 671.052 252 670.5 252H21.5C20.9477 252 20.5 252.448 20.5 253C20.5 253.552 20.9477 254 21.5 254H670.5C671.052 254 671.5 253.552 671.5 253ZM671.5 256C671.5 255.448 671.052 255 670.5 255H21.5C20.9477 255 20.5 255.448 20.5 256C20.5 256.552 20.9477 257 21.5 257H670.5C671.052 257 671.5 256.552 671.5 256ZM671.5 259C671.5 258.448 671.052 258 670.5 258H21.5C20.9477 258 20.5 258.448 20.5 259C20.5 259.552 20.9477 260 21.5 260H670.5C671.052 260 671.5 259.552 671.5 259ZM671.5 262C671.5 261.448 671.052 261 670.5 261H21.5C20.9477 261 20.5 261.448 20.5 262C20.5 262.552 20.9477 263 21.5 263H670.5C671.052 263 671.5 262.552 671.5 262ZM671.5 265C671.5 264.448 671.052 264 670.5 264H21.5C20.9477 264 20.5 264.448 20.5 265C20.5 265.552 20.9477 266 21.5 266H670.5C671.052 266 671.5 265.552 671.5 265ZM671.5 268C671.5 267.448 671.052 267 670.5 267H21.5C20.9477 267 20.5 267.448 20.5 268C20.5 268.552 20.9477 269 21.5 269H670.5C671.052 269 671.5 268.552 671.5 268ZM671.5 271C671.5 270.448 671.052 270 670.5 270H21.5C20.9477 270 20.5 270.448 20.5 271C20.5 271.552 20.9477 272 21.5 272H670.5C671.052 272 671.5 271.552 671.5 271ZM671.5 274C671.5 273.448 671.052 273 670.5 273H21.5C20.9477 273 20.5 273.448 20.5 274C20.5 274.552 20.9477 275 21.5 275H670.5C671.052 275 671.5 274.552 671.5 274ZM671.5 277C671.5 276.448 671.052 276 670.5 276H21.5C20.9477 276 20.5 276.448 20.5 277C20.5 277.552 20.9477 278 21.5 278H670.5C671.052 278 671.5 277.552 671.5 277ZM671.5 280C671.5 279.448 671.052 279 670.5 279H21.5C20.9477 279 20.5 279.448 20.5 280C20.5 280.552 20.9477 281 21.5 281H670.5C671.052 281 671.5 280.552 671.5 280ZM671.5 283C671.5 282.448 671.052 282 670.5 282H21.5C20.9477 282 20.5 282.448 20.5 283C20.5 283.552 20.9477 284 21.5 284H670.5C671.052 284 671.5 283.552 671.5 283ZM671.5 286C671.5 285.448 671.052 285 670.5 285H21.5C20.9477 285 20.5 285.448 20.5 286C20.5 286.552 20.9477 287 21.5 287H670.5C671.052 287 671.5 286.552 671.5 286ZM671.5 289C671.5 288.448 671.052 288 670.5 288H21.5C20.9477 288 20.5 288.448 20.5 289C20.5 289.552 20.9477 290 21.5 290H670.5C671.052 290 671.5 289.552 671.5 289ZM671.5 292C671.5 291.448 671.052 291 670.5 291H21.5C20.9477 291 20.5 291.448 20.5 292C20.5 292.552 20.9477 293 21.5 293H670.5C671.052 293 671.5 292.552 671.5 292ZM671.5 295C671.5 294.448 671.052 294 670.5 294H21.5C20.9477 294 20.5 294.448 20.5 295C20.5 295.552 20.9477 296 21.5 296H670.5C671.052 296 671.5 295.552 671.5 295ZM671.5 298C671.5 297.448 671.052 297 670.5 297H21.5C20.9477 297 20.5 297.448 20.5 298C20.5 298.552 20.9477 299 21.5 299H670.5C671.052 299 671.5 298.552 671.5 298ZM671.5 301C671.5 300.448 671.052 300 670.5 300H21.5C20.9477 300 20.5 300.448 20.5 301C20.5 301.552 20.9477 302 21.5 302H670.5C671.052 302 671.5 301.552 671.5 301ZM671.5 304C671.5 303.448 671.052 303 670.5 303H21.5C20.9477 303 20.5 303.448 20.5 304C20.5 304.552 20.9477 305 21.5 305H670.5C671.052 305 671.5 304.552 671.5 304ZM671.5 307C671.5 306.448 671.052 306 670.5 306H21.5C20.9477 306 20.5 306.448 20.5 307C20.5 307.552 20.9477 308 21.5 308H670.5C671.052 308 671.5 307.552 671.5 307ZM671.5 310C671.5 309.448 671.052 309 670.5 309H21.5C20.9477 309 20.5 309.448 20.5 310C20.5 310.552 20.9477 311 21.5 311H670.5C671.052 311 671.5 310.552 671.5 310ZM671.5 313C671.5 312.448 671.052 312 670.5 312H21.5C20.9477 312 20.5 312.448 20.5 313C20.5 313.552 20.9477 314 21.5 314H670.5C671.052 314 671.5 313.552 671.5 313ZM671.5 315.707C671.5 315.317 671.183 315 670.793 315H21.2071C20.8166 315 20.5 315.317 20.5 315.707C20.5 315.895 20.5745 316.074 20.7071 316.207L21 316.5C21.3201 316.82 21.7544 317 22.2071 317H669.793C670.246 317 670.68 316.82 671 316.5L671.293 316.207C671.425 316.074 671.5 315.895 671.5 315.707ZM667.793 319.707C668.423 319.077 667.977 318 667.086 318H24.9142C24.0233 318 23.5771 319.077 24.2071 319.707C24.3946 319.895 24.649 320 24.9142 320H667.086C667.351 320 667.605 319.895 667.793 319.707ZM664.793 322.707C665.423 322.077 664.977 321 664.086 321H27.9142C27.0233 321 26.5771 322.077 27.2071 322.707C27.3946 322.895 27.649 323 27.9142 323H664.086C664.351 323 664.605 322.895 664.793 322.707ZM661.793 325.707C662.423 325.077 661.977 324 661.086 324H30.9142C30.0233 324 29.5771 325.077 30.2071 325.707C30.3946 325.895 30.649 326 30.9142 326H661.086C661.351 326 661.605 325.895 661.793 325.707ZM658.793 328.707C659.423 328.077 658.977 327 658.086 327H33.9142C33.0233 327 32.5771 328.077 33.2071 328.707C33.3946 328.895 33.649 329 33.9142 329H658.086C658.351 329 658.605 328.895 658.793 328.707ZM658.5 331C658.5 330.448 658.052 330 657.5 330H34.5C33.9477 330 33.5 330.448 33.5 331C33.5 331.552 33.9477 332 34.5 332H657.5C658.052 332 658.5 331.552 658.5 331ZM658.5 334C658.5 333.448 658.052 333 657.5 333H34.5C33.9477 333 33.5 333.448 33.5 334C33.5 334.552 33.9477 335 34.5 335H657.5C658.052 335 658.5 334.552 658.5 334ZM658.5 337C658.5 336.448 658.052 336 657.5 336H34.5C33.9477 336 33.5 336.448 33.5 337C33.5 337.552 33.9477 338 34.5 338H657.5C658.052 338 658.5 337.552 658.5 337ZM658.5 340C658.5 339.448 658.052 339 657.5 339H34.5C33.9477 339 33.5 339.448 33.5 340C33.5 340.552 33.9477 341 34.5 341H657.5C658.052 341 658.5 340.552 658.5 340ZM658.5 343C658.5 342.448 658.052 342 657.5 342H34.5C33.9477 342 33.5 342.448 33.5 343C33.5 343.552 33.9477 344 34.5 344H657.5C658.052 344 658.5 343.552 658.5 343ZM658.5 346C658.5 345.448 658.052 345 657.5 345H34.5C33.9477 345 33.5 345.448 33.5 346C33.5 346.552 33.9477 347 34.5 347H657.5C658.052 347 658.5 346.552 658.5 346ZM658.5 349C658.5 348.448 658.052 348 657.5 348H34.5C33.9477 348 33.5 348.448 33.5 349C33.5 349.552 33.9477 350 34.5 350H657.5C658.052 350 658.5 349.552 658.5 349ZM658.5 352C658.5 351.448 658.052 351 657.5 351H34.5C33.9477 351 33.5 351.448 33.5 352C33.5 352.552 33.9477 353 34.5 353H657.5C658.052 353 658.5 352.552 658.5 352ZM658.5 355C658.5 354.448 658.052 354 657.5 354H34.5C33.9477 354 33.5 354.448 33.5 355C33.5 355.552 33.9477 356 34.5 356H657.5C658.052 356 658.5 355.552 658.5 355ZM658.5 358C658.5 357.448 658.052 357 657.5 357H34.5C33.9477 357 33.5 357.448 33.5 358C33.5 358.552 33.9477 359 34.5 359H657.5C658.052 359 658.5 358.552 658.5 358ZM658.5 361C658.5 360.448 658.052 360 657.5 360H34.5C33.9477 360 33.5 360.448 33.5 361C33.5 361.552 33.9477 362 34.5 362H657.5C658.052 362 658.5 361.552 658.5 361ZM658.5 364C658.5 363.448 658.052 363 657.5 363H34.5C33.9477 363 33.5 363.448 33.5 364C33.5 364.552 33.9477 365 34.5 365H657.5C658.052 365 658.5 364.552 658.5 364ZM658.5 367C658.5 366.448 658.052 366 657.5 366H34.5C33.9477 366 33.5 366.448 33.5 367C33.5 367.552 33.9477 368 34.5 368H657.5C658.052 368 658.5 367.552 658.5 367ZM658.5 370C658.5 369.448 658.052 369 657.5 369H34.5C33.9477 369 33.5 369.448 33.5 370C33.5 370.552 33.9477 371 34.5 371H657.5C658.052 371 658.5 370.552 658.5 370ZM658.5 373C658.5 372.448 658.052 372 657.5 372H34.5C33.9477 372 33.5 372.448 33.5 373C33.5 373.552 33.9477 374 34.5 374H657.5C658.052 374 658.5 373.552 658.5 373ZM658.5 376C658.5 375.448 658.052 375 657.5 375H34.5C33.9477 375 33.5 375.448 33.5 376C33.5 376.552 33.9477 377 34.5 377H657.5C658.052 377 658.5 376.552 658.5 376ZM658.5 379C658.5 378.448 658.052 378 657.5 378H34.5C33.9477 378 33.5 378.448 33.5 379C33.5 379.552 33.9477 380 34.5 380H657.5C658.052 380 658.5 379.552 658.5 379ZM658.5 382C658.5 381.448 658.052 381 657.5 381H34.5C33.9477 381 33.5 381.448 33.5 382C33.5 382.552 33.9477 383 34.5 383H657.5C658.052 383 658.5 382.552 658.5 382ZM658.5 385C658.5 384.448 658.052 384 657.5 384H34.5C33.9477 384 33.5 384.448 33.5 385C33.5 385.552 33.9477 386 34.5 386H657.5C658.052 386 658.5 385.552 658.5 385ZM658.5 388C658.5 387.448 658.052 387 657.5 387H34.5C33.9477 387 33.5 387.448 33.5 388C33.5 388.552 33.9477 389 34.5 389H657.5C658.052 389 658.5 388.552 658.5 388ZM658.5 391C658.5 390.448 658.052 390 657.5 390H34.5C33.9477 390 33.5 390.448 33.5 391C33.5 391.552 33.9477 392 34.5 392H657.5C658.052 392 658.5 391.552 658.5 391ZM658.5 394C658.5 393.448 658.052 393 657.5 393H34.5C33.9477 393 33.5 393.448 33.5 394C33.5 394.552 33.9477 395 34.5 395H657.5C658.052 395 658.5 394.552 658.5 394ZM658.5 397C658.5 396.448 658.052 396 657.5 396H34.5C33.9477 396 33.5 396.448 33.5 397C33.5 397.552 33.9477 398 34.5 398H657.5C658.052 398 658.5 397.552 658.5 397ZM658.5 400C658.5 399.448 658.052 399 657.5 399H34.5C33.9477 399 33.5 399.448 33.5 400C33.5 400.552 33.9477 401 34.5 401H657.5C658.052 401 658.5 400.552 658.5 400ZM658.5 403C658.5 402.448 658.052 402 657.5 402H34.5C33.9477 402 33.5 402.448 33.5 403C33.5 403.552 33.9477 404 34.5 404H657.5C658.052 404 658.5 403.552 658.5 403ZM658.5 406C658.5 405.448 658.052 405 657.5 405H34.5C33.9477 405 33.5 405.448 33.5 406C33.5 406.552 33.9477 407 34.5 407H657.5C658.052 407 658.5 406.552 658.5 406ZM658.5 409C658.5 408.448 658.052 408 657.5 408H34.5C33.9477 408 33.5 408.448 33.5 409C33.5 409.552 33.9477 410 34.5 410H657.5C658.052 410 658.5 409.552 658.5 409ZM658.5 412C658.5 411.448 658.052 411 657.5 411H34.5C33.9477 411 33.5 411.448 33.5 412C33.5 412.552 33.9477 413 34.5 413H657.5C658.052 413 658.5 412.552 658.5 412ZM658.5 415C658.5 414.448 658.052 414 657.5 414H34.5C33.9477 414 33.5 414.448 33.5 415C33.5 415.552 33.9477 416 34.5 416H657.5C658.052 416 658.5 415.552 658.5 415ZM658.5 418C658.5 417.448 658.052 417 657.5 417H34.5C33.9477 417 33.5 417.448 33.5 418C33.5 418.552 33.9477 419 34.5 419H657.5C658.052 419 658.5 418.552 658.5 418ZM658.5 421C658.5 420.448 658.052 420 657.5 420H34.5C33.9477 420 33.5 420.448 33.5 421C33.5 421.552 33.9477 422 34.5 422H657.5C658.052 422 658.5 421.552 658.5 421ZM658.5 424C658.5 423.448 658.052 423 657.5 423H34.5C33.9477 423 33.5 423.448 33.5 424C33.5 424.552 33.9477 425 34.5 425H657.5C658.052 425 658.5 424.552 658.5 424ZM658.5 427C658.5 426.448 658.052 426 657.5 426H34.5C33.9477 426 33.5 426.448 33.5 427C33.5 427.552 33.9477 428 34.5 428H657.5C658.052 428 658.5 427.552 658.5 427ZM658.5 430C658.5 429.448 658.052 429 657.5 429H34.5C33.9477 429 33.5 429.448 33.5 430C33.5 430.552 33.9477 431 34.5 431H657.5C658.052 431 658.5 430.552 658.5 430ZM658.5 433C658.5 432.448 658.052 432 657.5 432H34.5C33.9477 432 33.5 432.448 33.5 433C33.5 433.552 33.9477 434 34.5 434H657.5C658.052 434 658.5 433.552 658.5 433ZM658.5 436C658.5 435.448 658.052 435 657.5 435H34.5C33.9477 435 33.5 435.448 33.5 436C33.5 436.552 33.9477 437 34.5 437H657.5C658.052 437 658.5 436.552 658.5 436ZM658.5 439C658.5 438.448 658.052 438 657.5 438H34.5C33.9477 438 33.5 438.448 33.5 439C33.5 439.552 33.9477 440 34.5 440H657.5C658.052 440 658.5 439.552 658.5 439ZM658.5 442C658.5 441.448 658.052 441 657.5 441H34.5C33.9477 441 33.5 441.448 33.5 442C33.5 442.552 33.9477 443 34.5 443H657.5C658.052 443 658.5 442.552 658.5 442ZM658.5 445C658.5 444.448 658.052 444 657.5 444H34.5C33.9477 444 33.5 444.448 33.5 445C33.5 445.552 33.9477 446 34.5 446H657.5C658.052 446 658.5 445.552 658.5 445ZM658.793 447.293C658.605 447.105 658.351 447 658.086 447H33.9142C33.649 447 33.3946 447.105 33.2071 447.293C32.5771 447.923 33.0233 449 33.9142 449H658.086C658.977 449 659.423 447.923 658.793 447.293ZM661.793 450.293C661.605 450.105 661.351 450 661.086 450H30.9142C30.649 450 30.3946 450.105 30.2071 450.293C29.5771 450.923 30.0233 452 30.9142 452H661.086C661.977 452 662.423 450.923 661.793 450.293ZM664.793 453.293C664.605 453.105 664.351 453 664.086 453H27.9142C27.649 453 27.3946 453.105 27.2071 453.293C26.5771 453.923 27.0233 455 27.9142 455H664.086C664.977 455 665.423 453.923 664.793 453.293ZM667.793 456.293C667.605 456.105 667.351 456 667.086 456H24.9142C24.649 456 24.3946 456.105 24.2071 456.293C23.5771 456.923 24.0233 458 24.9142 458H667.086C667.977 458 668.423 456.923 667.793 456.293ZM671 459.5C670.68 459.18 670.246 459 669.793 459H22.2071C21.7544 459 21.3201 459.18 21 459.5L20.7071 459.793C20.5745 459.926 20.5 460.105 20.5 460.293C20.5 460.683 20.8166 461 21.2071 461H670.793C671.183 461 671.5 460.683 671.5 460.293C671.5 460.105 671.425 459.926 671.293 459.793L671 459.5ZM671.5 463C671.5 462.448 671.052 462 670.5 462H21.5C20.9477 462 20.5 462.448 20.5 463C20.5 463.552 20.9477 464 21.5 464H670.5C671.052 464 671.5 463.552 671.5 463ZM671.5 466C671.5 465.448 671.052 465 670.5 465H21.5C20.9477 465 20.5 465.448 20.5 466C20.5 466.552 20.9477 467 21.5 467H670.5C671.052 467 671.5 466.552 671.5 466ZM671.5 469C671.5 468.448 671.052 468 670.5 468H21.5C20.9477 468 20.5 468.448 20.5 469C20.5 469.552 20.9477 470 21.5 470H670.5C671.052 470 671.5 469.552 671.5 469ZM671.5 472C671.5 471.448 671.052 471 670.5 471H21.5C20.9477 471 20.5 471.448 20.5 472C20.5 472.552 20.9477 473 21.5 473H670.5C671.052 473 671.5 472.552 671.5 472ZM671.5 475C671.5 474.448 671.052 474 670.5 474H21.5C20.9477 474 20.5 474.448 20.5 475C20.5 475.552 20.9477 476 21.5 476H670.5C671.052 476 671.5 475.552 671.5 475ZM671.5 478C671.5 477.448 671.052 477 670.5 477H21.5C20.9477 477 20.5 477.448 20.5 478C20.5 478.552 20.9477 479 21.5 479H670.5C671.052 479 671.5 478.552 671.5 478ZM671.5 481C671.5 480.448 671.052 480 670.5 480H21.5C20.9477 480 20.5 480.448 20.5 481C20.5 481.552 20.9477 482 21.5 482H670.5C671.052 482 671.5 481.552 671.5 481ZM671.5 484C671.5 483.448 671.052 483 670.5 483H21.5C20.9477 483 20.5 483.448 20.5 484C20.5 484.552 20.9477 485 21.5 485H670.5C671.052 485 671.5 484.552 671.5 484ZM671.5 487C671.5 486.448 671.052 486 670.5 486H21.5C20.9477 486 20.5 486.448 20.5 487C20.5 487.552 20.9477 488 21.5 488H670.5C671.052 488 671.5 487.552 671.5 487ZM671.5 490C671.5 489.448 671.052 489 670.5 489H21.5C20.9477 489 20.5 489.448 20.5 490C20.5 490.552 20.9477 491 21.5 491H670.5C671.052 491 671.5 490.552 671.5 490ZM671.5 493C671.5 492.448 671.052 492 670.5 492H21.5C20.9477 492 20.5 492.448 20.5 493C20.5 493.552 20.9477 494 21.5 494H670.5C671.052 494 671.5 493.552 671.5 493ZM671.5 496C671.5 495.448 671.052 495 670.5 495H21.5C20.9477 495 20.5 495.448 20.5 496C20.5 496.552 20.9477 497 21.5 497H670.5C671.052 497 671.5 496.552 671.5 496ZM671.5 499C671.5 498.448 671.052 498 670.5 498H21.5C20.9477 498 20.5 498.448 20.5 499C20.5 499.552 20.9477 500 21.5 500H670.5C671.052 500 671.5 499.552 671.5 499ZM671.5 502C671.5 501.448 671.052 501 670.5 501H21.5C20.9477 501 20.5 501.448 20.5 502C20.5 502.552 20.9477 503 21.5 503H670.5C671.052 503 671.5 502.552 671.5 502ZM671.5 505C671.5 504.448 671.052 504 670.5 504H21.5C20.9477 504 20.5 504.448 20.5 505C20.5 505.552 20.9477 506 21.5 506H670.5C671.052 506 671.5 505.552 671.5 505ZM671.5 508C671.5 507.448 671.052 507 670.5 507H21.5C20.9477 507 20.5 507.448 20.5 508C20.5 508.552 20.9477 509 21.5 509H670.5C671.052 509 671.5 508.552 671.5 508ZM671.5 511C671.5 510.448 671.052 510 670.5 510H21.5C20.9477 510 20.5 510.448 20.5 511C20.5 511.552 20.9477 512 21.5 512H670.5C671.052 512 671.5 511.552 671.5 511ZM671.5 514C671.5 513.448 671.052 513 670.5 513H21.5C20.9477 513 20.5 513.448 20.5 514C20.5 514.552 20.9477 515 21.5 515H670.5C671.052 515 671.5 514.552 671.5 514ZM671.5 517C671.5 516.448 671.052 516 670.5 516H21.5C20.9477 516 20.5 516.448 20.5 517C20.5 517.552 20.9477 518 21.5 518H670.5C671.052 518 671.5 517.552 671.5 517ZM671.5 520C671.5 519.448 671.052 519 670.5 519H21.5C20.9477 519 20.5 519.448 20.5 520C20.5 520.552 20.9477 521 21.5 521H670.5C671.052 521 671.5 520.552 671.5 520ZM671.5 523C671.5 522.448 671.052 522 670.5 522H21.5C20.9477 522 20.5 522.448 20.5 523C20.5 523.552 20.9477 524 21.5 524H670.5C671.052 524 671.5 523.552 671.5 523ZM671.5 526C671.5 525.448 671.052 525 670.5 525H21.5C20.9477 525 20.5 525.448 20.5 526C20.5 526.552 20.9477 527 21.5 527H670.5C671.052 527 671.5 526.552 671.5 526ZM671.5 529C671.5 528.448 671.052 528 670.5 528H21.5C20.9477 528 20.5 528.448 20.5 529C20.5 529.552 20.9477 530 21.5 530H670.5C671.052 530 671.5 529.552 671.5 529ZM671.5 532C671.5 531.448 671.052 531 670.5 531H21.5C20.9477 531 20.5 531.448 20.5 532C20.5 532.552 20.9477 533 21.5 533H670.5C671.052 533 671.5 532.552 671.5 532ZM671.5 535.061C671.5 534.475 671.025 534 670.439 534H21.5607C20.9749 534 20.5 534.475 20.5 535.061V535.396C20.5 535.463 20.4737 535.526 20.4268 535.573C20.2693 535.731 20.3808 536 20.6036 536H671.396C671.619 536 671.731 535.731 671.573 535.573C671.526 535.526 671.5 535.463 671.5 535.396V535.061ZM673.293 537.293C673.105 537.105 672.851 537 672.586 537H19.4142C19.149 537 18.8946 537.105 18.7071 537.293C18.0771 537.923 18.5233 539 19.4142 539H672.586C673.477 539 673.923 537.923 673.293 537.293ZM676.293 540.293C676.105 540.105 675.851 540 675.586 540H16.4142C16.149 540 15.8946 540.105 15.7071 540.293C15.0771 540.923 15.5233 542 16.4142 542H675.586C676.477 542 676.923 540.923 676.293 540.293ZM679.5 543.5C679.18 543.18 678.746 543 678.293 543H13.7071C13.2544 543 12.8201 543.18 12.5 543.5L12.2071 543.793C12.0745 543.926 12 544.105 12 544.293C12 544.683 12.3166 545 12.7071 545H679.293C679.683 545 680 544.683 680 544.293C680 544.105 679.925 543.926 679.793 543.793L679.5 543.5ZM680 547C680 546.448 679.552 546 679 546H13C12.4477 546 12 546.448 12 547C12 547.552 12.4477 548 13 548H679C679.552 548 680 547.552 680 547ZM680 550C680 549.448 679.552 549 679 549H13C12.4477 549 12 549.448 12 550C12 550.552 12.4477 551 13 551H679C679.552 551 680 550.552 680 550ZM680 553C680 552.448 679.552 552 679 552H13C12.4477 552 12 552.448 12 553C12 553.552 12.4477 554 13 554H679C679.552 554 680 553.552 680 553ZM680 556C680 555.448 679.552 555 679 555H13C12.4477 555 12 555.448 12 556C12 556.552 12.4477 557 13 557H679C679.552 557 680 556.552 680 556ZM680 559C680 558.448 679.552 558 679 558H13C12.4477 558 12 558.448 12 559C12 559.552 12.4477 560 13 560H679C679.552 560 680 559.552 680 559ZM680 562C680 561.448 679.552 561 679 561H13C12.4477 561 12 561.448 12 562C12 562.552 12.4477 563 13 563H679C679.552 563 680 562.552 680 562ZM680 565C680 564.448 679.552 564 679 564H13C12.4477 564 12 564.448 12 565C12 565.552 12.4477 566 13 566H679C679.552 566 680 565.552 680 565ZM680 568C680 567.448 679.552 567 679 567H13C12.4477 567 12 567.448 12 568C12 568.552 12.4477 569 13 569H679C679.552 569 680 568.552 680 568ZM680 571C680 570.448 679.552 570 679 570H13C12.4477 570 12 570.448 12 571C12 571.552 12.4477 572 13 572H679C679.552 572 680 571.552 680 571ZM680 574C680 573.448 679.552 573 679 573H13C12.4477 573 12 573.448 12 574C12 574.552 12.4477 575 13 575H679C679.552 575 680 574.552 680 574ZM680 577C680 576.448 679.552 576 679 576H13C12.4477 576 12 576.448 12 577C12 577.552 12.4477 578 13 578H679C679.552 578 680 577.552 680 577ZM680 580C680 579.448 679.552 579 679 579H13C12.4477 579 12 579.448 12 580C12 580.552 12.4477 581 13 581H679C679.552 581 680 580.552 680 580ZM680 583C680 582.448 679.552 582 679 582H13C12.4477 582 12 582.448 12 583C12 583.552 12.4477 584 13 584H679C679.552 584 680 583.552 680 583ZM680 586C680 585.448 679.552 585 679 585H13C12.4477 585 12 585.448 12 586C12 586.552 12.4477 587 13 587H679C679.552 587 680 586.552 680 586ZM680 589C680 588.448 679.552 588 679 588H13C12.4477 588 12 588.448 12 589C12 589.552 12.4477 590 13 590H679C679.552 590 680 589.552 680 589ZM680 592C680 591.448 679.552 591 679 591H13C12.4477 591 12 591.448 12 592C12 592.552 12.4477 593 13 593H679C679.552 593 680 592.552 680 592ZM680 595C680 594.448 679.552 594 679 594H13C12.4477 594 12 594.448 12 595C12 595.552 12.4477 596 13 596H679C679.552 596 680 595.552 680 595ZM680 598C680 597.448 679.552 597 679 597H13C12.4477 597 12 597.448 12 598C12 598.552 12.4477 599 13 599H679C679.552 599 680 598.552 680 598ZM680 601C680 600.448 679.552 600 679 600H13C12.4477 600 12 600.448 12 601C12 601.552 12.4477 602 13 602H679C679.552 602 680 601.552 680 601ZM680 604C680 603.448 679.552 603 679 603H13C12.4477 603 12 603.448 12 604C12 604.552 12.4477 605 13 605H679C679.552 605 680 604.552 680 604ZM680 607C680 606.448 679.552 606 679 606H13C12.4477 606 12 606.448 12 607C12 607.552 12.4477 608 13 608H679C679.552 608 680 607.552 680 607ZM680 610C680 609.448 679.552 609 679 609H13C12.4477 609 12 609.448 12 610C12 610.552 12.4477 611 13 611H679C679.552 611 680 610.552 680 610ZM680 613C680 612.448 679.552 612 679 612H13C12.4477 612 12 612.448 12 613C12 613.552 12.4477 614 13 614H679C679.552 614 680 613.552 680 613ZM680 616C680 615.448 679.552 615 679 615H13C12.4477 615 12 615.448 12 616C12 616.552 12.4477 617 13 617H679C679.552 617 680 616.552 680 616ZM680 619C680 618.448 679.552 618 679 618H13C12.4477 618 12 618.448 12 619C12 619.552 12.4477 620 13 620H679C679.552 620 680 619.552 680 619ZM680 622C680 621.448 679.552 621 679 621H13C12.4477 621 12 621.448 12 622C12 622.552 12.4477 623 13 623H679C679.552 623 680 622.552 680 622ZM680 625C680 624.448 679.552 624 679 624H13C12.4477 624 12 624.448 12 625C12 625.552 12.4477 626 13 626H679C679.552 626 680 625.552 680 625ZM680 628C680 627.448 679.552 627 679 627H13C12.4477 627 12 627.448 12 628C12 628.552 12.4477 629 13 629H679C679.552 629 680 628.552 680 628ZM680 631C680 630.448 679.552 630 679 630H13C12.4477 630 12 630.448 12 631C12 631.552 12.4477 632 13 632H679C679.552 632 680 631.552 680 631ZM680 634C680 633.448 679.552 633 679 633H13C12.4477 633 12 633.448 12 634C12 634.552 12.4477 635 13 635H679C679.552 635 680 634.552 680 634ZM680 637C680 636.448 679.552 636 679 636H13C12.4477 636 12 636.448 12 637C12 637.552 12.4477 638 13 638H679C679.552 638 680 637.552 680 637ZM680 640C680 639.448 679.552 639 679 639H13C12.4477 639 12 639.448 12 640C12 640.552 12.4477 641 13 641H679C679.552 641 680 640.552 680 640ZM680 643C680 642.448 679.552 642 679 642H13C12.4477 642 12 642.448 12 643C12 643.552 12.4477 644 13 644H679C679.552 644 680 643.552 680 643ZM680 646C680 645.448 679.552 645 679 645H13C12.4477 645 12 645.448 12 646C12 646.552 12.4477 647 13 647H679C679.552 647 680 646.552 680 646ZM680 649C680 648.448 679.552 648 679 648H13C12.4477 648 12 648.448 12 649C12 649.552 12.4477 650 13 650H679C679.552 650 680 649.552 680 649ZM680 652C680 651.448 679.552 651 679 651H13C12.4477 651 12 651.448 12 652C12 652.552 12.4477 653 13 653H679C679.552 653 680 652.552 680 652ZM680 655C680 654.448 679.552 654 679 654H13C12.4477 654 12 654.448 12 655C12 655.552 12.4477 656 13 656H679C679.552 656 680 655.552 680 655ZM680 658C680 657.448 679.552 657 679 657H13C12.4477 657 12 657.448 12 658C12 658.552 12.4477 659 13 659H679C679.552 659 680 658.552 680 658ZM680 661C680 660.448 679.552 660 679 660H13C12.4477 660 12 660.448 12 661C12 661.552 12.4477 662 13 662H679C679.552 662 680 661.552 680 661ZM680 664C680 663.448 679.552 663 679 663H13C12.4477 663 12 663.448 12 664C12 664.552 12.4477 665 13 665H679C679.552 665 680 664.552 680 664ZM680 667C680 666.448 679.552 666 679 666H13C12.4477 666 12 666.448 12 667C12 667.552 12.4477 668 13 668H679C679.552 668 680 667.552 680 667ZM680 670C680 669.448 679.552 669 679 669H13C12.4477 669 12 669.448 12 670C12 670.552 12.4477 671 13 671H679C679.552 671 680 670.552 680 670ZM529.793 673.707C530.423 673.077 529.977 672 529.086 672H162.914C162.023 672 161.577 673.077 162.207 673.707C162.395 673.895 162.649 674 162.914 674H529.086C529.351 674 529.605 673.895 529.793 673.707ZM526.793 676.707C527.423 676.077 526.977 675 526.086 675H165.914C165.023 675 164.577 676.077 165.207 676.707C165.395 676.895 165.649 677 165.914 677H526.086C526.351 677 526.605 676.895 526.793 676.707ZM523.793 679.707C524.423 679.077 523.977 678 523.086 678H168.914C168.023 678 167.577 679.077 168.207 679.707C168.395 679.895 168.649 680 168.914 680H523.086C523.351 680 523.605 679.895 523.793 679.707ZM520.793 682.707C521.423 682.077 520.977 681 520.086 681H171.914C171.023 681 170.577 682.077 171.207 682.707C171.395 682.895 171.649 683 171.914 683H520.086C520.351 683 520.605 682.895 520.793 682.707ZM517.793 685.707C518.423 685.077 517.977 684 517.086 684H174.914C174.023 684 173.577 685.077 174.207 685.707C174.395 685.895 174.649 686 174.914 686H517.086C517.351 686 517.605 685.895 517.793 685.707ZM514.793 688.707C515.423 688.077 514.977 687 514.086 687H177.914C177.023 687 176.577 688.077 177.207 688.707C177.395 688.895 177.649 689 177.914 689H514.086C514.351 689 514.605 688.895 514.793 688.707ZM511.793 691.707C512.423 691.077 511.977 690 511.086 690H180.914C180.023 690 179.577 691.077 180.207 691.707C180.395 691.895 180.649 692 180.914 692H511.086C511.351 692 511.605 691.895 511.793 691.707ZM508.793 694.707C509.423 694.077 508.977 693 508.086 693H374.414C373.523 693 373.077 694.077 373.707 694.707C373.895 694.895 374.149 695 374.414 695H508.086C508.351 695 508.605 694.895 508.793 694.707ZM506.646 696.854C506.961 696.539 506.738 696 506.293 696H376.207C375.762 696 375.539 696.539 375.854 696.854C375.947 696.947 376.074 697 376.207 697H506.293C506.426 697 506.553 696.947 506.646 696.854ZM317.586 695C317.851 695 318.105 694.895 318.293 694.707C318.923 694.077 318.477 693 317.586 693H183.914C183.023 693 182.577 694.077 183.207 694.707C183.395 694.895 183.649 695 183.914 695H317.586ZM185.354 696.854C185.039 696.539 185.262 696 185.707 696H315.793C316.238 696 316.461 696.539 316.146 696.854C316.053 696.947 315.926 697 315.793 697H185.707C185.574 697 185.447 696.947 185.354 696.854Z" fill="#FB00B5"/>
<path opacity="0.5" d="M103.868 215.08L102.872 224.56H104.468L104.372 225.4H101.816L102.992 214.24H105.548L105.464 215.08H103.868ZM108.695 218.56L109.043 215.344L110.519 214.54H113.315L114.623 215.344L114.491 216.58H113.291L113.387 215.62H110.207L109.943 218.164H112.931L114.239 218.968L113.891 222.256L112.415 223.06H109.499L108.191 222.256L108.323 221.02H109.523L109.415 221.98H112.715L112.991 219.364H110.003L108.695 218.56ZM123.75 214.6H124.95L124.146 222.256L122.67 223.06H119.154L117.846 222.256L118.65 214.6H119.85L119.082 221.86H122.982L123.75 214.6ZM128.035 223L128.911 214.6H133.099L134.407 215.404L134.035 218.968L132.559 219.772H129.571L129.235 223H128.035ZM130.003 215.68L129.679 218.692H132.859L133.183 215.68H130.003ZM138.931 219.22L138.643 221.92H142.231L142.123 223H137.335L138.211 214.6H142.999L142.891 215.68H139.303L139.039 218.14H141.907L141.799 219.22H138.931ZM148.963 219.652H147.151L146.803 223H145.603L146.479 214.6H150.787L152.095 215.404L151.735 218.848L150.259 219.652L151.843 223H150.511L148.963 219.652ZM147.571 215.68L147.259 218.572H150.559L150.871 215.68H147.571ZM158.423 221.98L159.203 214.6H160.403L159.599 222.256L158.123 223.06H155.807L154.499 222.256L154.703 220.3H155.903L155.723 221.98H158.423ZM165.085 219.22L164.797 221.92H168.385L168.277 223H163.489L164.365 214.6H169.153L169.045 215.68H165.457L165.193 218.14H168.061L167.953 219.22H165.085ZM175.393 215.68L174.625 223H173.425L174.193 215.68H171.805L171.913 214.6H177.889L177.781 215.68H175.393ZM180.705 218.56L181.053 215.344L182.529 214.54H185.325L186.633 215.344L186.501 216.58H185.301L185.397 215.62H182.217L181.953 218.164H184.941L186.249 218.968L185.901 222.256L184.425 223.06H181.509L180.201 222.256L180.333 221.02H181.533L181.425 221.98H184.725L185.001 219.364H182.013L180.705 218.56ZM190.851 224.56L191.847 215.08H190.251L190.335 214.24H192.891L191.715 225.4H189.159L189.255 224.56H190.851Z" fill="#0086FB"/>
<path opacity="0.5" d="M528.796 553.08L527.8 562.56H529.396L529.3 563.4H526.744L527.92 552.24H530.476L530.392 553.08H528.796ZM533.623 556.56L533.971 553.344L535.447 552.54H538.243L539.551 553.344L539.419 554.58H538.219L538.315 553.62H535.135L534.871 556.164H537.859L539.167 556.968L538.819 560.256L537.343 561.06H534.427L533.119 560.256L533.251 559.02H534.451L534.343 559.98H537.643L537.919 557.364H534.931L533.623 556.56ZM545.858 559.98L546.638 552.6H547.838L547.034 560.256L545.558 561.06H543.242L541.934 560.256L542.138 558.3H543.338L543.158 559.98H545.858ZM551.992 562.56L552.988 553.08H551.392L551.476 552.24H554.032L552.856 563.4H550.3L550.396 562.56H551.992ZM563.788 553.08L562.792 562.56H564.388L564.292 563.4H561.736L562.912 552.24H565.468L565.384 553.08H563.788ZM574.052 560.256L572.576 561.06H569.54L568.232 560.256L568.964 553.344L570.44 552.54H573.476L574.784 553.344L574.052 560.256ZM570.128 553.62L569.456 559.98H572.876L573.548 553.62H570.128ZM583.832 560.256L582.356 561.06H579.32L578.012 560.256L578.744 553.344L580.22 552.54H583.256L584.564 553.344L583.832 560.256ZM579.908 553.62L579.236 559.98H582.656L583.328 553.62H579.908ZM588.789 562.56L589.785 553.08H588.189L588.273 552.24H590.829L589.653 563.4H587.097L587.193 562.56H588.789Z" fill="#0086FB"/>
<g opacity="0.4">
<path d="M317 75L322 80H370L375 75H516V71H192L185 64H14.5L3 75.5H31.5L35 72H172.5L175.5 75H317Z" fill="#0086FB"/>
<path d="M8.5 243.5L3 238V196.5L1 194.5V126L3 124V196.5V238L8.5 243.5V326L11 328.5V447.5L8.5 450V532.5L3 538V579.5V652L1 650V581.5L3 579.5V538L8.5 532.5V450V326V243.5Z" fill="#0086FB"/>
<path d="M88 233L83 238V210.5L105.5 188H198L192.5 193.5H107L88 212.5V233Z" fill="#0086FB"/>
<path d="M120.5 200.5L116 196H195L200 191H250L255 196H210L205.5 200.5H120.5Z" fill="#0086FB"/>
<path d="M683.5 243.5L689 238V196.5V182L691 180V194.5L689 196.5V238L683.5 243.5V326V450V532.5L689 538V579.5L691 581.5V650L689 652V579.5V538L683.5 532.5V450L681 447.5V328.5L683.5 326V243.5Z" fill="#0086FB"/>
<path d="M604 233L609 238V210.5L586.5 188H494L499.5 193.5H585L604 212.5V233Z" fill="#0086FB"/>
<path d="M571.5 200.5L576 196H497L492 191H442L437 196H482L486.5 200.5H571.5Z" fill="#0086FB"/>
<path d="M317 701L322 696H370L375 701H516.5L519.5 704H657L660.5 700.5H689L677.5 712H507L500 705H192L185 712H14.5L3 700.5H31.5L35 704H172.5L175.5 701H317Z" fill="#0086FB"/>
<path d="M88 543L83 538V565.5L105.5 588H198L192.5 582.5H107L88 563.5V543Z" fill="#0086FB"/>
<path d="M120.5 575.5L116 580H195L200 585H250L255 580H210L205.5 575.5H120.5Z" fill="#0086FB"/>
<path d="M604 543L609 538V565.5L586.5 588H494L499.5 582.5H585L604 563.5V543Z" fill="#0086FB"/>
<path d="M571.5 575.5L576 580H497L492 585H442L437 580H482L486.5 575.5H571.5Z" fill="#0086FB"/>
<path d="M3 84V124M3 196.5V238L8.5 243.5V326M3 196.5L1 194.5V126L3 124M3 196.5V124M8.5 326L11 328.5V447.5L8.5 450M8.5 326V450M234 347H283L302 328V303M215 388H245M346 274V181M689 196.5V238L683.5 243.5V326M689 196.5L691 194.5V180L689 182V196.5ZM683.5 326L681 328.5V447.5L683.5 450M683.5 326V450M458 347H409L390 328V303M477 388H447M3 692V652M3 579.5V538L8.5 532.5V450M3 579.5L1 581.5V650L3 652M3 579.5V652M234 429H283L302 448V473M346 502V595M689 692V652M689 579.5V538L683.5 532.5V450M689 579.5L691 581.5V650L689 652M689 579.5V652M458 429H409L390 448V473M322 80L317 75H175.5L172.5 72H35L31.5 75.5H3L14.5 64H185L192 71H516V75H375L370 80H322ZM83 238L88 233V212.5L107 193.5H192.5L198 188H105.5L83 210.5V238ZM116 196L120.5 200.5H205.5L210 196H255L250 191H200L195 196H116ZM609 238L604 233V212.5L585 193.5H499.5L494 188H586.5L609 210.5V238ZM576 196L571.5 200.5H486.5L482 196H437L442 191H492L497 196H576ZM322 696L317 701H175.5L172.5 704H35L31.5 700.5H3L14.5 712H185L192 705H500L507 712H677.5L689 700.5H660.5L657 704H519.5L516.5 701H375L370 696H322ZM83 538L88 543V563.5L107 582.5H192.5L198 588H105.5L83 565.5V538ZM116 580L120.5 575.5H205.5L210 580H255L250 585H200L195 580H116ZM609 538L604 543V563.5L585 582.5H499.5L494 588H586.5L609 565.5V538ZM576 580L571.5 575.5H486.5L482 580H437L442 585H492L497 580H576Z" stroke="#0086FB" stroke-width="0.5"/>
</g>
<path d="M46 85L41 90H46L51 85H46Z" fill="#0086FB"/>
<path d="M31 85L36 90H31L26 85H31Z" fill="#0086FB"/>
<path d="M23 85L28 90H23V85Z" fill="#0086FB"/>
<path d="M54 85L49 90H54L59 85H54Z" fill="#0086FB"/>
<path d="M62 85L57 90H62L67 85H62Z" fill="#0086FB"/>
<path d="M70 85L65 90H70L75 85H70Z" fill="#0086FB"/>
<path d="M78 85L73 90H78L83 85H78Z" fill="#0086FB"/>
<path d="M86 85L81 90H86L91 85H86Z" fill="#0086FB"/>
<path d="M94 85L89 90H94L99 85H94Z" fill="#0086FB"/>
<path d="M102 85L97 90H102L107 85H102Z" fill="#0086FB"/>
<path d="M110 85L105 90H110L115 85H110Z" fill="#0086FB"/>
<path d="M118 85L113 90H118L123 85H118Z" fill="#0086FB"/>
<path d="M126 85L121 90H126L131 85H126Z" fill="#0086FB"/>
<path d="M134 85L129 90H134L139 85H134Z" fill="#0086FB"/>
<path d="M142 85L137 90H142V85Z" fill="#0086FB"/>
<path d="M33.5 85L38.5 90L43.5 85H33.5Z" fill="#0086FB"/>
<path d="M46 691L41 686H46L51 691H46Z" fill="#0086FB"/>
<path d="M31 691L36 686H31L26 691H31Z" fill="#0086FB"/>
<path d="M23 691L28 686H23V691Z" fill="#0086FB"/>
<path d="M54 691L49 686H54L59 691H54Z" fill="#0086FB"/>
<path d="M62 691L57 686H62L67 691H62Z" fill="#0086FB"/>
<path d="M70 691L65 686H70L75 691H70Z" fill="#0086FB"/>
<path d="M78 691L73 686H78L83 691H78Z" fill="#0086FB"/>
<path d="M86 691L81 686H86L91 691H86Z" fill="#0086FB"/>
<path d="M94 691L89 686H94L99 691H94Z" fill="#0086FB"/>
<path d="M102 691L97 686H102L107 691H102Z" fill="#0086FB"/>
<path d="M110 691L105 686H110L115 691H110Z" fill="#0086FB"/>
<path d="M118 691L113 686H118L123 691H118Z" fill="#0086FB"/>
<path d="M126 691L121 686H126L131 691H126Z" fill="#0086FB"/>
<path d="M134 691L129 686H134L139 691H134Z" fill="#0086FB"/>
<path d="M142 691L137 686H142V691Z" fill="#0086FB"/>
<path d="M33.5 691L38.5 686L43.5 691H33.5Z" fill="#0086FB"/>
<path d="M646 691L651 686H646L641 691H646Z" fill="#0086FB"/>
<path d="M661 691L656 686H661L666 691H661Z" fill="#0086FB"/>
<path d="M669 691L664 686H669V691Z" fill="#0086FB"/>
<path d="M638 691L643 686H638L633 691H638Z" fill="#0086FB"/>
<path d="M630 691L635 686H630L625 691H630Z" fill="#0086FB"/>
<path d="M622 691L627 686H622L617 691H622Z" fill="#0086FB"/>
<path d="M614 691L619 686H614L609 691H614Z" fill="#0086FB"/>
<path d="M606 691L611 686H606L601 691H606Z" fill="#0086FB"/>
<path d="M598 691L603 686H598L593 691H598Z" fill="#0086FB"/>
<path d="M590 691L595 686H590L585 691H590Z" fill="#0086FB"/>
<path d="M582 691L587 686H582L577 691H582Z" fill="#0086FB"/>
<path d="M574 691L579 686H574L569 691H574Z" fill="#0086FB"/>
<path d="M566 691L571 686H566L561 691H566Z" fill="#0086FB"/>
<path d="M558 691L563 686H558L553 691H558Z" fill="#0086FB"/>
<path d="M550 691L555 686H550V691Z" fill="#0086FB"/>
<path d="M658.5 691L653.5 686L648.5 691H658.5Z" fill="#0086FB"/>
<path opacity="0.1" fill-rule="evenodd" clip-rule="evenodd" d="M580.173 368.15C580.261 369.192 581.129 370 582.175 370H589C590.105 370 591 369.105 591 368V250C591 248.895 590.105 248 589 248L538.741 248C537.098 248 536.151 249.877 537.109 251.213C561.116 284.694 576.543 324.745 580.173 368.15ZM154.891 251.213C155.849 249.877 154.902 248 153.259 248L103 248C101.895 248 101 248.895 101 250V368C101 369.105 101.895 370 103 370H109.825C110.871 370 111.739 369.192 111.827 368.15C115.457 324.745 130.884 284.694 154.891 251.213ZM538.741 528C537.098 528 536.151 526.123 537.109 524.787C561.116 491.306 576.543 451.255 580.173 407.85C580.261 406.808 581.129 406 582.175 406H589C590.105 406 591 406.895 591 408V526C591 527.105 590.105 528 589 528H538.741ZM154.891 524.787C155.849 526.123 154.902 528 153.259 528H103C101.895 528 101 527.105 101 526V408C101 406.895 101.895 406 103 406H109.825C110.871 406 111.739 406.808 111.827 407.85C115.457 451.255 130.884 491.306 154.891 524.787Z" fill="#FAFAFA"/>
<path d="M480 522C405.994 596.006 286.006 596.006 212 522M212 254C286.006 179.994 405.994 179.994 480 254" stroke="#0086FB" stroke-width="0.5"/>
<g opacity="0.4">
<path fill-rule="evenodd" clip-rule="evenodd" d="M663 179H686L696 169V111L692 115V167L684 175H667L663 179Z" fill="#0086FB"/>
<path d="M528 1L518 11V75L523 70V14L531 6H599L604 1H528Z" fill="#0086FB"/>
<path d="M663 179H686L696 169V111M663 179H518V75M663 179L667 175H684L692 167V115L696 111M696 111V1H604M518 75V11L528 1H604M518 75L523 70V14L531 6H599L604 1" stroke="#0086FB" stroke-width="0.5"/>
</g>
</svg>
