<svg width="18" height="18" viewBox="0 0 18 18" fill="none" xmlns="http://www.w3.org/2000/svg">
<rect width="18" height="18" transform="translate(0 0.000244141)" fill="#00A42E"/>
<path fill-rule="evenodd" clip-rule="evenodd" d="M10.4969 3.00024H8.98548L8.80019 4.50024H7.125C5.67525 4.50024 4.5 5.6755 4.5 7.12524C4.5 8.57499 5.67525 9.75024 7.125 9.75024H8.15166L7.87372 12.0002H4.5V13.5002H7.68843L7.50314 15.0002H9.01454L9.19983 13.5002H10.875C12.3247 13.5002 13.5 12.325 13.5 10.8752C13.5 9.4255 12.3247 8.25024 10.875 8.25024H9.84836L10.1263 6.00024H13.5V4.50024H10.3116L10.4969 3.00024ZM8.61489 6.00024H7.125C6.50368 6.00024 6 6.50392 6 7.12524C6 7.74656 6.50368 8.25024 7.125 8.25024H8.33695L8.61489 6.00024ZM9.66306 9.75024L9.38512 12.0002H10.875C11.4963 12.0002 12 11.4966 12 10.8752C12 10.2539 11.4963 9.75024 10.875 9.75024H9.66306Z" fill="#F7F0EA"/>
</svg>
