<svg width="296" height="201" viewBox="0 0 296 201" fill="none" xmlns="http://www.w3.org/2000/svg">
<g filter="url(#filter0_dddd_56_533)">
<path d="M123.305 120.688L141.415 126.893H154.585L172.695 120.688M123.305 120.688L121 130.159L124.951 146.49M123.305 120.688L142.732 136.038L137.463 143.224L124.951 146.49M124.951 146.49L121 158.248M121 158.248L124.293 170.006L136.805 166.087M121 158.248H137.463L136.805 166.087M136.805 166.087L144.049 171.312H151.951L159.195 166.087M172.695 120.688L175 130.159L171.049 146.49M172.695 120.688L153.268 136.038L158.537 143.224L171.049 146.49M171.049 146.49L175 158.248M175 158.248L171.707 170.006L159.195 166.087M175 158.248H158.537L159.195 166.087" stroke="#FAFAFA"/>
<path d="M144.049 166.053H148H151.951V162.108L150.634 160.793H148H145.366L144.049 162.108V166.053Z" fill="#FAFAFA"/>
<path d="M138.122 152.903L144.049 154.218L141.415 150.274L138.122 152.903Z" fill="#FAFAFA"/>
<path d="M157.878 152.903L151.951 154.218L154.585 150.274L157.878 152.903Z" fill="#FAFAFA"/>
</g>
<defs>
<filter id="filter0_dddd_56_533" x="0.477051" y="0.0368652" width="295.046" height="291.776" filterUnits="userSpaceOnUse" color-interpolation-filters="sRGB">
<feFlood flood-opacity="0" result="BackgroundImageFix"/>
<feColorMatrix in="SourceAlpha" type="matrix" values="0 0 0 0 0 0 0 0 0 0 0 0 0 0 0 0 0 0 127 0" result="hardAlpha"/>
<feOffset/>
<feGaussianBlur stdDeviation="3.5"/>
<feColorMatrix type="matrix" values="0 0 0 0 0.811765 0 0 0 0 0.698039 0 0 0 0 0.0627451 0 0 0 1 0"/>
<feBlend mode="normal" in2="BackgroundImageFix" result="effect1_dropShadow_56_533"/>
<feColorMatrix in="SourceAlpha" type="matrix" values="0 0 0 0 0 0 0 0 0 0 0 0 0 0 0 0 0 0 127 0" result="hardAlpha"/>
<feOffset/>
<feGaussianBlur stdDeviation="8"/>
<feColorMatrix type="matrix" values="0 0 0 0 0.811765 0 0 0 0 0.698039 0 0 0 0 0.0627451 0 0 0 1 0"/>
<feBlend mode="normal" in2="effect1_dropShadow_56_533" result="effect2_dropShadow_56_533"/>
<feColorMatrix in="SourceAlpha" type="matrix" values="0 0 0 0 0 0 0 0 0 0 0 0 0 0 0 0 0 0 127 0" result="hardAlpha"/>
<feOffset/>
<feGaussianBlur stdDeviation="16"/>
<feColorMatrix type="matrix" values="0 0 0 0 0.811765 0 0 0 0 0.698039 0 0 0 0 0.0627451 0 0 0 1 0"/>
<feBlend mode="normal" in2="effect2_dropShadow_56_533" result="effect3_dropShadow_56_533"/>
<feColorMatrix in="SourceAlpha" type="matrix" values="0 0 0 0 0 0 0 0 0 0 0 0 0 0 0 0 0 0 127 0" result="hardAlpha"/>
<feOffset/>
<feGaussianBlur stdDeviation="60"/>
<feColorMatrix type="matrix" values="0 0 0 0 0.811765 0 0 0 0 0.698039 0 0 0 0 0.0627451 0 0 0 1 0"/>
<feBlend mode="normal" in2="effect3_dropShadow_56_533" result="effect4_dropShadow_56_533"/>
<feBlend mode="normal" in="SourceGraphic" in2="effect4_dropShadow_56_533" result="shape"/>
</filter>
</defs>
</svg>
