<svg width="56" height="52" viewBox="0 0 56 52" fill="none" xmlns="http://www.w3.org/2000/svg">
<path d="M3.30488 1L21.4146 7.12903H34.5854L52.6951 1M3.30488 1L1 10.3548L4.95122 26.4839M3.30488 1L22.7317 16.1613L17.4634 23.2581L4.95122 26.4839M4.95122 26.4839L1 38.0968M1 38.0968L4.29268 49.7097L16.8049 45.8387M1 38.0968H17.4634L16.8049 45.8387M16.8049 45.8387L24.0488 51H31.9512L39.1951 45.8387M52.6951 1L55 10.3548L51.0488 26.4839M52.6951 1L33.2683 16.1613L38.5366 23.2581L51.0488 26.4839M51.0488 26.4839L55 38.0968M55 38.0968L51.7073 49.7097L39.1951 45.8387M55 38.0968H38.5366L39.1951 45.8387" stroke="#FAFAFA"/>
</svg>
