<svg width="18" height="18" viewBox="0 0 18 18" fill="none" xmlns="http://www.w3.org/2000/svg">
<rect width="18" height="18" transform="translate(0 0.000244141)" fill="#E20101"/>
<path d="M8.25 6.00024C8.25 7.24288 7.24264 8.25024 6 8.25024C4.75736 8.25024 3.75 7.24288 3.75 6.00024C3.75 4.7576 4.75736 3.75024 6 3.75024C7.24264 3.75024 8.25 4.7576 8.25 6.00024Z" fill="#F7F0EA"/>
<path d="M14.0303 5.03057L5.03033 14.0306L3.96967 12.9699L12.9697 3.96991L14.0303 5.03057Z" fill="#F7F0EA"/>
<path d="M12 14.2502C13.2426 14.2502 14.25 13.2429 14.25 12.0002C14.25 10.7576 13.2426 9.75024 12 9.75024C10.7574 9.75024 9.75 10.7576 9.75 12.0002C9.75 13.2429 10.7574 14.2502 12 14.2502Z" fill="#F7F0EA"/>
</svg>
